G04 EAGLE Gerber RS-274X export*
G75*
%MOMM*%
%FSLAX34Y34*%
%LPD*%
%INCopper Layer 2*%
%IPPOS*%
%AMOC8*
5,1,8,0,0,1.08239X$1,22.5*%
G01*
%ADD10C,1.270000*%
%ADD11R,0.635000X1.270000*%
%ADD12C,1.508000*%
%ADD13C,1.905000*%
%ADD14C,2.667000*%
%ADD15C,1.350000*%
%ADD16C,1.500000*%
%ADD17C,0.756400*%
%ADD18C,1.056400*%

G36*
X1636794Y12195D02*
X1636794Y12195D01*
X1636812Y12193D01*
X1636994Y12214D01*
X1637177Y12233D01*
X1637194Y12238D01*
X1637211Y12240D01*
X1637386Y12297D01*
X1637562Y12351D01*
X1637577Y12359D01*
X1637594Y12365D01*
X1637754Y12455D01*
X1637916Y12543D01*
X1637929Y12554D01*
X1637945Y12563D01*
X1638084Y12683D01*
X1638225Y12800D01*
X1638236Y12814D01*
X1638250Y12826D01*
X1638362Y12971D01*
X1638477Y13114D01*
X1638485Y13130D01*
X1638496Y13144D01*
X1638578Y13309D01*
X1638663Y13471D01*
X1638668Y13488D01*
X1638676Y13504D01*
X1638723Y13683D01*
X1638774Y13858D01*
X1638776Y13876D01*
X1638780Y13893D01*
X1638807Y14224D01*
X1638807Y1128776D01*
X1638805Y1128794D01*
X1638807Y1128812D01*
X1638786Y1128994D01*
X1638767Y1129177D01*
X1638762Y1129194D01*
X1638760Y1129211D01*
X1638703Y1129386D01*
X1638649Y1129562D01*
X1638641Y1129577D01*
X1638635Y1129594D01*
X1638545Y1129754D01*
X1638457Y1129916D01*
X1638446Y1129929D01*
X1638437Y1129945D01*
X1638317Y1130084D01*
X1638200Y1130225D01*
X1638186Y1130236D01*
X1638174Y1130250D01*
X1638029Y1130362D01*
X1637886Y1130477D01*
X1637870Y1130485D01*
X1637856Y1130496D01*
X1637691Y1130578D01*
X1637529Y1130663D01*
X1637512Y1130668D01*
X1637496Y1130676D01*
X1637317Y1130723D01*
X1637142Y1130774D01*
X1637124Y1130776D01*
X1637107Y1130780D01*
X1636776Y1130807D01*
X40640Y1130807D01*
X40622Y1130805D01*
X40604Y1130807D01*
X40422Y1130786D01*
X40239Y1130767D01*
X40222Y1130762D01*
X40205Y1130760D01*
X40030Y1130703D01*
X39854Y1130649D01*
X39839Y1130641D01*
X39822Y1130635D01*
X39662Y1130545D01*
X39500Y1130457D01*
X39487Y1130446D01*
X39471Y1130437D01*
X39332Y1130317D01*
X39191Y1130200D01*
X39180Y1130186D01*
X39167Y1130174D01*
X39054Y1130029D01*
X38939Y1129886D01*
X38931Y1129870D01*
X38920Y1129856D01*
X38838Y1129691D01*
X38753Y1129529D01*
X38748Y1129512D01*
X38740Y1129496D01*
X38693Y1129317D01*
X38642Y1129142D01*
X38640Y1129124D01*
X38636Y1129107D01*
X38609Y1128776D01*
X38609Y659141D01*
X38610Y659132D01*
X38609Y659123D01*
X38630Y658931D01*
X38649Y658740D01*
X38651Y658732D01*
X38652Y658723D01*
X38710Y658540D01*
X38767Y658355D01*
X38771Y658347D01*
X38774Y658339D01*
X38867Y658170D01*
X38959Y658001D01*
X38964Y657994D01*
X38969Y657987D01*
X39093Y657840D01*
X39216Y657692D01*
X39223Y657686D01*
X39229Y657680D01*
X39380Y657561D01*
X39530Y657440D01*
X39538Y657435D01*
X39545Y657430D01*
X39718Y657342D01*
X39887Y657254D01*
X39896Y657252D01*
X39904Y657248D01*
X40090Y657196D01*
X40274Y657143D01*
X40283Y657142D01*
X40292Y657140D01*
X40485Y657125D01*
X40676Y657110D01*
X40684Y657111D01*
X40693Y657110D01*
X40886Y657135D01*
X41075Y657157D01*
X41084Y657159D01*
X41093Y657161D01*
X41276Y657222D01*
X41458Y657282D01*
X41466Y657286D01*
X41474Y657289D01*
X41640Y657384D01*
X41809Y657479D01*
X41816Y657485D01*
X41823Y657490D01*
X42076Y657704D01*
X44825Y660453D01*
X48702Y662059D01*
X52898Y662059D01*
X56775Y660453D01*
X59743Y657485D01*
X61349Y653608D01*
X61349Y649412D01*
X59743Y645535D01*
X56775Y642567D01*
X52898Y640961D01*
X48702Y640961D01*
X44825Y642567D01*
X42076Y645316D01*
X42069Y645321D01*
X42064Y645328D01*
X41914Y645448D01*
X41765Y645571D01*
X41757Y645575D01*
X41750Y645580D01*
X41580Y645669D01*
X41409Y645759D01*
X41401Y645762D01*
X41393Y645766D01*
X41208Y645819D01*
X41023Y645874D01*
X41014Y645875D01*
X41006Y645877D01*
X40815Y645893D01*
X40622Y645910D01*
X40613Y645909D01*
X40604Y645910D01*
X40415Y645888D01*
X40222Y645867D01*
X40213Y645864D01*
X40205Y645863D01*
X40023Y645804D01*
X39838Y645746D01*
X39830Y645741D01*
X39822Y645738D01*
X39653Y645643D01*
X39486Y645551D01*
X39479Y645545D01*
X39471Y645541D01*
X39325Y645415D01*
X39179Y645290D01*
X39173Y645283D01*
X39167Y645277D01*
X39049Y645126D01*
X38929Y644974D01*
X38925Y644966D01*
X38920Y644959D01*
X38834Y644787D01*
X38747Y644615D01*
X38744Y644607D01*
X38740Y644599D01*
X38690Y644413D01*
X38639Y644227D01*
X38638Y644219D01*
X38636Y644210D01*
X38609Y643879D01*
X38609Y14224D01*
X38611Y14206D01*
X38609Y14188D01*
X38630Y14006D01*
X38649Y13823D01*
X38654Y13806D01*
X38656Y13789D01*
X38713Y13614D01*
X38767Y13438D01*
X38775Y13423D01*
X38781Y13406D01*
X38871Y13246D01*
X38959Y13084D01*
X38970Y13071D01*
X38979Y13055D01*
X39099Y12916D01*
X39216Y12775D01*
X39230Y12764D01*
X39242Y12750D01*
X39387Y12638D01*
X39530Y12523D01*
X39546Y12515D01*
X39560Y12504D01*
X39725Y12422D01*
X39887Y12337D01*
X39904Y12332D01*
X39921Y12324D01*
X40099Y12277D01*
X40274Y12226D01*
X40292Y12224D01*
X40309Y12220D01*
X40640Y12193D01*
X1636776Y12193D01*
X1636794Y12195D01*
G37*
%LPC*%
G36*
X787311Y527839D02*
X787311Y527839D01*
X784801Y528879D01*
X782879Y530801D01*
X781839Y533311D01*
X781839Y536029D01*
X782879Y538539D01*
X783924Y539584D01*
X783935Y539597D01*
X783948Y539609D01*
X784063Y539754D01*
X784179Y539895D01*
X784187Y539911D01*
X784198Y539925D01*
X784281Y540089D01*
X784367Y540251D01*
X784372Y540268D01*
X784380Y540284D01*
X784430Y540460D01*
X784482Y540637D01*
X784484Y540655D01*
X784488Y540672D01*
X784502Y540855D01*
X784518Y541038D01*
X784517Y541056D01*
X784518Y541073D01*
X784495Y541255D01*
X784475Y541438D01*
X784470Y541455D01*
X784467Y541473D01*
X784409Y541646D01*
X784354Y541822D01*
X784345Y541838D01*
X784339Y541854D01*
X784248Y542013D01*
X784159Y542174D01*
X784147Y542188D01*
X784138Y542203D01*
X783924Y542456D01*
X782879Y543501D01*
X781839Y546011D01*
X781839Y548729D01*
X782879Y551239D01*
X783924Y552284D01*
X783935Y552297D01*
X783948Y552309D01*
X784063Y552454D01*
X784179Y552595D01*
X784187Y552611D01*
X784198Y552625D01*
X784281Y552789D01*
X784367Y552951D01*
X784372Y552968D01*
X784380Y552984D01*
X784430Y553160D01*
X784482Y553337D01*
X784484Y553355D01*
X784488Y553372D01*
X784502Y553555D01*
X784518Y553738D01*
X784517Y553756D01*
X784518Y553773D01*
X784495Y553955D01*
X784475Y554138D01*
X784470Y554155D01*
X784467Y554173D01*
X784409Y554346D01*
X784354Y554522D01*
X784345Y554538D01*
X784339Y554554D01*
X784248Y554713D01*
X784159Y554874D01*
X784147Y554888D01*
X784138Y554903D01*
X783924Y555156D01*
X782879Y556201D01*
X781839Y558711D01*
X781839Y561429D01*
X782879Y563939D01*
X783924Y564984D01*
X783935Y564998D01*
X783949Y565009D01*
X784062Y565153D01*
X784179Y565295D01*
X784187Y565311D01*
X784198Y565325D01*
X784281Y565489D01*
X784367Y565651D01*
X784372Y565668D01*
X784380Y565684D01*
X784430Y565861D01*
X784482Y566037D01*
X784484Y566055D01*
X784488Y566072D01*
X784502Y566255D01*
X784518Y566438D01*
X784517Y566456D01*
X784518Y566473D01*
X784495Y566655D01*
X784475Y566838D01*
X784470Y566855D01*
X784467Y566873D01*
X784409Y567047D01*
X784354Y567222D01*
X784345Y567238D01*
X784339Y567254D01*
X784248Y567413D01*
X784159Y567574D01*
X784147Y567588D01*
X784138Y567603D01*
X783924Y567856D01*
X782879Y568901D01*
X781839Y571411D01*
X781839Y574129D01*
X782879Y576639D01*
X783924Y577684D01*
X783935Y577697D01*
X783948Y577709D01*
X784063Y577854D01*
X784179Y577995D01*
X784187Y578011D01*
X784198Y578025D01*
X784281Y578189D01*
X784367Y578351D01*
X784372Y578368D01*
X784380Y578384D01*
X784430Y578560D01*
X784482Y578737D01*
X784484Y578755D01*
X784488Y578772D01*
X784502Y578955D01*
X784518Y579138D01*
X784517Y579156D01*
X784518Y579173D01*
X784495Y579355D01*
X784475Y579538D01*
X784470Y579555D01*
X784467Y579573D01*
X784410Y579745D01*
X784354Y579922D01*
X784345Y579938D01*
X784339Y579954D01*
X784248Y580113D01*
X784159Y580274D01*
X784147Y580288D01*
X784138Y580303D01*
X783924Y580556D01*
X782879Y581601D01*
X781839Y584111D01*
X781839Y586829D01*
X782879Y589339D01*
X783924Y590384D01*
X783935Y590398D01*
X783949Y590409D01*
X784062Y590553D01*
X784179Y590695D01*
X784187Y590711D01*
X784198Y590725D01*
X784281Y590889D01*
X784367Y591051D01*
X784372Y591068D01*
X784380Y591084D01*
X784430Y591261D01*
X784482Y591437D01*
X784484Y591455D01*
X784488Y591472D01*
X784502Y591655D01*
X784518Y591838D01*
X784517Y591856D01*
X784518Y591873D01*
X784495Y592055D01*
X784475Y592238D01*
X784470Y592255D01*
X784467Y592273D01*
X784409Y592447D01*
X784354Y592622D01*
X784345Y592638D01*
X784339Y592654D01*
X784248Y592813D01*
X784159Y592974D01*
X784147Y592988D01*
X784138Y593003D01*
X783924Y593256D01*
X782879Y594301D01*
X781839Y596811D01*
X781839Y599529D01*
X782879Y602039D01*
X783924Y603084D01*
X783935Y603097D01*
X783948Y603109D01*
X784063Y603254D01*
X784179Y603395D01*
X784187Y603411D01*
X784198Y603425D01*
X784281Y603589D01*
X784367Y603751D01*
X784372Y603768D01*
X784380Y603784D01*
X784430Y603960D01*
X784482Y604137D01*
X784484Y604155D01*
X784488Y604172D01*
X784502Y604355D01*
X784518Y604538D01*
X784517Y604556D01*
X784518Y604573D01*
X784495Y604755D01*
X784475Y604938D01*
X784470Y604955D01*
X784467Y604973D01*
X784409Y605146D01*
X784354Y605322D01*
X784345Y605338D01*
X784339Y605354D01*
X784248Y605513D01*
X784159Y605674D01*
X784147Y605688D01*
X784138Y605703D01*
X783924Y605956D01*
X782879Y607001D01*
X781839Y609511D01*
X781839Y612229D01*
X782879Y614739D01*
X783924Y615784D01*
X783935Y615798D01*
X783949Y615809D01*
X784062Y615953D01*
X784179Y616095D01*
X784187Y616111D01*
X784198Y616125D01*
X784281Y616289D01*
X784367Y616451D01*
X784372Y616468D01*
X784380Y616484D01*
X784430Y616661D01*
X784482Y616837D01*
X784484Y616855D01*
X784488Y616872D01*
X784502Y617055D01*
X784518Y617238D01*
X784517Y617256D01*
X784518Y617273D01*
X784495Y617455D01*
X784475Y617638D01*
X784470Y617655D01*
X784467Y617673D01*
X784409Y617847D01*
X784354Y618022D01*
X784345Y618038D01*
X784339Y618054D01*
X784248Y618213D01*
X784159Y618374D01*
X784147Y618388D01*
X784138Y618403D01*
X783924Y618656D01*
X782879Y619701D01*
X781839Y622211D01*
X781839Y624929D01*
X782879Y627439D01*
X784801Y629361D01*
X787311Y630401D01*
X790029Y630401D01*
X792539Y629361D01*
X794461Y627439D01*
X795501Y624929D01*
X795501Y622211D01*
X794461Y619701D01*
X793416Y618656D01*
X793405Y618643D01*
X793392Y618631D01*
X793277Y618486D01*
X793161Y618345D01*
X793153Y618329D01*
X793142Y618315D01*
X793059Y618151D01*
X792973Y617989D01*
X792968Y617972D01*
X792960Y617956D01*
X792910Y617779D01*
X792858Y617603D01*
X792856Y617585D01*
X792852Y617568D01*
X792838Y617385D01*
X792822Y617202D01*
X792823Y617184D01*
X792822Y617167D01*
X792845Y616985D01*
X792865Y616802D01*
X792870Y616785D01*
X792873Y616767D01*
X792931Y616594D01*
X792986Y616418D01*
X792995Y616402D01*
X793001Y616386D01*
X793092Y616227D01*
X793181Y616066D01*
X793193Y616052D01*
X793202Y616037D01*
X793416Y615784D01*
X794461Y614739D01*
X795501Y612229D01*
X795501Y609511D01*
X794461Y607001D01*
X793416Y605956D01*
X793405Y605942D01*
X793391Y605931D01*
X793278Y605787D01*
X793161Y605645D01*
X793153Y605629D01*
X793142Y605615D01*
X793059Y605451D01*
X792973Y605289D01*
X792968Y605272D01*
X792960Y605256D01*
X792910Y605079D01*
X792858Y604903D01*
X792856Y604885D01*
X792852Y604868D01*
X792838Y604685D01*
X792822Y604502D01*
X792823Y604484D01*
X792822Y604467D01*
X792845Y604285D01*
X792865Y604102D01*
X792870Y604085D01*
X792873Y604067D01*
X792931Y603893D01*
X792986Y603718D01*
X792995Y603702D01*
X793001Y603686D01*
X793092Y603526D01*
X793181Y603366D01*
X793193Y603352D01*
X793202Y603337D01*
X793416Y603084D01*
X794461Y602039D01*
X795501Y599529D01*
X795501Y596811D01*
X794461Y594301D01*
X793416Y593256D01*
X793405Y593243D01*
X793392Y593231D01*
X793277Y593086D01*
X793161Y592945D01*
X793153Y592929D01*
X793142Y592915D01*
X793059Y592751D01*
X792973Y592589D01*
X792968Y592572D01*
X792960Y592556D01*
X792910Y592379D01*
X792858Y592203D01*
X792856Y592185D01*
X792852Y592168D01*
X792838Y591985D01*
X792822Y591802D01*
X792823Y591784D01*
X792822Y591767D01*
X792845Y591585D01*
X792865Y591402D01*
X792870Y591385D01*
X792873Y591367D01*
X792931Y591194D01*
X792986Y591018D01*
X792995Y591002D01*
X793001Y590986D01*
X793092Y590827D01*
X793181Y590666D01*
X793193Y590652D01*
X793202Y590637D01*
X793416Y590384D01*
X794461Y589339D01*
X795501Y586829D01*
X795501Y584111D01*
X794461Y581601D01*
X793416Y580556D01*
X793405Y580542D01*
X793391Y580531D01*
X793277Y580386D01*
X793161Y580245D01*
X793153Y580229D01*
X793142Y580215D01*
X793059Y580051D01*
X792973Y579889D01*
X792968Y579872D01*
X792960Y579856D01*
X792910Y579679D01*
X792858Y579503D01*
X792856Y579485D01*
X792852Y579468D01*
X792838Y579285D01*
X792822Y579102D01*
X792823Y579084D01*
X792822Y579067D01*
X792845Y578884D01*
X792865Y578702D01*
X792870Y578685D01*
X792873Y578667D01*
X792931Y578493D01*
X792986Y578318D01*
X792995Y578302D01*
X793001Y578286D01*
X793092Y578127D01*
X793181Y577966D01*
X793193Y577952D01*
X793202Y577937D01*
X793416Y577684D01*
X794461Y576639D01*
X795501Y574129D01*
X795501Y571411D01*
X794461Y568901D01*
X793416Y567856D01*
X793405Y567843D01*
X793392Y567831D01*
X793277Y567686D01*
X793161Y567545D01*
X793153Y567529D01*
X793142Y567515D01*
X793059Y567351D01*
X792973Y567189D01*
X792968Y567172D01*
X792960Y567156D01*
X792910Y566979D01*
X792858Y566803D01*
X792856Y566785D01*
X792852Y566768D01*
X792838Y566585D01*
X792822Y566402D01*
X792823Y566384D01*
X792822Y566367D01*
X792845Y566185D01*
X792865Y566002D01*
X792870Y565985D01*
X792873Y565967D01*
X792931Y565794D01*
X792986Y565618D01*
X792995Y565602D01*
X793001Y565586D01*
X793092Y565427D01*
X793181Y565266D01*
X793193Y565252D01*
X793202Y565237D01*
X793416Y564984D01*
X794461Y563939D01*
X795501Y561429D01*
X795501Y558711D01*
X794461Y556201D01*
X793416Y555156D01*
X793405Y555142D01*
X793391Y555131D01*
X793278Y554987D01*
X793161Y554845D01*
X793153Y554829D01*
X793142Y554815D01*
X793058Y554650D01*
X792973Y554489D01*
X792968Y554472D01*
X792960Y554456D01*
X792910Y554279D01*
X792858Y554103D01*
X792856Y554085D01*
X792852Y554068D01*
X792838Y553885D01*
X792822Y553702D01*
X792823Y553684D01*
X792822Y553667D01*
X792845Y553485D01*
X792865Y553302D01*
X792870Y553285D01*
X792873Y553267D01*
X792931Y553093D01*
X792986Y552918D01*
X792995Y552902D01*
X793001Y552886D01*
X793092Y552727D01*
X793181Y552566D01*
X793193Y552552D01*
X793202Y552537D01*
X793416Y552284D01*
X794461Y551239D01*
X795501Y548729D01*
X795501Y546011D01*
X794461Y543501D01*
X793416Y542456D01*
X793405Y542442D01*
X793391Y542431D01*
X793278Y542287D01*
X793161Y542145D01*
X793153Y542129D01*
X793142Y542115D01*
X793059Y541951D01*
X792973Y541789D01*
X792968Y541772D01*
X792960Y541756D01*
X792910Y541579D01*
X792858Y541403D01*
X792856Y541385D01*
X792852Y541368D01*
X792838Y541185D01*
X792822Y541002D01*
X792823Y540984D01*
X792822Y540967D01*
X792845Y540785D01*
X792865Y540602D01*
X792870Y540585D01*
X792873Y540567D01*
X792931Y540393D01*
X792986Y540218D01*
X792995Y540202D01*
X793001Y540186D01*
X793092Y540027D01*
X793181Y539866D01*
X793193Y539852D01*
X793202Y539837D01*
X793416Y539584D01*
X794461Y538539D01*
X795501Y536029D01*
X795501Y533311D01*
X794461Y530801D01*
X792539Y528879D01*
X790350Y527972D01*
X790029Y527839D01*
X787311Y527839D01*
G37*
%LPD*%
%LPC*%
G36*
X934631Y758979D02*
X934631Y758979D01*
X932121Y760019D01*
X930199Y761941D01*
X929159Y764451D01*
X929159Y767169D01*
X930199Y769679D01*
X931879Y771359D01*
X931890Y771373D01*
X931904Y771384D01*
X932018Y771528D01*
X932134Y771670D01*
X932142Y771686D01*
X932153Y771700D01*
X932236Y771864D01*
X932322Y772026D01*
X932327Y772043D01*
X932335Y772059D01*
X932385Y772236D01*
X932437Y772412D01*
X932439Y772430D01*
X932443Y772447D01*
X932457Y772630D01*
X932473Y772813D01*
X932472Y772831D01*
X932473Y772848D01*
X932450Y773030D01*
X932430Y773213D01*
X932425Y773230D01*
X932422Y773248D01*
X932364Y773422D01*
X932309Y773597D01*
X932300Y773613D01*
X932294Y773629D01*
X932203Y773788D01*
X932114Y773949D01*
X932102Y773963D01*
X932093Y773978D01*
X931879Y774231D01*
X930199Y775911D01*
X929159Y778421D01*
X929159Y781139D01*
X930199Y783649D01*
X931244Y784694D01*
X931255Y784707D01*
X931268Y784719D01*
X931383Y784864D01*
X931499Y785005D01*
X931507Y785021D01*
X931518Y785035D01*
X931601Y785199D01*
X931687Y785361D01*
X931692Y785378D01*
X931700Y785394D01*
X931750Y785570D01*
X931802Y785747D01*
X931804Y785765D01*
X931808Y785782D01*
X931822Y785965D01*
X931838Y786148D01*
X931837Y786166D01*
X931838Y786183D01*
X931815Y786365D01*
X931795Y786548D01*
X931790Y786565D01*
X931787Y786583D01*
X931729Y786756D01*
X931674Y786932D01*
X931665Y786948D01*
X931659Y786964D01*
X931568Y787123D01*
X931479Y787284D01*
X931467Y787298D01*
X931458Y787313D01*
X931244Y787566D01*
X930199Y788611D01*
X929159Y791121D01*
X929159Y793839D01*
X930199Y796349D01*
X931244Y797394D01*
X931255Y797407D01*
X931268Y797419D01*
X931383Y797564D01*
X931499Y797705D01*
X931507Y797721D01*
X931518Y797735D01*
X931601Y797899D01*
X931687Y798061D01*
X931692Y798078D01*
X931700Y798094D01*
X931750Y798270D01*
X931802Y798447D01*
X931804Y798465D01*
X931808Y798482D01*
X931822Y798665D01*
X931838Y798848D01*
X931837Y798866D01*
X931838Y798883D01*
X931815Y799065D01*
X931795Y799248D01*
X931790Y799265D01*
X931787Y799283D01*
X931729Y799456D01*
X931674Y799632D01*
X931665Y799648D01*
X931659Y799664D01*
X931568Y799823D01*
X931479Y799984D01*
X931467Y799998D01*
X931458Y800013D01*
X931244Y800266D01*
X930199Y801311D01*
X929159Y803821D01*
X929159Y806539D01*
X930199Y809049D01*
X931117Y809967D01*
X931128Y809980D01*
X931141Y809992D01*
X931255Y810135D01*
X931372Y810278D01*
X931380Y810294D01*
X931391Y810308D01*
X931474Y810472D01*
X931560Y810634D01*
X931565Y810651D01*
X931573Y810667D01*
X931623Y810844D01*
X931675Y811020D01*
X931677Y811038D01*
X931681Y811055D01*
X931695Y811238D01*
X931711Y811421D01*
X931710Y811439D01*
X931711Y811456D01*
X931688Y811638D01*
X931668Y811821D01*
X931663Y811838D01*
X931660Y811856D01*
X931602Y812029D01*
X931547Y812205D01*
X931538Y812221D01*
X931532Y812237D01*
X931441Y812396D01*
X931352Y812557D01*
X931340Y812571D01*
X931331Y812586D01*
X931117Y812839D01*
X930199Y813757D01*
X929159Y816267D01*
X929159Y818985D01*
X930199Y821495D01*
X931371Y822667D01*
X931382Y822680D01*
X931395Y822692D01*
X931510Y822837D01*
X931626Y822978D01*
X931634Y822994D01*
X931645Y823008D01*
X931728Y823172D01*
X931814Y823334D01*
X931819Y823351D01*
X931827Y823367D01*
X931877Y823543D01*
X931929Y823720D01*
X931931Y823738D01*
X931935Y823755D01*
X931949Y823938D01*
X931965Y824121D01*
X931964Y824139D01*
X931965Y824156D01*
X931942Y824338D01*
X931922Y824521D01*
X931917Y824538D01*
X931914Y824556D01*
X931856Y824728D01*
X931801Y824905D01*
X931792Y824921D01*
X931786Y824937D01*
X931695Y825096D01*
X931606Y825257D01*
X931594Y825271D01*
X931585Y825286D01*
X931371Y825539D01*
X930199Y826711D01*
X929159Y829221D01*
X929159Y831939D01*
X930199Y834449D01*
X932121Y836371D01*
X933732Y837038D01*
X934631Y837411D01*
X937349Y837411D01*
X939859Y836371D01*
X941781Y834449D01*
X942821Y831939D01*
X942821Y829221D01*
X941781Y826711D01*
X940609Y825539D01*
X940598Y825525D01*
X940584Y825514D01*
X940470Y825370D01*
X940354Y825228D01*
X940346Y825212D01*
X940335Y825198D01*
X940252Y825034D01*
X940166Y824872D01*
X940161Y824855D01*
X940153Y824839D01*
X940103Y824662D01*
X940051Y824486D01*
X940049Y824468D01*
X940045Y824451D01*
X940031Y824268D01*
X940015Y824085D01*
X940016Y824067D01*
X940015Y824050D01*
X940038Y823868D01*
X940058Y823685D01*
X940063Y823668D01*
X940066Y823650D01*
X940124Y823476D01*
X940179Y823301D01*
X940188Y823285D01*
X940194Y823269D01*
X940285Y823110D01*
X940374Y822949D01*
X940386Y822935D01*
X940395Y822920D01*
X940609Y822667D01*
X941781Y821495D01*
X942821Y818985D01*
X942821Y816267D01*
X941781Y813757D01*
X940863Y812839D01*
X940852Y812825D01*
X940838Y812814D01*
X940725Y812670D01*
X940608Y812528D01*
X940600Y812512D01*
X940589Y812498D01*
X940506Y812334D01*
X940420Y812172D01*
X940415Y812155D01*
X940407Y812139D01*
X940357Y811962D01*
X940305Y811786D01*
X940303Y811768D01*
X940299Y811751D01*
X940285Y811568D01*
X940269Y811385D01*
X940270Y811367D01*
X940269Y811350D01*
X940292Y811168D01*
X940312Y810985D01*
X940317Y810968D01*
X940320Y810950D01*
X940378Y810776D01*
X940433Y810601D01*
X940442Y810585D01*
X940448Y810569D01*
X940539Y810410D01*
X940628Y810249D01*
X940640Y810235D01*
X940649Y810220D01*
X940863Y809967D01*
X941781Y809049D01*
X942821Y806539D01*
X942821Y803821D01*
X941781Y801311D01*
X940736Y800266D01*
X940725Y800252D01*
X940711Y800241D01*
X940598Y800097D01*
X940481Y799955D01*
X940473Y799939D01*
X940462Y799925D01*
X940379Y799761D01*
X940293Y799599D01*
X940288Y799582D01*
X940280Y799566D01*
X940230Y799389D01*
X940178Y799213D01*
X940176Y799195D01*
X940172Y799178D01*
X940158Y798995D01*
X940142Y798812D01*
X940143Y798794D01*
X940142Y798777D01*
X940165Y798595D01*
X940185Y798412D01*
X940190Y798395D01*
X940193Y798377D01*
X940251Y798203D01*
X940306Y798028D01*
X940315Y798012D01*
X940321Y797996D01*
X940412Y797837D01*
X940501Y797676D01*
X940513Y797662D01*
X940522Y797647D01*
X940736Y797394D01*
X941781Y796349D01*
X942821Y793839D01*
X942821Y791121D01*
X941781Y788611D01*
X940736Y787566D01*
X940725Y787552D01*
X940711Y787541D01*
X940598Y787397D01*
X940481Y787255D01*
X940473Y787239D01*
X940462Y787225D01*
X940379Y787061D01*
X940293Y786899D01*
X940288Y786882D01*
X940280Y786866D01*
X940230Y786689D01*
X940178Y786513D01*
X940176Y786495D01*
X940172Y786478D01*
X940158Y786294D01*
X940142Y786112D01*
X940143Y786094D01*
X940142Y786077D01*
X940165Y785895D01*
X940185Y785712D01*
X940190Y785695D01*
X940193Y785677D01*
X940251Y785503D01*
X940306Y785328D01*
X940315Y785312D01*
X940321Y785296D01*
X940412Y785137D01*
X940501Y784976D01*
X940513Y784962D01*
X940522Y784947D01*
X940736Y784694D01*
X941781Y783649D01*
X942821Y781139D01*
X942821Y778421D01*
X941781Y775911D01*
X940101Y774231D01*
X940090Y774218D01*
X940077Y774206D01*
X939963Y774062D01*
X939846Y773920D01*
X939838Y773904D01*
X939827Y773890D01*
X939744Y773726D01*
X939658Y773564D01*
X939653Y773547D01*
X939645Y773531D01*
X939595Y773354D01*
X939543Y773178D01*
X939541Y773160D01*
X939537Y773143D01*
X939523Y772960D01*
X939507Y772777D01*
X939508Y772759D01*
X939507Y772742D01*
X939530Y772560D01*
X939550Y772377D01*
X939555Y772360D01*
X939558Y772342D01*
X939616Y772169D01*
X939671Y771993D01*
X939680Y771977D01*
X939686Y771961D01*
X939777Y771802D01*
X939866Y771641D01*
X939878Y771627D01*
X939887Y771612D01*
X940101Y771359D01*
X941781Y769679D01*
X942821Y767169D01*
X942821Y764451D01*
X941781Y761941D01*
X939859Y760019D01*
X938690Y759535D01*
X937349Y758979D01*
X934631Y758979D01*
G37*
%LPD*%
%LPC*%
G36*
X787311Y785649D02*
X787311Y785649D01*
X784801Y786689D01*
X782879Y788611D01*
X781839Y791121D01*
X781839Y793839D01*
X782879Y796349D01*
X783924Y797394D01*
X783935Y797407D01*
X783948Y797419D01*
X784063Y797564D01*
X784179Y797705D01*
X784187Y797721D01*
X784198Y797735D01*
X784281Y797899D01*
X784367Y798061D01*
X784372Y798078D01*
X784380Y798094D01*
X784430Y798270D01*
X784482Y798447D01*
X784484Y798465D01*
X784488Y798482D01*
X784502Y798665D01*
X784518Y798848D01*
X784517Y798866D01*
X784518Y798883D01*
X784495Y799065D01*
X784475Y799248D01*
X784470Y799265D01*
X784467Y799283D01*
X784409Y799456D01*
X784354Y799632D01*
X784345Y799648D01*
X784339Y799664D01*
X784248Y799823D01*
X784159Y799984D01*
X784147Y799998D01*
X784138Y800013D01*
X783924Y800266D01*
X782879Y801311D01*
X781839Y803821D01*
X781839Y806539D01*
X782879Y809049D01*
X783924Y810094D01*
X783935Y810107D01*
X783948Y810119D01*
X784063Y810264D01*
X784179Y810405D01*
X784187Y810421D01*
X784198Y810435D01*
X784281Y810599D01*
X784367Y810761D01*
X784372Y810778D01*
X784380Y810794D01*
X784430Y810970D01*
X784482Y811147D01*
X784484Y811165D01*
X784488Y811182D01*
X784502Y811365D01*
X784518Y811548D01*
X784517Y811566D01*
X784518Y811583D01*
X784495Y811765D01*
X784475Y811948D01*
X784470Y811965D01*
X784467Y811983D01*
X784409Y812155D01*
X784354Y812332D01*
X784345Y812348D01*
X784339Y812364D01*
X784248Y812523D01*
X784159Y812684D01*
X784147Y812698D01*
X784138Y812713D01*
X783924Y812966D01*
X782879Y814011D01*
X781839Y816521D01*
X781839Y819239D01*
X782879Y821749D01*
X783924Y822794D01*
X783935Y822807D01*
X783948Y822819D01*
X784063Y822964D01*
X784179Y823105D01*
X784187Y823121D01*
X784198Y823135D01*
X784281Y823299D01*
X784367Y823461D01*
X784372Y823478D01*
X784380Y823494D01*
X784430Y823670D01*
X784482Y823847D01*
X784484Y823865D01*
X784488Y823882D01*
X784502Y824065D01*
X784518Y824248D01*
X784517Y824266D01*
X784518Y824283D01*
X784495Y824465D01*
X784475Y824648D01*
X784470Y824665D01*
X784467Y824683D01*
X784409Y824856D01*
X784354Y825032D01*
X784345Y825048D01*
X784339Y825064D01*
X784248Y825223D01*
X784159Y825384D01*
X784147Y825398D01*
X784138Y825413D01*
X783924Y825666D01*
X782879Y826711D01*
X781839Y829221D01*
X781839Y831939D01*
X782879Y834449D01*
X783924Y835494D01*
X783935Y835508D01*
X783949Y835519D01*
X784062Y835663D01*
X784179Y835805D01*
X784187Y835821D01*
X784198Y835835D01*
X784281Y835999D01*
X784367Y836161D01*
X784372Y836178D01*
X784380Y836194D01*
X784430Y836371D01*
X784482Y836547D01*
X784484Y836565D01*
X784488Y836582D01*
X784502Y836765D01*
X784518Y836948D01*
X784517Y836966D01*
X784518Y836983D01*
X784495Y837165D01*
X784475Y837348D01*
X784470Y837365D01*
X784467Y837383D01*
X784409Y837557D01*
X784354Y837732D01*
X784345Y837748D01*
X784339Y837764D01*
X784248Y837923D01*
X784159Y838084D01*
X784147Y838098D01*
X784138Y838113D01*
X783924Y838366D01*
X782879Y839411D01*
X781839Y841921D01*
X781839Y844639D01*
X782879Y847149D01*
X784801Y849071D01*
X785175Y849226D01*
X787311Y850111D01*
X790029Y850111D01*
X792539Y849071D01*
X794461Y847149D01*
X795501Y844639D01*
X795501Y841921D01*
X794461Y839411D01*
X793416Y838366D01*
X793405Y838353D01*
X793392Y838341D01*
X793277Y838196D01*
X793161Y838055D01*
X793153Y838039D01*
X793142Y838025D01*
X793059Y837861D01*
X792973Y837699D01*
X792968Y837682D01*
X792960Y837666D01*
X792910Y837489D01*
X792858Y837313D01*
X792856Y837295D01*
X792852Y837278D01*
X792838Y837094D01*
X792822Y836912D01*
X792823Y836894D01*
X792822Y836877D01*
X792845Y836695D01*
X792865Y836512D01*
X792870Y836495D01*
X792873Y836477D01*
X792931Y836304D01*
X792986Y836128D01*
X792995Y836112D01*
X793001Y836096D01*
X793092Y835937D01*
X793181Y835776D01*
X793193Y835762D01*
X793202Y835747D01*
X793416Y835494D01*
X794461Y834449D01*
X795501Y831939D01*
X795501Y829221D01*
X794461Y826711D01*
X793416Y825666D01*
X793405Y825652D01*
X793391Y825641D01*
X793278Y825497D01*
X793161Y825355D01*
X793153Y825339D01*
X793142Y825325D01*
X793059Y825161D01*
X792973Y824999D01*
X792968Y824982D01*
X792960Y824966D01*
X792910Y824789D01*
X792858Y824613D01*
X792856Y824595D01*
X792852Y824578D01*
X792838Y824395D01*
X792822Y824212D01*
X792823Y824194D01*
X792822Y824177D01*
X792845Y823995D01*
X792865Y823812D01*
X792870Y823795D01*
X792873Y823777D01*
X792931Y823603D01*
X792986Y823428D01*
X792995Y823412D01*
X793001Y823396D01*
X793092Y823237D01*
X793181Y823076D01*
X793193Y823062D01*
X793202Y823047D01*
X793416Y822794D01*
X794461Y821749D01*
X795501Y819239D01*
X795501Y816521D01*
X794461Y814011D01*
X793416Y812966D01*
X793405Y812952D01*
X793391Y812941D01*
X793278Y812797D01*
X793161Y812655D01*
X793153Y812639D01*
X793142Y812625D01*
X793059Y812461D01*
X792973Y812299D01*
X792968Y812282D01*
X792960Y812266D01*
X792910Y812089D01*
X792858Y811913D01*
X792856Y811895D01*
X792852Y811878D01*
X792838Y811694D01*
X792822Y811512D01*
X792823Y811494D01*
X792822Y811477D01*
X792845Y811294D01*
X792865Y811112D01*
X792870Y811095D01*
X792873Y811077D01*
X792931Y810903D01*
X792986Y810728D01*
X792995Y810712D01*
X793001Y810696D01*
X793092Y810537D01*
X793181Y810376D01*
X793193Y810362D01*
X793202Y810347D01*
X793416Y810094D01*
X794461Y809049D01*
X795501Y806539D01*
X795501Y803821D01*
X794461Y801311D01*
X793416Y800266D01*
X793405Y800252D01*
X793391Y800241D01*
X793278Y800097D01*
X793161Y799955D01*
X793153Y799939D01*
X793142Y799925D01*
X793059Y799761D01*
X792973Y799599D01*
X792968Y799582D01*
X792960Y799566D01*
X792910Y799389D01*
X792858Y799213D01*
X792856Y799195D01*
X792852Y799178D01*
X792838Y798995D01*
X792822Y798812D01*
X792823Y798794D01*
X792822Y798777D01*
X792845Y798595D01*
X792865Y798412D01*
X792870Y798395D01*
X792873Y798377D01*
X792931Y798203D01*
X792986Y798028D01*
X792995Y798012D01*
X793001Y797996D01*
X793092Y797837D01*
X793181Y797676D01*
X793193Y797662D01*
X793202Y797647D01*
X793416Y797394D01*
X794461Y796349D01*
X795501Y793839D01*
X795501Y791121D01*
X794461Y788611D01*
X792539Y786689D01*
X790029Y785649D01*
X787311Y785649D01*
G37*
%LPD*%
%LPC*%
G36*
X1079411Y553239D02*
X1079411Y553239D01*
X1076901Y554279D01*
X1074979Y556201D01*
X1073939Y558711D01*
X1073939Y561429D01*
X1074979Y563939D01*
X1076901Y565861D01*
X1079366Y566882D01*
X1079411Y566901D01*
X1082129Y566901D01*
X1084639Y565861D01*
X1086561Y563939D01*
X1087148Y562521D01*
X1087153Y562513D01*
X1087155Y562504D01*
X1087249Y562333D01*
X1087339Y562166D01*
X1087344Y562159D01*
X1087349Y562151D01*
X1087474Y562002D01*
X1087595Y561856D01*
X1087602Y561850D01*
X1087608Y561843D01*
X1087758Y561723D01*
X1087908Y561602D01*
X1087916Y561598D01*
X1087923Y561592D01*
X1088095Y561503D01*
X1088264Y561415D01*
X1088273Y561412D01*
X1088281Y561408D01*
X1088468Y561355D01*
X1088651Y561302D01*
X1088659Y561301D01*
X1088668Y561298D01*
X1088861Y561284D01*
X1089052Y561267D01*
X1089061Y561268D01*
X1089069Y561267D01*
X1089261Y561291D01*
X1089452Y561312D01*
X1089460Y561315D01*
X1089469Y561316D01*
X1089652Y561376D01*
X1089835Y561435D01*
X1089843Y561440D01*
X1089851Y561443D01*
X1090018Y561538D01*
X1090187Y561632D01*
X1090193Y561638D01*
X1090201Y561642D01*
X1090346Y561768D01*
X1090492Y561894D01*
X1090498Y561901D01*
X1090505Y561906D01*
X1090622Y562059D01*
X1090741Y562211D01*
X1090745Y562219D01*
X1090750Y562226D01*
X1090902Y562521D01*
X1091489Y563939D01*
X1093411Y565861D01*
X1095876Y566882D01*
X1095921Y566901D01*
X1098639Y566901D01*
X1101149Y565861D01*
X1103071Y563939D01*
X1103658Y562521D01*
X1103663Y562513D01*
X1103665Y562504D01*
X1103759Y562333D01*
X1103849Y562166D01*
X1103854Y562159D01*
X1103859Y562151D01*
X1103984Y562002D01*
X1104105Y561856D01*
X1104112Y561850D01*
X1104118Y561843D01*
X1104268Y561723D01*
X1104418Y561602D01*
X1104426Y561598D01*
X1104433Y561592D01*
X1104605Y561503D01*
X1104774Y561415D01*
X1104783Y561412D01*
X1104791Y561408D01*
X1104978Y561355D01*
X1105161Y561302D01*
X1105169Y561301D01*
X1105178Y561298D01*
X1105371Y561284D01*
X1105562Y561267D01*
X1105571Y561268D01*
X1105579Y561267D01*
X1105771Y561291D01*
X1105962Y561312D01*
X1105970Y561315D01*
X1105979Y561316D01*
X1106162Y561376D01*
X1106345Y561435D01*
X1106353Y561440D01*
X1106361Y561443D01*
X1106528Y561538D01*
X1106697Y561632D01*
X1106703Y561638D01*
X1106711Y561642D01*
X1106856Y561768D01*
X1107002Y561894D01*
X1107008Y561901D01*
X1107015Y561906D01*
X1107132Y562059D01*
X1107251Y562211D01*
X1107255Y562219D01*
X1107260Y562226D01*
X1107412Y562521D01*
X1107999Y563939D01*
X1109921Y565861D01*
X1112386Y566882D01*
X1112431Y566901D01*
X1115149Y566901D01*
X1117659Y565861D01*
X1119581Y563939D01*
X1120168Y562521D01*
X1120173Y562513D01*
X1120175Y562504D01*
X1120269Y562333D01*
X1120359Y562166D01*
X1120364Y562159D01*
X1120369Y562151D01*
X1120494Y562002D01*
X1120615Y561856D01*
X1120622Y561850D01*
X1120628Y561843D01*
X1120778Y561723D01*
X1120928Y561602D01*
X1120936Y561598D01*
X1120943Y561592D01*
X1121115Y561503D01*
X1121284Y561415D01*
X1121293Y561412D01*
X1121301Y561408D01*
X1121488Y561355D01*
X1121671Y561302D01*
X1121679Y561301D01*
X1121688Y561298D01*
X1121881Y561284D01*
X1122072Y561267D01*
X1122081Y561268D01*
X1122089Y561267D01*
X1122281Y561291D01*
X1122472Y561312D01*
X1122480Y561315D01*
X1122489Y561316D01*
X1122672Y561376D01*
X1122855Y561435D01*
X1122863Y561440D01*
X1122871Y561443D01*
X1123038Y561538D01*
X1123207Y561632D01*
X1123213Y561638D01*
X1123221Y561642D01*
X1123366Y561768D01*
X1123512Y561894D01*
X1123518Y561901D01*
X1123525Y561906D01*
X1123642Y562059D01*
X1123761Y562211D01*
X1123765Y562219D01*
X1123770Y562226D01*
X1123922Y562521D01*
X1124509Y563939D01*
X1126431Y565861D01*
X1128896Y566882D01*
X1128941Y566901D01*
X1131659Y566901D01*
X1134169Y565861D01*
X1136091Y563939D01*
X1137131Y561429D01*
X1137131Y558711D01*
X1136091Y556201D01*
X1134169Y554279D01*
X1131659Y553239D01*
X1128941Y553239D01*
X1126431Y554279D01*
X1124509Y556201D01*
X1123922Y557619D01*
X1123917Y557627D01*
X1123915Y557636D01*
X1123823Y557803D01*
X1123731Y557974D01*
X1123726Y557981D01*
X1123721Y557989D01*
X1123598Y558135D01*
X1123475Y558284D01*
X1123468Y558290D01*
X1123462Y558297D01*
X1123313Y558416D01*
X1123162Y558538D01*
X1123154Y558542D01*
X1123148Y558548D01*
X1122977Y558635D01*
X1122806Y558725D01*
X1122797Y558728D01*
X1122789Y558732D01*
X1122606Y558784D01*
X1122420Y558838D01*
X1122410Y558839D01*
X1122402Y558842D01*
X1122211Y558856D01*
X1122018Y558873D01*
X1122009Y558872D01*
X1122001Y558873D01*
X1121811Y558850D01*
X1121618Y558828D01*
X1121610Y558825D01*
X1121601Y558824D01*
X1121418Y558764D01*
X1121235Y558705D01*
X1121227Y558700D01*
X1121219Y558697D01*
X1121051Y558602D01*
X1120884Y558508D01*
X1120877Y558502D01*
X1120869Y558498D01*
X1120724Y558372D01*
X1120578Y558246D01*
X1120572Y558239D01*
X1120565Y558234D01*
X1120448Y558081D01*
X1120329Y557929D01*
X1120325Y557921D01*
X1120320Y557914D01*
X1120168Y557619D01*
X1119581Y556201D01*
X1117659Y554279D01*
X1115149Y553239D01*
X1112431Y553239D01*
X1109921Y554279D01*
X1107999Y556201D01*
X1107412Y557619D01*
X1107407Y557627D01*
X1107405Y557636D01*
X1107313Y557803D01*
X1107221Y557974D01*
X1107216Y557981D01*
X1107211Y557989D01*
X1107088Y558135D01*
X1106965Y558284D01*
X1106958Y558290D01*
X1106952Y558297D01*
X1106803Y558416D01*
X1106652Y558538D01*
X1106644Y558542D01*
X1106638Y558548D01*
X1106467Y558635D01*
X1106296Y558725D01*
X1106287Y558728D01*
X1106279Y558732D01*
X1106096Y558784D01*
X1105910Y558838D01*
X1105900Y558839D01*
X1105892Y558842D01*
X1105701Y558856D01*
X1105508Y558873D01*
X1105499Y558872D01*
X1105491Y558873D01*
X1105301Y558850D01*
X1105108Y558828D01*
X1105100Y558825D01*
X1105091Y558824D01*
X1104908Y558764D01*
X1104725Y558705D01*
X1104717Y558700D01*
X1104709Y558697D01*
X1104541Y558602D01*
X1104374Y558508D01*
X1104367Y558502D01*
X1104359Y558498D01*
X1104214Y558372D01*
X1104068Y558246D01*
X1104062Y558239D01*
X1104055Y558234D01*
X1103938Y558081D01*
X1103819Y557929D01*
X1103815Y557921D01*
X1103810Y557914D01*
X1103658Y557619D01*
X1103071Y556201D01*
X1101149Y554279D01*
X1098639Y553239D01*
X1095921Y553239D01*
X1093411Y554279D01*
X1091489Y556201D01*
X1090902Y557619D01*
X1090897Y557627D01*
X1090895Y557636D01*
X1090803Y557803D01*
X1090711Y557974D01*
X1090706Y557981D01*
X1090701Y557989D01*
X1090578Y558135D01*
X1090455Y558284D01*
X1090448Y558290D01*
X1090442Y558297D01*
X1090293Y558416D01*
X1090142Y558538D01*
X1090134Y558542D01*
X1090128Y558548D01*
X1089957Y558635D01*
X1089786Y558725D01*
X1089777Y558728D01*
X1089769Y558732D01*
X1089586Y558784D01*
X1089400Y558838D01*
X1089390Y558839D01*
X1089382Y558842D01*
X1089191Y558856D01*
X1088998Y558873D01*
X1088989Y558872D01*
X1088981Y558873D01*
X1088791Y558850D01*
X1088598Y558828D01*
X1088590Y558825D01*
X1088581Y558824D01*
X1088398Y558764D01*
X1088215Y558705D01*
X1088207Y558700D01*
X1088199Y558697D01*
X1088031Y558602D01*
X1087864Y558508D01*
X1087857Y558502D01*
X1087849Y558498D01*
X1087704Y558372D01*
X1087558Y558246D01*
X1087552Y558239D01*
X1087545Y558234D01*
X1087428Y558081D01*
X1087309Y557929D01*
X1087305Y557921D01*
X1087300Y557914D01*
X1087148Y557619D01*
X1086561Y556201D01*
X1084639Y554279D01*
X1082129Y553239D01*
X1079411Y553239D01*
G37*
%LPD*%
%LPC*%
G36*
X935901Y515139D02*
X935901Y515139D01*
X933391Y516179D01*
X931469Y518101D01*
X930429Y520611D01*
X930429Y523329D01*
X931469Y525839D01*
X932514Y526884D01*
X932525Y526898D01*
X932539Y526909D01*
X932652Y527053D01*
X932769Y527195D01*
X932777Y527211D01*
X932788Y527225D01*
X932871Y527389D01*
X932957Y527551D01*
X932962Y527568D01*
X932970Y527584D01*
X933020Y527761D01*
X933072Y527937D01*
X933074Y527955D01*
X933078Y527972D01*
X933092Y528155D01*
X933108Y528338D01*
X933107Y528356D01*
X933108Y528373D01*
X933085Y528555D01*
X933065Y528738D01*
X933060Y528755D01*
X933057Y528773D01*
X932999Y528946D01*
X932944Y529122D01*
X932935Y529138D01*
X932929Y529154D01*
X932838Y529313D01*
X932749Y529474D01*
X932737Y529488D01*
X932728Y529503D01*
X932514Y529756D01*
X931469Y530801D01*
X930429Y533311D01*
X930429Y536029D01*
X931469Y538539D01*
X931879Y538949D01*
X931890Y538962D01*
X931903Y538974D01*
X932017Y539118D01*
X932134Y539260D01*
X932142Y539276D01*
X932153Y539290D01*
X932236Y539453D01*
X932322Y539616D01*
X932327Y539633D01*
X932335Y539649D01*
X932385Y539825D01*
X932437Y540002D01*
X932439Y540020D01*
X932443Y540037D01*
X932457Y540220D01*
X932473Y540403D01*
X932472Y540420D01*
X932473Y540438D01*
X932450Y540620D01*
X932430Y540803D01*
X932425Y540820D01*
X932422Y540838D01*
X932364Y541012D01*
X932309Y541187D01*
X932300Y541202D01*
X932294Y541219D01*
X932202Y541379D01*
X932114Y541539D01*
X932102Y541553D01*
X932093Y541568D01*
X931879Y541821D01*
X931469Y542231D01*
X930429Y544741D01*
X930429Y547459D01*
X931469Y549969D01*
X933149Y551649D01*
X933160Y551663D01*
X933174Y551674D01*
X933288Y551818D01*
X933404Y551960D01*
X933412Y551976D01*
X933423Y551990D01*
X933506Y552154D01*
X933592Y552316D01*
X933597Y552333D01*
X933605Y552349D01*
X933655Y552526D01*
X933707Y552702D01*
X933709Y552720D01*
X933713Y552737D01*
X933727Y552920D01*
X933743Y553103D01*
X933742Y553121D01*
X933743Y553138D01*
X933720Y553320D01*
X933700Y553503D01*
X933695Y553520D01*
X933692Y553538D01*
X933634Y553712D01*
X933579Y553887D01*
X933570Y553903D01*
X933564Y553919D01*
X933473Y554078D01*
X933384Y554239D01*
X933372Y554253D01*
X933363Y554268D01*
X933149Y554521D01*
X931469Y556201D01*
X930429Y558711D01*
X930429Y561429D01*
X931469Y563939D01*
X933391Y565861D01*
X935856Y566882D01*
X935901Y566901D01*
X938619Y566901D01*
X941129Y565861D01*
X943051Y563939D01*
X944091Y561429D01*
X944091Y558711D01*
X943051Y556201D01*
X941371Y554521D01*
X941360Y554508D01*
X941347Y554496D01*
X941233Y554352D01*
X941116Y554210D01*
X941108Y554194D01*
X941097Y554180D01*
X941014Y554016D01*
X940928Y553854D01*
X940923Y553837D01*
X940915Y553821D01*
X940865Y553644D01*
X940813Y553468D01*
X940811Y553450D01*
X940807Y553433D01*
X940793Y553250D01*
X940777Y553067D01*
X940778Y553049D01*
X940777Y553032D01*
X940800Y552850D01*
X940820Y552667D01*
X940825Y552650D01*
X940828Y552632D01*
X940886Y552459D01*
X940941Y552283D01*
X940950Y552267D01*
X940956Y552251D01*
X941048Y552091D01*
X941136Y551931D01*
X941148Y551917D01*
X941157Y551902D01*
X941371Y551649D01*
X943051Y549969D01*
X944091Y547459D01*
X944091Y544741D01*
X943051Y542231D01*
X942641Y541821D01*
X942630Y541807D01*
X942616Y541796D01*
X942502Y541652D01*
X942386Y541510D01*
X942378Y541494D01*
X942367Y541480D01*
X942283Y541316D01*
X942198Y541154D01*
X942193Y541137D01*
X942185Y541121D01*
X942135Y540944D01*
X942083Y540768D01*
X942081Y540750D01*
X942077Y540733D01*
X942063Y540550D01*
X942047Y540367D01*
X942048Y540349D01*
X942047Y540332D01*
X942070Y540150D01*
X942090Y539967D01*
X942095Y539950D01*
X942098Y539932D01*
X942156Y539759D01*
X942211Y539583D01*
X942220Y539567D01*
X942226Y539551D01*
X942318Y539391D01*
X942406Y539231D01*
X942418Y539217D01*
X942427Y539202D01*
X942641Y538949D01*
X943051Y538539D01*
X944091Y536029D01*
X944091Y533311D01*
X943051Y530801D01*
X942006Y529756D01*
X941995Y529743D01*
X941982Y529731D01*
X941867Y529586D01*
X941751Y529445D01*
X941743Y529429D01*
X941732Y529415D01*
X941649Y529251D01*
X941563Y529089D01*
X941558Y529072D01*
X941550Y529056D01*
X941500Y528879D01*
X941448Y528703D01*
X941446Y528685D01*
X941442Y528668D01*
X941428Y528485D01*
X941412Y528302D01*
X941413Y528284D01*
X941412Y528267D01*
X941435Y528085D01*
X941455Y527902D01*
X941460Y527885D01*
X941463Y527867D01*
X941521Y527694D01*
X941576Y527518D01*
X941585Y527502D01*
X941591Y527486D01*
X941682Y527327D01*
X941771Y527166D01*
X941783Y527152D01*
X941792Y527137D01*
X942006Y526884D01*
X943051Y525839D01*
X944091Y523329D01*
X944091Y520611D01*
X943051Y518101D01*
X941129Y516179D01*
X940177Y515785D01*
X938619Y515139D01*
X935901Y515139D01*
G37*
%LPD*%
%LPC*%
G36*
X1574839Y557656D02*
X1574839Y557656D01*
X1570218Y559570D01*
X1566680Y563108D01*
X1564766Y567729D01*
X1564766Y572731D01*
X1566680Y577352D01*
X1570218Y580890D01*
X1574839Y582804D01*
X1579841Y582804D01*
X1584462Y580890D01*
X1588000Y577352D01*
X1589914Y572731D01*
X1589914Y567729D01*
X1588000Y563108D01*
X1584462Y559570D01*
X1579841Y557656D01*
X1574839Y557656D01*
G37*
%LPD*%
%LPC*%
G36*
X1417359Y77596D02*
X1417359Y77596D01*
X1412738Y79510D01*
X1409200Y83048D01*
X1407286Y87669D01*
X1407286Y92671D01*
X1409200Y97292D01*
X1412738Y100830D01*
X1417359Y102744D01*
X1422361Y102744D01*
X1426982Y100830D01*
X1430520Y97292D01*
X1432434Y92671D01*
X1432434Y87669D01*
X1430520Y83048D01*
X1426982Y79510D01*
X1422361Y77596D01*
X1417359Y77596D01*
G37*
%LPD*%
%LPC*%
G36*
X1163359Y77596D02*
X1163359Y77596D01*
X1158738Y79510D01*
X1155200Y83048D01*
X1153286Y87669D01*
X1153286Y92671D01*
X1155200Y97292D01*
X1158738Y100830D01*
X1163359Y102744D01*
X1168361Y102744D01*
X1172982Y100830D01*
X1176520Y97292D01*
X1178434Y92671D01*
X1178434Y87669D01*
X1176520Y83048D01*
X1172982Y79510D01*
X1168361Y77596D01*
X1163359Y77596D01*
G37*
%LPD*%
%LPC*%
G36*
X1158279Y1040256D02*
X1158279Y1040256D01*
X1153658Y1042170D01*
X1150120Y1045708D01*
X1148206Y1050329D01*
X1148206Y1055331D01*
X1150120Y1059952D01*
X1153658Y1063490D01*
X1156189Y1064538D01*
X1156190Y1064538D01*
X1158279Y1065404D01*
X1163281Y1065404D01*
X1167902Y1063490D01*
X1171440Y1059952D01*
X1173354Y1055331D01*
X1173354Y1050329D01*
X1171440Y1045708D01*
X1167902Y1042170D01*
X1163281Y1040256D01*
X1158279Y1040256D01*
G37*
%LPD*%
%LPC*%
G36*
X1412279Y1040256D02*
X1412279Y1040256D01*
X1407658Y1042170D01*
X1404120Y1045708D01*
X1402206Y1050329D01*
X1402206Y1055331D01*
X1404120Y1059952D01*
X1407658Y1063490D01*
X1410189Y1064538D01*
X1410190Y1064538D01*
X1412279Y1065404D01*
X1417281Y1065404D01*
X1421902Y1063490D01*
X1425440Y1059952D01*
X1427354Y1055331D01*
X1427354Y1050329D01*
X1425440Y1045708D01*
X1421902Y1042170D01*
X1417281Y1040256D01*
X1412279Y1040256D01*
G37*
%LPD*%
%LPC*%
G36*
X934631Y578639D02*
X934631Y578639D01*
X932121Y579679D01*
X930199Y581601D01*
X929159Y584111D01*
X929159Y586829D01*
X930199Y589339D01*
X931244Y590384D01*
X931255Y590397D01*
X931268Y590409D01*
X931383Y590554D01*
X931499Y590695D01*
X931507Y590711D01*
X931518Y590725D01*
X931601Y590889D01*
X931687Y591051D01*
X931692Y591068D01*
X931700Y591084D01*
X931750Y591260D01*
X931802Y591437D01*
X931804Y591455D01*
X931808Y591472D01*
X931822Y591655D01*
X931838Y591838D01*
X931837Y591856D01*
X931838Y591873D01*
X931815Y592055D01*
X931795Y592238D01*
X931790Y592255D01*
X931787Y592273D01*
X931729Y592446D01*
X931674Y592622D01*
X931665Y592638D01*
X931659Y592654D01*
X931568Y592813D01*
X931479Y592974D01*
X931467Y592988D01*
X931458Y593003D01*
X931244Y593256D01*
X930199Y594301D01*
X929159Y596811D01*
X929159Y599529D01*
X930199Y602039D01*
X931244Y603084D01*
X931255Y603098D01*
X931269Y603109D01*
X931382Y603253D01*
X931499Y603395D01*
X931507Y603411D01*
X931518Y603425D01*
X931601Y603589D01*
X931687Y603751D01*
X931692Y603768D01*
X931700Y603784D01*
X931750Y603961D01*
X931802Y604137D01*
X931804Y604155D01*
X931808Y604172D01*
X931822Y604355D01*
X931838Y604538D01*
X931837Y604556D01*
X931838Y604573D01*
X931815Y604755D01*
X931795Y604938D01*
X931790Y604955D01*
X931787Y604973D01*
X931729Y605147D01*
X931674Y605322D01*
X931665Y605338D01*
X931659Y605354D01*
X931568Y605513D01*
X931479Y605674D01*
X931467Y605688D01*
X931458Y605703D01*
X931244Y605956D01*
X930199Y607001D01*
X929159Y609511D01*
X929159Y612229D01*
X930199Y614739D01*
X932121Y616661D01*
X934631Y617701D01*
X937349Y617701D01*
X939859Y616661D01*
X941781Y614739D01*
X942821Y612229D01*
X942821Y609511D01*
X941781Y607001D01*
X940736Y605956D01*
X940725Y605943D01*
X940712Y605931D01*
X940597Y605786D01*
X940481Y605645D01*
X940473Y605629D01*
X940462Y605615D01*
X940379Y605451D01*
X940293Y605289D01*
X940288Y605272D01*
X940280Y605256D01*
X940230Y605079D01*
X940178Y604903D01*
X940176Y604885D01*
X940172Y604868D01*
X940158Y604685D01*
X940142Y604502D01*
X940143Y604484D01*
X940142Y604467D01*
X940165Y604285D01*
X940185Y604102D01*
X940190Y604085D01*
X940193Y604067D01*
X940251Y603894D01*
X940306Y603718D01*
X940315Y603702D01*
X940321Y603686D01*
X940412Y603526D01*
X940501Y603366D01*
X940513Y603352D01*
X940522Y603337D01*
X940736Y603084D01*
X941781Y602039D01*
X942821Y599529D01*
X942821Y596811D01*
X941781Y594301D01*
X940736Y593256D01*
X940725Y593242D01*
X940711Y593231D01*
X940598Y593087D01*
X940481Y592945D01*
X940473Y592929D01*
X940462Y592915D01*
X940379Y592751D01*
X940293Y592589D01*
X940288Y592572D01*
X940280Y592556D01*
X940230Y592379D01*
X940178Y592203D01*
X940176Y592185D01*
X940172Y592168D01*
X940158Y591985D01*
X940142Y591802D01*
X940143Y591784D01*
X940142Y591767D01*
X940165Y591585D01*
X940185Y591402D01*
X940190Y591385D01*
X940193Y591367D01*
X940251Y591193D01*
X940306Y591018D01*
X940315Y591002D01*
X940321Y590986D01*
X940412Y590827D01*
X940501Y590666D01*
X940513Y590652D01*
X940522Y590637D01*
X940736Y590384D01*
X941781Y589339D01*
X942821Y586829D01*
X942821Y584111D01*
X941781Y581601D01*
X939859Y579679D01*
X937349Y578639D01*
X934631Y578639D01*
G37*
%LPD*%
%LPC*%
G36*
X582094Y776811D02*
X582094Y776811D01*
X578202Y778423D01*
X575223Y781402D01*
X573611Y785294D01*
X573611Y789506D01*
X575223Y793398D01*
X578202Y796377D01*
X582094Y797989D01*
X586306Y797989D01*
X590198Y796377D01*
X593177Y793398D01*
X594789Y789506D01*
X594789Y785294D01*
X593177Y781402D01*
X590198Y778423D01*
X586306Y776811D01*
X582094Y776811D01*
G37*
%LPD*%
%LPC*%
G36*
X607494Y878411D02*
X607494Y878411D01*
X603602Y880023D01*
X600623Y883002D01*
X599011Y886894D01*
X599011Y891106D01*
X600623Y894998D01*
X603602Y897977D01*
X607494Y899589D01*
X611706Y899589D01*
X615598Y897977D01*
X618577Y894998D01*
X620189Y891106D01*
X620189Y886894D01*
X618577Y883002D01*
X615598Y880023D01*
X611706Y878411D01*
X607494Y878411D01*
G37*
%LPD*%
%LPC*%
G36*
X607494Y700611D02*
X607494Y700611D01*
X603602Y702223D01*
X600623Y705202D01*
X599011Y709094D01*
X599011Y713306D01*
X600623Y717198D01*
X603602Y720177D01*
X607494Y721789D01*
X611706Y721789D01*
X615598Y720177D01*
X618577Y717198D01*
X620189Y713306D01*
X620189Y709094D01*
X618577Y705202D01*
X615598Y702223D01*
X611706Y700611D01*
X607494Y700611D01*
G37*
%LPD*%
%LPC*%
G36*
X150294Y726011D02*
X150294Y726011D01*
X146402Y727623D01*
X143423Y730602D01*
X141811Y734494D01*
X141811Y738706D01*
X143423Y742598D01*
X146402Y745577D01*
X150294Y747189D01*
X154506Y747189D01*
X158398Y745577D01*
X161377Y742598D01*
X162989Y738706D01*
X162989Y734494D01*
X161377Y730602D01*
X158398Y727623D01*
X154506Y726011D01*
X150294Y726011D01*
G37*
%LPD*%
%LPC*%
G36*
X175694Y726011D02*
X175694Y726011D01*
X171802Y727623D01*
X168823Y730602D01*
X167211Y734494D01*
X167211Y738706D01*
X168823Y742598D01*
X171802Y745577D01*
X175694Y747189D01*
X179906Y747189D01*
X183798Y745577D01*
X186777Y742598D01*
X188389Y738706D01*
X188389Y734494D01*
X186777Y730602D01*
X183798Y727623D01*
X179906Y726011D01*
X175694Y726011D01*
G37*
%LPD*%
%LPC*%
G36*
X607494Y726011D02*
X607494Y726011D01*
X603602Y727623D01*
X600623Y730602D01*
X599011Y734494D01*
X599011Y738706D01*
X600623Y742598D01*
X603602Y745577D01*
X607494Y747189D01*
X611706Y747189D01*
X615598Y745577D01*
X618577Y742598D01*
X620189Y738706D01*
X620189Y734494D01*
X618577Y730602D01*
X615598Y727623D01*
X611706Y726011D01*
X607494Y726011D01*
G37*
%LPD*%
%LPC*%
G36*
X1578536Y733631D02*
X1578536Y733631D01*
X1574644Y735243D01*
X1571665Y738222D01*
X1570053Y742114D01*
X1570053Y746326D01*
X1571665Y750218D01*
X1574644Y753197D01*
X1578536Y754809D01*
X1582748Y754809D01*
X1586640Y753197D01*
X1589619Y750218D01*
X1591231Y746326D01*
X1591231Y742114D01*
X1589619Y738222D01*
X1586640Y735243D01*
X1582748Y733631D01*
X1578536Y733631D01*
G37*
%LPD*%
%LPC*%
G36*
X582094Y700611D02*
X582094Y700611D01*
X578202Y702223D01*
X575223Y705202D01*
X573611Y709094D01*
X573611Y713306D01*
X575223Y717198D01*
X578202Y720177D01*
X582094Y721789D01*
X586306Y721789D01*
X590198Y720177D01*
X593177Y717198D01*
X594789Y713306D01*
X594789Y709094D01*
X593177Y705202D01*
X590198Y702223D01*
X586306Y700611D01*
X582094Y700611D01*
G37*
%LPD*%
%LPC*%
G36*
X175694Y700611D02*
X175694Y700611D01*
X171802Y702223D01*
X168823Y705202D01*
X167211Y709094D01*
X167211Y713306D01*
X168823Y717198D01*
X171802Y720177D01*
X175694Y721789D01*
X179906Y721789D01*
X183798Y720177D01*
X186777Y717198D01*
X188389Y713306D01*
X188389Y709094D01*
X186777Y705202D01*
X183798Y702223D01*
X179906Y700611D01*
X175694Y700611D01*
G37*
%LPD*%
%LPC*%
G36*
X150294Y751411D02*
X150294Y751411D01*
X146402Y753023D01*
X143423Y756002D01*
X141811Y759894D01*
X141811Y764106D01*
X143423Y767998D01*
X146402Y770977D01*
X150294Y772589D01*
X154506Y772589D01*
X158398Y770977D01*
X161377Y767998D01*
X162989Y764106D01*
X162989Y759894D01*
X161377Y756002D01*
X158398Y753023D01*
X154506Y751411D01*
X150294Y751411D01*
G37*
%LPD*%
%LPC*%
G36*
X175694Y751411D02*
X175694Y751411D01*
X171802Y753023D01*
X168823Y756002D01*
X167211Y759894D01*
X167211Y764106D01*
X168823Y767998D01*
X171802Y770977D01*
X175694Y772589D01*
X179906Y772589D01*
X183798Y770977D01*
X186777Y767998D01*
X188389Y764106D01*
X188389Y759894D01*
X186777Y756002D01*
X183798Y753023D01*
X179906Y751411D01*
X175694Y751411D01*
G37*
%LPD*%
%LPC*%
G36*
X855144Y1052909D02*
X855144Y1052909D01*
X851252Y1054521D01*
X848273Y1057500D01*
X846661Y1061392D01*
X846661Y1065604D01*
X848273Y1069496D01*
X851252Y1072475D01*
X855144Y1074087D01*
X859356Y1074087D01*
X863248Y1072475D01*
X866227Y1069496D01*
X867839Y1065604D01*
X867839Y1061392D01*
X866227Y1057500D01*
X863248Y1054521D01*
X859356Y1052909D01*
X855144Y1052909D01*
G37*
%LPD*%
%LPC*%
G36*
X582094Y751411D02*
X582094Y751411D01*
X578202Y753023D01*
X575223Y756002D01*
X573611Y759894D01*
X573611Y764106D01*
X575223Y767998D01*
X578202Y770977D01*
X582094Y772589D01*
X586306Y772589D01*
X590198Y770977D01*
X593177Y767998D01*
X594789Y764106D01*
X594789Y759894D01*
X593177Y756002D01*
X590198Y753023D01*
X586306Y751411D01*
X582094Y751411D01*
G37*
%LPD*%
%LPC*%
G36*
X607494Y751411D02*
X607494Y751411D01*
X603602Y753023D01*
X600623Y756002D01*
X599011Y759894D01*
X599011Y764106D01*
X600623Y767998D01*
X603602Y770977D01*
X607494Y772589D01*
X611706Y772589D01*
X615598Y770977D01*
X618577Y767998D01*
X620189Y764106D01*
X620189Y759894D01*
X618577Y756002D01*
X615598Y753023D01*
X611706Y751411D01*
X607494Y751411D01*
G37*
%LPD*%
%LPC*%
G36*
X150294Y776811D02*
X150294Y776811D01*
X146402Y778423D01*
X143423Y781402D01*
X141811Y785294D01*
X141811Y789506D01*
X143423Y793398D01*
X146402Y796377D01*
X150294Y797989D01*
X154506Y797989D01*
X158398Y796377D01*
X161377Y793398D01*
X162989Y789506D01*
X162989Y785294D01*
X161377Y781402D01*
X158398Y778423D01*
X154506Y776811D01*
X150294Y776811D01*
G37*
%LPD*%
%LPC*%
G36*
X175694Y776811D02*
X175694Y776811D01*
X171802Y778423D01*
X168823Y781402D01*
X167211Y785294D01*
X167211Y789506D01*
X168823Y793398D01*
X171802Y796377D01*
X175694Y797989D01*
X179906Y797989D01*
X183798Y796377D01*
X186777Y793398D01*
X188389Y789506D01*
X188389Y785294D01*
X186777Y781402D01*
X183798Y778423D01*
X179906Y776811D01*
X175694Y776811D01*
G37*
%LPD*%
%LPC*%
G36*
X607494Y776811D02*
X607494Y776811D01*
X603602Y778423D01*
X600623Y781402D01*
X599011Y785294D01*
X599011Y789506D01*
X600623Y793398D01*
X603602Y796377D01*
X607494Y797989D01*
X611706Y797989D01*
X615598Y796377D01*
X618577Y793398D01*
X620189Y789506D01*
X620189Y785294D01*
X618577Y781402D01*
X615598Y778423D01*
X611706Y776811D01*
X607494Y776811D01*
G37*
%LPD*%
%LPC*%
G36*
X150294Y802211D02*
X150294Y802211D01*
X146402Y803823D01*
X143423Y806802D01*
X141811Y810694D01*
X141811Y814906D01*
X143423Y818798D01*
X146402Y821777D01*
X150294Y823389D01*
X154506Y823389D01*
X158398Y821777D01*
X161377Y818798D01*
X162989Y814906D01*
X162989Y810694D01*
X161377Y806802D01*
X158398Y803823D01*
X154506Y802211D01*
X150294Y802211D01*
G37*
%LPD*%
%LPC*%
G36*
X175694Y802211D02*
X175694Y802211D01*
X171802Y803823D01*
X168823Y806802D01*
X167211Y810694D01*
X167211Y814906D01*
X168823Y818798D01*
X171802Y821777D01*
X175694Y823389D01*
X179906Y823389D01*
X183798Y821777D01*
X186777Y818798D01*
X188389Y814906D01*
X188389Y810694D01*
X186777Y806802D01*
X183798Y803823D01*
X179906Y802211D01*
X175694Y802211D01*
G37*
%LPD*%
%LPC*%
G36*
X855144Y1078309D02*
X855144Y1078309D01*
X851252Y1079921D01*
X848273Y1082900D01*
X846661Y1086792D01*
X846661Y1091004D01*
X848273Y1094896D01*
X851252Y1097875D01*
X855144Y1099487D01*
X859356Y1099487D01*
X863248Y1097875D01*
X866227Y1094896D01*
X867839Y1091004D01*
X867839Y1086792D01*
X866227Y1082900D01*
X863248Y1079921D01*
X859356Y1078309D01*
X855144Y1078309D01*
G37*
%LPD*%
%LPC*%
G36*
X582094Y802211D02*
X582094Y802211D01*
X578202Y803823D01*
X575223Y806802D01*
X573611Y810694D01*
X573611Y814906D01*
X575223Y818798D01*
X578202Y821777D01*
X582094Y823389D01*
X586306Y823389D01*
X590198Y821777D01*
X593177Y818798D01*
X594789Y814906D01*
X594789Y810694D01*
X593177Y806802D01*
X590198Y803823D01*
X586306Y802211D01*
X582094Y802211D01*
G37*
%LPD*%
%LPC*%
G36*
X607494Y802211D02*
X607494Y802211D01*
X603602Y803823D01*
X600623Y806802D01*
X599011Y810694D01*
X599011Y814906D01*
X600623Y818798D01*
X603602Y821777D01*
X607494Y823389D01*
X611706Y823389D01*
X615598Y821777D01*
X618577Y818798D01*
X620189Y814906D01*
X620189Y810694D01*
X618577Y806802D01*
X615598Y803823D01*
X611706Y802211D01*
X607494Y802211D01*
G37*
%LPD*%
%LPC*%
G36*
X582094Y827611D02*
X582094Y827611D01*
X578202Y829223D01*
X575223Y832202D01*
X573611Y836094D01*
X573611Y840306D01*
X575223Y844198D01*
X578202Y847177D01*
X582094Y848789D01*
X586306Y848789D01*
X590198Y847177D01*
X593177Y844198D01*
X594789Y840306D01*
X594789Y836094D01*
X593177Y832202D01*
X590198Y829223D01*
X586306Y827611D01*
X582094Y827611D01*
G37*
%LPD*%
%LPC*%
G36*
X175694Y827611D02*
X175694Y827611D01*
X171802Y829223D01*
X168823Y832202D01*
X167211Y836094D01*
X167211Y840306D01*
X168823Y844198D01*
X171802Y847177D01*
X175694Y848789D01*
X179906Y848789D01*
X183798Y847177D01*
X186777Y844198D01*
X188389Y840306D01*
X188389Y836094D01*
X186777Y832202D01*
X183798Y829223D01*
X179906Y827611D01*
X175694Y827611D01*
G37*
%LPD*%
%LPC*%
G36*
X607494Y827611D02*
X607494Y827611D01*
X603602Y829223D01*
X600623Y832202D01*
X599011Y836094D01*
X599011Y840306D01*
X600623Y844198D01*
X603602Y847177D01*
X607494Y848789D01*
X611706Y848789D01*
X615598Y847177D01*
X618577Y844198D01*
X620189Y840306D01*
X620189Y836094D01*
X618577Y832202D01*
X615598Y829223D01*
X611706Y827611D01*
X607494Y827611D01*
G37*
%LPD*%
%LPC*%
G36*
X150294Y827611D02*
X150294Y827611D01*
X146402Y829223D01*
X143423Y832202D01*
X141811Y836094D01*
X141811Y840306D01*
X143423Y844198D01*
X146402Y847177D01*
X150294Y848789D01*
X154506Y848789D01*
X158398Y847177D01*
X161377Y844198D01*
X162989Y840306D01*
X162989Y836094D01*
X161377Y832202D01*
X158398Y829223D01*
X154506Y827611D01*
X150294Y827611D01*
G37*
%LPD*%
%LPC*%
G36*
X150294Y853011D02*
X150294Y853011D01*
X146402Y854623D01*
X143423Y857602D01*
X141811Y861494D01*
X141811Y865706D01*
X143423Y869598D01*
X146402Y872577D01*
X150294Y874189D01*
X154506Y874189D01*
X158398Y872577D01*
X161377Y869598D01*
X162989Y865706D01*
X162989Y861494D01*
X161377Y857602D01*
X158398Y854623D01*
X154506Y853011D01*
X150294Y853011D01*
G37*
%LPD*%
%LPC*%
G36*
X702744Y416131D02*
X702744Y416131D01*
X698852Y417743D01*
X695873Y420722D01*
X694261Y424614D01*
X694261Y428826D01*
X695873Y432718D01*
X698852Y435697D01*
X702744Y437309D01*
X706956Y437309D01*
X710848Y435697D01*
X713827Y432718D01*
X715439Y428826D01*
X715439Y424614D01*
X713827Y420722D01*
X710848Y417743D01*
X706956Y416131D01*
X702744Y416131D01*
G37*
%LPD*%
%LPC*%
G36*
X175694Y853011D02*
X175694Y853011D01*
X171802Y854623D01*
X168823Y857602D01*
X167211Y861494D01*
X167211Y865706D01*
X168823Y869598D01*
X171802Y872577D01*
X175694Y874189D01*
X179906Y874189D01*
X183798Y872577D01*
X186777Y869598D01*
X188389Y865706D01*
X188389Y861494D01*
X186777Y857602D01*
X183798Y854623D01*
X179906Y853011D01*
X175694Y853011D01*
G37*
%LPD*%
%LPC*%
G36*
X582094Y853011D02*
X582094Y853011D01*
X578202Y854623D01*
X575223Y857602D01*
X573611Y861494D01*
X573611Y865706D01*
X575223Y869598D01*
X578202Y872577D01*
X582094Y874189D01*
X586306Y874189D01*
X590198Y872577D01*
X593177Y869598D01*
X594789Y865706D01*
X594789Y861494D01*
X593177Y857602D01*
X590198Y854623D01*
X586306Y853011D01*
X582094Y853011D01*
G37*
%LPD*%
%LPC*%
G36*
X607494Y853011D02*
X607494Y853011D01*
X603602Y854623D01*
X600623Y857602D01*
X599011Y861494D01*
X599011Y865706D01*
X600623Y869598D01*
X603602Y872577D01*
X607494Y874189D01*
X611706Y874189D01*
X615598Y872577D01*
X618577Y869598D01*
X620189Y865706D01*
X620189Y861494D01*
X618577Y857602D01*
X615598Y854623D01*
X611706Y853011D01*
X607494Y853011D01*
G37*
%LPD*%
%LPC*%
G36*
X150294Y878411D02*
X150294Y878411D01*
X146402Y880023D01*
X143423Y883002D01*
X141811Y886894D01*
X141811Y891106D01*
X143423Y894998D01*
X146402Y897977D01*
X150294Y899589D01*
X154506Y899589D01*
X158398Y897977D01*
X161377Y894998D01*
X162989Y891106D01*
X162989Y886894D01*
X161377Y883002D01*
X158398Y880023D01*
X154506Y878411D01*
X150294Y878411D01*
G37*
%LPD*%
%LPC*%
G36*
X175694Y878411D02*
X175694Y878411D01*
X171802Y880023D01*
X168823Y883002D01*
X167211Y886894D01*
X167211Y891106D01*
X168823Y894998D01*
X171802Y897977D01*
X175694Y899589D01*
X179906Y899589D01*
X183798Y897977D01*
X186777Y894998D01*
X188389Y891106D01*
X188389Y886894D01*
X186777Y883002D01*
X183798Y880023D01*
X179906Y878411D01*
X175694Y878411D01*
G37*
%LPD*%
%LPC*%
G36*
X582094Y878411D02*
X582094Y878411D01*
X578202Y880023D01*
X575223Y883002D01*
X573611Y886894D01*
X573611Y891106D01*
X575223Y894998D01*
X578202Y897977D01*
X582094Y899589D01*
X586306Y899589D01*
X590198Y897977D01*
X593177Y894998D01*
X594789Y891106D01*
X594789Y886894D01*
X593177Y883002D01*
X590198Y880023D01*
X586306Y878411D01*
X582094Y878411D01*
G37*
%LPD*%
%LPC*%
G36*
X1578536Y708231D02*
X1578536Y708231D01*
X1574644Y709843D01*
X1571665Y712822D01*
X1570053Y716714D01*
X1570053Y720926D01*
X1571665Y724818D01*
X1574644Y727797D01*
X1578536Y729409D01*
X1582748Y729409D01*
X1586640Y727797D01*
X1589619Y724818D01*
X1591231Y720926D01*
X1591231Y716714D01*
X1589619Y712822D01*
X1586640Y709843D01*
X1582748Y708231D01*
X1578536Y708231D01*
G37*
%LPD*%
%LPC*%
G36*
X150294Y903811D02*
X150294Y903811D01*
X146402Y905423D01*
X143423Y908402D01*
X141811Y912294D01*
X141811Y916506D01*
X143423Y920398D01*
X146402Y923377D01*
X150294Y924989D01*
X154506Y924989D01*
X158398Y923377D01*
X161377Y920398D01*
X162989Y916506D01*
X162989Y912294D01*
X161377Y908402D01*
X158398Y905423D01*
X154506Y903811D01*
X150294Y903811D01*
G37*
%LPD*%
%LPC*%
G36*
X175694Y903811D02*
X175694Y903811D01*
X171802Y905423D01*
X168823Y908402D01*
X167211Y912294D01*
X167211Y916506D01*
X168823Y920398D01*
X171802Y923377D01*
X175694Y924989D01*
X179906Y924989D01*
X183798Y923377D01*
X186777Y920398D01*
X188389Y916506D01*
X188389Y912294D01*
X186777Y908402D01*
X183798Y905423D01*
X179906Y903811D01*
X175694Y903811D01*
G37*
%LPD*%
%LPC*%
G36*
X582094Y903811D02*
X582094Y903811D01*
X578202Y905423D01*
X575223Y908402D01*
X573611Y912294D01*
X573611Y916506D01*
X575223Y920398D01*
X578202Y923377D01*
X582094Y924989D01*
X586306Y924989D01*
X590198Y923377D01*
X593177Y920398D01*
X594789Y916506D01*
X594789Y912294D01*
X593177Y908402D01*
X590198Y905423D01*
X586306Y903811D01*
X582094Y903811D01*
G37*
%LPD*%
%LPC*%
G36*
X607494Y903811D02*
X607494Y903811D01*
X603602Y905423D01*
X600623Y908402D01*
X599011Y912294D01*
X599011Y916506D01*
X600623Y920398D01*
X603602Y923377D01*
X607494Y924989D01*
X611706Y924989D01*
X615598Y923377D01*
X618577Y920398D01*
X620189Y916506D01*
X620189Y912294D01*
X618577Y908402D01*
X615598Y905423D01*
X611706Y903811D01*
X607494Y903811D01*
G37*
%LPD*%
%LPC*%
G36*
X582094Y929211D02*
X582094Y929211D01*
X578202Y930823D01*
X575223Y933802D01*
X573611Y937694D01*
X573611Y941906D01*
X575223Y945798D01*
X578202Y948777D01*
X582094Y950389D01*
X586306Y950389D01*
X590198Y948777D01*
X593177Y945798D01*
X594789Y941906D01*
X594789Y937694D01*
X593177Y933802D01*
X590198Y930823D01*
X586306Y929211D01*
X582094Y929211D01*
G37*
%LPD*%
%LPC*%
G36*
X150294Y929211D02*
X150294Y929211D01*
X146402Y930823D01*
X143423Y933802D01*
X141811Y937694D01*
X141811Y941906D01*
X143423Y945798D01*
X146402Y948777D01*
X150294Y950389D01*
X154506Y950389D01*
X158398Y948777D01*
X161377Y945798D01*
X162989Y941906D01*
X162989Y937694D01*
X161377Y933802D01*
X158398Y930823D01*
X154506Y929211D01*
X150294Y929211D01*
G37*
%LPD*%
%LPC*%
G36*
X607494Y929211D02*
X607494Y929211D01*
X603602Y930823D01*
X600623Y933802D01*
X599011Y937694D01*
X599011Y941906D01*
X600623Y945798D01*
X603602Y948777D01*
X607494Y950389D01*
X611706Y950389D01*
X615598Y948777D01*
X618577Y945798D01*
X620189Y941906D01*
X620189Y937694D01*
X618577Y933802D01*
X615598Y930823D01*
X611706Y929211D01*
X607494Y929211D01*
G37*
%LPD*%
%LPC*%
G36*
X175694Y929211D02*
X175694Y929211D01*
X171802Y930823D01*
X168823Y933802D01*
X167211Y937694D01*
X167211Y941906D01*
X168823Y945798D01*
X171802Y948777D01*
X175694Y950389D01*
X179906Y950389D01*
X183798Y948777D01*
X186777Y945798D01*
X188389Y941906D01*
X188389Y937694D01*
X186777Y933802D01*
X183798Y930823D01*
X179906Y929211D01*
X175694Y929211D01*
G37*
%LPD*%
%LPC*%
G36*
X223962Y375531D02*
X223962Y375531D01*
X220085Y377137D01*
X217117Y380105D01*
X215511Y383982D01*
X215511Y388178D01*
X217117Y392055D01*
X220085Y395023D01*
X223962Y396629D01*
X228158Y396629D01*
X232035Y395023D01*
X235003Y392055D01*
X236609Y388178D01*
X236609Y383982D01*
X235003Y380105D01*
X232035Y377137D01*
X228393Y375628D01*
X228158Y375531D01*
X223962Y375531D01*
G37*
%LPD*%
%LPC*%
G36*
X277302Y375531D02*
X277302Y375531D01*
X273425Y377137D01*
X270457Y380105D01*
X268851Y383982D01*
X268851Y388178D01*
X270457Y392055D01*
X273425Y395023D01*
X277302Y396629D01*
X281498Y396629D01*
X285375Y395023D01*
X288343Y392055D01*
X289949Y388178D01*
X289949Y383982D01*
X288343Y380105D01*
X285375Y377137D01*
X281733Y375628D01*
X281498Y375531D01*
X277302Y375531D01*
G37*
%LPD*%
%LPC*%
G36*
X386522Y375531D02*
X386522Y375531D01*
X382645Y377137D01*
X379677Y380105D01*
X378071Y383982D01*
X378071Y388178D01*
X379677Y392055D01*
X382645Y395023D01*
X386522Y396629D01*
X390718Y396629D01*
X394595Y395023D01*
X397563Y392055D01*
X399169Y388178D01*
X399169Y383982D01*
X397563Y380105D01*
X394595Y377137D01*
X390953Y375628D01*
X390718Y375531D01*
X386522Y375531D01*
G37*
%LPD*%
%LPC*%
G36*
X56322Y256151D02*
X56322Y256151D01*
X52445Y257757D01*
X49477Y260725D01*
X47871Y264602D01*
X47871Y268798D01*
X49477Y272675D01*
X52445Y275643D01*
X56322Y277249D01*
X60518Y277249D01*
X64395Y275643D01*
X67363Y272675D01*
X68969Y268798D01*
X68969Y264602D01*
X67363Y260725D01*
X64395Y257757D01*
X60518Y256151D01*
X56322Y256151D01*
G37*
%LPD*%
%LPC*%
G36*
X251902Y640961D02*
X251902Y640961D01*
X248025Y642567D01*
X245057Y645535D01*
X243451Y649412D01*
X243451Y653608D01*
X245057Y657485D01*
X248025Y660453D01*
X251902Y662059D01*
X256098Y662059D01*
X259975Y660453D01*
X262943Y657485D01*
X264549Y653608D01*
X264549Y649412D01*
X262943Y645535D01*
X259975Y642567D01*
X256098Y640961D01*
X251902Y640961D01*
G37*
%LPD*%
%LPC*%
G36*
X207452Y640961D02*
X207452Y640961D01*
X203575Y642567D01*
X200607Y645535D01*
X199001Y649412D01*
X199001Y653608D01*
X200607Y657485D01*
X203575Y660453D01*
X207452Y662059D01*
X211648Y662059D01*
X215525Y660453D01*
X218493Y657485D01*
X220099Y653608D01*
X220099Y649412D01*
X218493Y645535D01*
X215525Y642567D01*
X211648Y640961D01*
X207452Y640961D01*
G37*
%LPD*%
%LPC*%
G36*
X113621Y537571D02*
X113621Y537571D01*
X110019Y539063D01*
X107263Y541819D01*
X105771Y545421D01*
X105771Y549319D01*
X107263Y552921D01*
X110019Y555677D01*
X113621Y557169D01*
X117519Y557169D01*
X121121Y555677D01*
X123877Y552921D01*
X125369Y549319D01*
X125369Y545421D01*
X123877Y541819D01*
X121121Y539063D01*
X117519Y537571D01*
X113621Y537571D01*
G37*
%LPD*%
%LPC*%
G36*
X1112431Y591339D02*
X1112431Y591339D01*
X1109921Y592379D01*
X1107999Y594301D01*
X1106959Y596811D01*
X1106959Y599529D01*
X1107999Y602039D01*
X1109921Y603961D01*
X1112431Y605001D01*
X1115149Y605001D01*
X1117659Y603961D01*
X1119581Y602039D01*
X1120168Y600621D01*
X1120173Y600613D01*
X1120175Y600604D01*
X1120269Y600433D01*
X1120359Y600266D01*
X1120364Y600259D01*
X1120369Y600251D01*
X1120493Y600103D01*
X1120615Y599956D01*
X1120622Y599950D01*
X1120628Y599943D01*
X1120778Y599823D01*
X1120928Y599702D01*
X1120936Y599698D01*
X1120943Y599692D01*
X1121115Y599603D01*
X1121284Y599515D01*
X1121293Y599512D01*
X1121301Y599508D01*
X1121488Y599455D01*
X1121671Y599402D01*
X1121679Y599401D01*
X1121688Y599398D01*
X1121881Y599384D01*
X1122072Y599367D01*
X1122081Y599368D01*
X1122089Y599367D01*
X1122281Y599391D01*
X1122472Y599412D01*
X1122480Y599415D01*
X1122489Y599416D01*
X1122672Y599476D01*
X1122855Y599535D01*
X1122863Y599540D01*
X1122871Y599543D01*
X1123038Y599638D01*
X1123207Y599732D01*
X1123213Y599738D01*
X1123221Y599742D01*
X1123366Y599868D01*
X1123512Y599994D01*
X1123518Y600001D01*
X1123525Y600006D01*
X1123643Y600160D01*
X1123761Y600311D01*
X1123765Y600319D01*
X1123770Y600326D01*
X1123922Y600621D01*
X1124509Y602039D01*
X1126431Y603961D01*
X1128941Y605001D01*
X1131659Y605001D01*
X1134169Y603961D01*
X1136091Y602039D01*
X1137131Y599529D01*
X1137131Y596811D01*
X1136091Y594301D01*
X1134169Y592379D01*
X1131659Y591339D01*
X1128941Y591339D01*
X1126431Y592379D01*
X1124509Y594301D01*
X1123922Y595719D01*
X1123917Y595727D01*
X1123915Y595736D01*
X1123823Y595904D01*
X1123731Y596074D01*
X1123726Y596081D01*
X1123721Y596089D01*
X1123598Y596236D01*
X1123475Y596384D01*
X1123468Y596390D01*
X1123462Y596397D01*
X1123313Y596516D01*
X1123162Y596638D01*
X1123154Y596642D01*
X1123148Y596648D01*
X1122977Y596735D01*
X1122806Y596825D01*
X1122797Y596828D01*
X1122789Y596832D01*
X1122606Y596884D01*
X1122420Y596938D01*
X1122410Y596939D01*
X1122402Y596942D01*
X1122211Y596956D01*
X1122018Y596973D01*
X1122009Y596972D01*
X1122001Y596973D01*
X1121811Y596950D01*
X1121618Y596928D01*
X1121610Y596925D01*
X1121601Y596924D01*
X1121418Y596864D01*
X1121235Y596805D01*
X1121227Y596800D01*
X1121219Y596797D01*
X1121051Y596702D01*
X1120884Y596608D01*
X1120877Y596602D01*
X1120869Y596598D01*
X1120724Y596472D01*
X1120578Y596346D01*
X1120572Y596339D01*
X1120565Y596334D01*
X1120448Y596181D01*
X1120329Y596029D01*
X1120325Y596021D01*
X1120320Y596014D01*
X1120168Y595719D01*
X1119581Y594301D01*
X1117659Y592379D01*
X1115149Y591339D01*
X1112431Y591339D01*
G37*
%LPD*%
%LPC*%
G36*
X1353096Y544984D02*
X1353096Y544984D01*
X1350586Y546024D01*
X1348664Y547946D01*
X1347624Y550456D01*
X1347624Y553174D01*
X1348664Y555684D01*
X1350586Y557606D01*
X1353096Y558646D01*
X1355814Y558646D01*
X1357899Y557782D01*
X1357908Y557779D01*
X1357916Y557775D01*
X1358100Y557721D01*
X1358285Y557665D01*
X1358294Y557665D01*
X1358302Y557662D01*
X1358493Y557646D01*
X1358685Y557627D01*
X1358694Y557628D01*
X1358703Y557627D01*
X1358893Y557649D01*
X1359086Y557669D01*
X1359094Y557672D01*
X1359103Y557673D01*
X1359286Y557731D01*
X1359470Y557789D01*
X1359478Y557793D01*
X1359487Y557796D01*
X1359654Y557890D01*
X1359823Y557982D01*
X1359830Y557988D01*
X1359838Y557992D01*
X1359983Y558117D01*
X1360131Y558241D01*
X1360137Y558248D01*
X1360144Y558254D01*
X1360262Y558405D01*
X1360382Y558556D01*
X1360387Y558564D01*
X1360392Y558571D01*
X1360478Y558742D01*
X1360566Y558914D01*
X1360569Y558923D01*
X1360573Y558931D01*
X1360624Y559116D01*
X1360676Y559302D01*
X1360677Y559310D01*
X1360679Y559319D01*
X1360692Y559513D01*
X1360707Y559703D01*
X1360706Y559712D01*
X1360707Y559721D01*
X1360682Y559913D01*
X1360659Y560103D01*
X1360656Y560111D01*
X1360655Y560120D01*
X1360553Y560436D01*
X1359689Y562521D01*
X1359689Y565239D01*
X1360729Y567749D01*
X1362651Y569671D01*
X1365161Y570711D01*
X1367879Y570711D01*
X1370389Y569671D01*
X1372311Y567749D01*
X1373351Y565239D01*
X1373351Y562521D01*
X1372311Y560011D01*
X1370389Y558089D01*
X1367879Y557049D01*
X1365161Y557049D01*
X1363076Y557913D01*
X1363067Y557916D01*
X1363059Y557920D01*
X1362875Y557974D01*
X1362690Y558030D01*
X1362681Y558030D01*
X1362673Y558033D01*
X1362482Y558049D01*
X1362290Y558068D01*
X1362281Y558067D01*
X1362272Y558067D01*
X1362082Y558046D01*
X1361889Y558026D01*
X1361881Y558023D01*
X1361872Y558022D01*
X1361689Y557964D01*
X1361505Y557906D01*
X1361497Y557902D01*
X1361488Y557899D01*
X1361321Y557805D01*
X1361152Y557713D01*
X1361145Y557707D01*
X1361137Y557703D01*
X1360992Y557578D01*
X1360844Y557454D01*
X1360838Y557447D01*
X1360831Y557441D01*
X1360713Y557290D01*
X1360593Y557139D01*
X1360588Y557131D01*
X1360583Y557124D01*
X1360497Y556953D01*
X1360409Y556781D01*
X1360406Y556772D01*
X1360402Y556764D01*
X1360351Y556579D01*
X1360299Y556393D01*
X1360298Y556385D01*
X1360296Y556376D01*
X1360283Y556182D01*
X1360268Y555992D01*
X1360269Y555983D01*
X1360268Y555974D01*
X1360293Y555782D01*
X1360316Y555592D01*
X1360319Y555584D01*
X1360320Y555575D01*
X1360422Y555259D01*
X1361286Y553174D01*
X1361286Y550456D01*
X1360246Y547946D01*
X1358324Y546024D01*
X1355814Y544984D01*
X1353096Y544984D01*
G37*
%LPD*%
%LPC*%
G36*
X74543Y810819D02*
X74543Y810819D01*
X71481Y812088D01*
X69138Y814431D01*
X67869Y817493D01*
X67869Y820807D01*
X69138Y823869D01*
X71481Y826212D01*
X74543Y827481D01*
X77857Y827481D01*
X80919Y826212D01*
X83262Y823869D01*
X84531Y820807D01*
X84531Y817493D01*
X83262Y814431D01*
X80919Y812088D01*
X77857Y810819D01*
X74543Y810819D01*
G37*
%LPD*%
%LPC*%
G36*
X271393Y1030529D02*
X271393Y1030529D01*
X268331Y1031798D01*
X265988Y1034141D01*
X264719Y1037203D01*
X264719Y1040517D01*
X265988Y1043579D01*
X268331Y1045922D01*
X271393Y1047191D01*
X274707Y1047191D01*
X277769Y1045922D01*
X280112Y1043579D01*
X281381Y1040517D01*
X281381Y1037203D01*
X280112Y1034141D01*
X277769Y1031798D01*
X274707Y1030529D01*
X271393Y1030529D01*
G37*
%LPD*%
%LPC*%
G36*
X458083Y880669D02*
X458083Y880669D01*
X455021Y881938D01*
X452678Y884281D01*
X451409Y887343D01*
X451409Y890657D01*
X452678Y893719D01*
X455021Y896062D01*
X458083Y897331D01*
X461397Y897331D01*
X464459Y896062D01*
X466802Y893719D01*
X468071Y890657D01*
X468071Y887343D01*
X466802Y884281D01*
X464459Y881938D01*
X461397Y880669D01*
X458083Y880669D01*
G37*
%LPD*%
%LPC*%
G36*
X98673Y876859D02*
X98673Y876859D01*
X95611Y878128D01*
X93268Y880471D01*
X91999Y883533D01*
X91999Y886847D01*
X93268Y889909D01*
X95611Y892252D01*
X98673Y893521D01*
X101987Y893521D01*
X105049Y892252D01*
X107392Y889909D01*
X108661Y886847D01*
X108661Y883533D01*
X107392Y880471D01*
X105049Y878128D01*
X101987Y876859D01*
X98673Y876859D01*
G37*
%LPD*%
%LPC*%
G36*
X1443603Y439979D02*
X1443603Y439979D01*
X1440541Y441248D01*
X1438198Y443591D01*
X1436929Y446653D01*
X1436929Y449967D01*
X1438198Y453029D01*
X1440541Y455372D01*
X1443603Y456641D01*
X1446917Y456641D01*
X1449979Y455372D01*
X1452322Y453029D01*
X1453591Y449967D01*
X1453591Y446653D01*
X1452322Y443591D01*
X1449979Y441248D01*
X1446917Y439979D01*
X1443603Y439979D01*
G37*
%LPD*%
%LPC*%
G36*
X1184523Y695249D02*
X1184523Y695249D01*
X1181461Y696518D01*
X1179118Y698861D01*
X1177849Y701923D01*
X1177849Y705237D01*
X1179118Y708299D01*
X1181461Y710642D01*
X1184523Y711911D01*
X1187837Y711911D01*
X1190899Y710642D01*
X1193242Y708299D01*
X1194511Y705237D01*
X1194511Y701923D01*
X1193242Y698861D01*
X1190899Y696518D01*
X1187837Y695249D01*
X1184523Y695249D01*
G37*
%LPD*%
%LPC*%
G36*
X1422013Y686359D02*
X1422013Y686359D01*
X1418951Y687628D01*
X1416608Y689971D01*
X1415339Y693033D01*
X1415339Y696347D01*
X1416608Y699409D01*
X1418951Y701752D01*
X1422013Y703021D01*
X1425327Y703021D01*
X1428389Y701752D01*
X1430732Y699409D01*
X1432001Y696347D01*
X1432001Y693033D01*
X1430732Y689971D01*
X1428389Y687628D01*
X1425327Y686359D01*
X1422013Y686359D01*
G37*
%LPD*%
%LPC*%
G36*
X1189603Y434899D02*
X1189603Y434899D01*
X1186541Y436168D01*
X1184198Y438511D01*
X1182929Y441573D01*
X1182929Y444887D01*
X1184198Y447949D01*
X1186541Y450292D01*
X1189603Y451561D01*
X1192917Y451561D01*
X1195979Y450292D01*
X1198322Y447949D01*
X1199591Y444887D01*
X1199591Y441573D01*
X1198322Y438511D01*
X1195979Y436168D01*
X1192917Y434899D01*
X1189603Y434899D01*
G37*
%LPD*%
%LPC*%
G36*
X480943Y855269D02*
X480943Y855269D01*
X477881Y856538D01*
X475538Y858881D01*
X474269Y861943D01*
X474269Y865257D01*
X475538Y868319D01*
X477881Y870662D01*
X480943Y871931D01*
X484257Y871931D01*
X487319Y870662D01*
X489662Y868319D01*
X490931Y865257D01*
X490931Y861943D01*
X489662Y858881D01*
X487319Y856538D01*
X484257Y855269D01*
X480943Y855269D01*
G37*
%LPD*%
%LPC*%
G36*
X230753Y1029259D02*
X230753Y1029259D01*
X227691Y1030528D01*
X225348Y1032871D01*
X224079Y1035933D01*
X224079Y1039247D01*
X225348Y1042309D01*
X227691Y1044652D01*
X230753Y1045921D01*
X234067Y1045921D01*
X237129Y1044652D01*
X239472Y1042309D01*
X240741Y1039247D01*
X240741Y1035933D01*
X239472Y1032871D01*
X237129Y1030528D01*
X234067Y1029259D01*
X230753Y1029259D01*
G37*
%LPD*%
%LPC*%
G36*
X98673Y810819D02*
X98673Y810819D01*
X95611Y812088D01*
X93268Y814431D01*
X91999Y817493D01*
X91999Y820807D01*
X93268Y823869D01*
X95611Y826212D01*
X98673Y827481D01*
X101987Y827481D01*
X105049Y826212D01*
X107392Y823869D01*
X108661Y820807D01*
X108661Y817493D01*
X107392Y814431D01*
X105049Y812088D01*
X101987Y810819D01*
X98673Y810819D01*
G37*
%LPD*%
%LPC*%
G36*
X821303Y1081329D02*
X821303Y1081329D01*
X818241Y1082598D01*
X815898Y1084941D01*
X814629Y1088003D01*
X814629Y1091317D01*
X815898Y1094379D01*
X818241Y1096722D01*
X821303Y1097991D01*
X824617Y1097991D01*
X827679Y1096722D01*
X830022Y1094379D01*
X831291Y1091317D01*
X831291Y1088003D01*
X830022Y1084941D01*
X827679Y1082598D01*
X824617Y1081329D01*
X821303Y1081329D01*
G37*
%LPD*%
%LPC*%
G36*
X545713Y564439D02*
X545713Y564439D01*
X542651Y565708D01*
X540308Y568051D01*
X539039Y571113D01*
X539039Y574427D01*
X540308Y577489D01*
X542651Y579832D01*
X545713Y581101D01*
X549027Y581101D01*
X552089Y579832D01*
X554432Y577489D01*
X555701Y574427D01*
X555701Y571113D01*
X554432Y568051D01*
X552089Y565708D01*
X549027Y564439D01*
X545713Y564439D01*
G37*
%LPD*%
%LPC*%
G36*
X515233Y564439D02*
X515233Y564439D01*
X512171Y565708D01*
X509828Y568051D01*
X508559Y571113D01*
X508559Y574427D01*
X509828Y577489D01*
X512171Y579832D01*
X515233Y581101D01*
X518547Y581101D01*
X521609Y579832D01*
X523952Y577489D01*
X525221Y574427D01*
X525221Y571113D01*
X523952Y568051D01*
X521609Y565708D01*
X518547Y564439D01*
X515233Y564439D01*
G37*
%LPD*%
%LPC*%
G36*
X761911Y837719D02*
X761911Y837719D01*
X759401Y838759D01*
X757479Y840681D01*
X756439Y843191D01*
X756439Y845909D01*
X757479Y848419D01*
X759401Y850341D01*
X761911Y851381D01*
X764629Y851381D01*
X767139Y850341D01*
X769061Y848419D01*
X770101Y845909D01*
X770101Y843191D01*
X769061Y840681D01*
X767139Y838759D01*
X767126Y838753D01*
X767125Y838753D01*
X764629Y837719D01*
X761911Y837719D01*
G37*
%LPD*%
%LPC*%
G36*
X1008291Y591339D02*
X1008291Y591339D01*
X1005781Y592379D01*
X1003859Y594301D01*
X1002819Y596811D01*
X1002819Y599529D01*
X1003859Y602039D01*
X1005781Y603961D01*
X1008291Y605001D01*
X1011009Y605001D01*
X1013519Y603961D01*
X1015441Y602039D01*
X1016481Y599529D01*
X1016481Y596811D01*
X1015441Y594301D01*
X1013519Y592379D01*
X1011009Y591339D01*
X1008291Y591339D01*
G37*
%LPD*%
%LPC*%
G36*
X1080681Y760249D02*
X1080681Y760249D01*
X1078171Y761289D01*
X1076249Y763211D01*
X1075209Y765721D01*
X1075209Y768439D01*
X1076249Y770949D01*
X1078171Y772871D01*
X1080681Y773911D01*
X1083399Y773911D01*
X1085909Y772871D01*
X1087831Y770949D01*
X1088871Y768439D01*
X1088871Y765721D01*
X1087831Y763211D01*
X1085909Y761289D01*
X1083399Y760249D01*
X1080681Y760249D01*
G37*
%LPD*%
%LPC*%
G36*
X855891Y662459D02*
X855891Y662459D01*
X853381Y663499D01*
X851459Y665421D01*
X850419Y667931D01*
X850419Y670649D01*
X851459Y673159D01*
X853381Y675081D01*
X855891Y676121D01*
X858609Y676121D01*
X861119Y675081D01*
X863041Y673159D01*
X864081Y670649D01*
X864081Y667931D01*
X863041Y665421D01*
X861119Y663499D01*
X858609Y662459D01*
X855891Y662459D01*
G37*
%LPD*%
%LPC*%
G36*
X1008291Y473229D02*
X1008291Y473229D01*
X1005781Y474269D01*
X1003859Y476191D01*
X1002819Y478701D01*
X1002819Y481419D01*
X1003859Y483929D01*
X1005781Y485851D01*
X1008291Y486891D01*
X1011009Y486891D01*
X1013519Y485851D01*
X1015441Y483929D01*
X1016481Y481419D01*
X1016481Y478701D01*
X1015441Y476191D01*
X1013519Y474269D01*
X1011009Y473229D01*
X1008291Y473229D01*
G37*
%LPD*%
%LPC*%
G36*
X1032421Y473229D02*
X1032421Y473229D01*
X1029911Y474269D01*
X1027989Y476191D01*
X1026949Y478701D01*
X1026949Y481419D01*
X1027989Y483929D01*
X1029911Y485851D01*
X1032421Y486891D01*
X1035139Y486891D01*
X1037649Y485851D01*
X1039571Y483929D01*
X1040611Y481419D01*
X1040611Y478701D01*
X1039571Y476191D01*
X1037649Y474269D01*
X1035139Y473229D01*
X1032421Y473229D01*
G37*
%LPD*%
%LPC*%
G36*
X761911Y811049D02*
X761911Y811049D01*
X759401Y812089D01*
X757479Y814011D01*
X756439Y816521D01*
X756439Y819239D01*
X757479Y821749D01*
X759401Y823671D01*
X761911Y824711D01*
X764629Y824711D01*
X767139Y823671D01*
X769061Y821749D01*
X770101Y819239D01*
X770101Y816521D01*
X769061Y814011D01*
X767139Y812089D01*
X764629Y811049D01*
X761911Y811049D01*
G37*
%LPD*%
%LPC*%
G36*
X888911Y480849D02*
X888911Y480849D01*
X886401Y481889D01*
X884479Y483811D01*
X883439Y486321D01*
X883439Y489039D01*
X884479Y491549D01*
X886401Y493471D01*
X888911Y494511D01*
X891629Y494511D01*
X894139Y493471D01*
X896061Y491549D01*
X897101Y489039D01*
X897101Y486321D01*
X896061Y483811D01*
X894139Y481889D01*
X891629Y480849D01*
X888911Y480849D01*
G37*
%LPD*%
%LPC*%
G36*
X1268006Y650394D02*
X1268006Y650394D01*
X1265496Y651434D01*
X1263574Y653356D01*
X1262534Y655866D01*
X1262534Y658584D01*
X1263574Y661094D01*
X1265496Y663016D01*
X1268006Y664056D01*
X1270724Y664056D01*
X1273234Y663016D01*
X1275156Y661094D01*
X1276196Y658584D01*
X1276196Y655866D01*
X1275156Y653356D01*
X1273234Y651434D01*
X1270724Y650394D01*
X1268006Y650394D01*
G37*
%LPD*%
%LPC*%
G36*
X1596301Y849149D02*
X1596301Y849149D01*
X1593791Y850189D01*
X1591869Y852111D01*
X1590829Y854621D01*
X1590829Y857339D01*
X1591869Y859849D01*
X1593791Y861771D01*
X1596301Y862811D01*
X1599019Y862811D01*
X1601529Y861771D01*
X1603451Y859849D01*
X1604491Y857339D01*
X1604491Y854621D01*
X1603451Y852111D01*
X1601529Y850189D01*
X1599019Y849149D01*
X1596301Y849149D01*
G37*
%LPD*%
%LPC*%
G36*
X1257211Y484659D02*
X1257211Y484659D01*
X1254701Y485699D01*
X1252779Y487621D01*
X1251739Y490131D01*
X1251739Y492849D01*
X1252779Y495359D01*
X1254701Y497281D01*
X1257211Y498321D01*
X1259929Y498321D01*
X1262439Y497281D01*
X1264361Y495359D01*
X1265401Y492849D01*
X1265401Y490131D01*
X1264361Y487621D01*
X1262439Y485699D01*
X1259929Y484659D01*
X1257211Y484659D01*
G37*
%LPD*%
%LPC*%
G36*
X1151801Y550699D02*
X1151801Y550699D01*
X1149291Y551739D01*
X1147369Y553661D01*
X1146329Y556171D01*
X1146329Y558889D01*
X1147369Y561399D01*
X1149291Y563321D01*
X1151801Y564361D01*
X1154519Y564361D01*
X1157029Y563321D01*
X1158951Y561399D01*
X1159991Y558889D01*
X1159991Y556171D01*
X1158951Y553661D01*
X1157029Y551739D01*
X1154519Y550699D01*
X1151801Y550699D01*
G37*
%LPD*%
%LPC*%
G36*
X947331Y662459D02*
X947331Y662459D01*
X944821Y663499D01*
X942899Y665421D01*
X941859Y667931D01*
X941859Y670649D01*
X942899Y673159D01*
X944821Y675081D01*
X947331Y676121D01*
X950049Y676121D01*
X952559Y675081D01*
X954481Y673159D01*
X955521Y670649D01*
X955521Y667931D01*
X954481Y665421D01*
X952559Y663499D01*
X950049Y662459D01*
X947331Y662459D01*
G37*
%LPD*%
%LPC*%
G36*
X1395641Y546889D02*
X1395641Y546889D01*
X1393131Y547929D01*
X1391209Y549851D01*
X1390169Y552361D01*
X1390169Y555079D01*
X1391209Y557589D01*
X1393131Y559511D01*
X1395641Y560551D01*
X1398359Y560551D01*
X1400869Y559511D01*
X1402791Y557589D01*
X1403831Y555079D01*
X1403831Y552361D01*
X1402791Y549851D01*
X1400869Y547929D01*
X1398359Y546889D01*
X1395641Y546889D01*
G37*
%LPD*%
%LPC*%
G36*
X1596301Y1039649D02*
X1596301Y1039649D01*
X1593791Y1040689D01*
X1591869Y1042611D01*
X1590829Y1045121D01*
X1590829Y1047839D01*
X1591869Y1050349D01*
X1593791Y1052271D01*
X1596301Y1053311D01*
X1599019Y1053311D01*
X1601529Y1052271D01*
X1603451Y1050349D01*
X1604491Y1047839D01*
X1604491Y1045121D01*
X1603451Y1042611D01*
X1601529Y1040689D01*
X1599019Y1039649D01*
X1596301Y1039649D01*
G37*
%LPD*%
%LPC*%
G36*
X1107351Y614199D02*
X1107351Y614199D01*
X1104841Y615239D01*
X1102919Y617161D01*
X1101879Y619671D01*
X1101879Y622389D01*
X1102919Y624899D01*
X1104841Y626821D01*
X1107351Y627861D01*
X1110069Y627861D01*
X1112579Y626821D01*
X1114501Y624899D01*
X1115541Y622389D01*
X1115541Y619671D01*
X1114501Y617161D01*
X1112579Y615239D01*
X1110069Y614199D01*
X1107351Y614199D01*
G37*
%LPD*%
%LPC*%
G36*
X855891Y692939D02*
X855891Y692939D01*
X853381Y693979D01*
X851459Y695901D01*
X850419Y698411D01*
X850419Y701129D01*
X851459Y703639D01*
X853381Y705561D01*
X855891Y706601D01*
X858609Y706601D01*
X861119Y705561D01*
X863041Y703639D01*
X864081Y701129D01*
X864081Y698411D01*
X863041Y695901D01*
X861119Y693979D01*
X858609Y692939D01*
X855891Y692939D01*
G37*
%LPD*%
%LPC*%
G36*
X971461Y473229D02*
X971461Y473229D01*
X968951Y474269D01*
X967029Y476191D01*
X965989Y478701D01*
X965989Y481419D01*
X967029Y483929D01*
X968951Y485851D01*
X971461Y486891D01*
X974179Y486891D01*
X976689Y485851D01*
X978611Y483929D01*
X979651Y481419D01*
X979651Y478701D01*
X978611Y476191D01*
X976689Y474269D01*
X974179Y473229D01*
X971461Y473229D01*
G37*
%LPD*%
%LPC*%
G36*
X1321981Y638329D02*
X1321981Y638329D01*
X1319471Y639369D01*
X1317549Y641291D01*
X1316509Y643801D01*
X1316509Y646519D01*
X1317549Y649029D01*
X1319471Y650951D01*
X1321981Y651991D01*
X1324699Y651991D01*
X1327209Y650951D01*
X1329131Y649029D01*
X1330171Y646519D01*
X1330171Y643801D01*
X1329131Y641291D01*
X1327209Y639369D01*
X1324699Y638329D01*
X1321981Y638329D01*
G37*
%LPD*%
%LPC*%
G36*
X911771Y644679D02*
X911771Y644679D01*
X909261Y645719D01*
X907339Y647641D01*
X906299Y650151D01*
X906299Y652869D01*
X907339Y655379D01*
X909261Y657301D01*
X911771Y658341D01*
X914489Y658341D01*
X916999Y657301D01*
X918921Y655379D01*
X919961Y652869D01*
X919961Y650151D01*
X918921Y647641D01*
X916999Y645719D01*
X914489Y644679D01*
X911771Y644679D01*
G37*
%LPD*%
%LPC*%
G36*
X1032421Y604039D02*
X1032421Y604039D01*
X1029911Y605079D01*
X1027989Y607001D01*
X1026949Y609511D01*
X1026949Y612229D01*
X1027989Y614739D01*
X1029911Y616661D01*
X1032421Y617701D01*
X1035139Y617701D01*
X1037649Y616661D01*
X1039571Y614739D01*
X1040611Y612229D01*
X1040611Y609511D01*
X1039571Y607001D01*
X1037649Y605079D01*
X1035139Y604039D01*
X1032421Y604039D01*
G37*
%LPD*%
%LPC*%
G36*
X906691Y924079D02*
X906691Y924079D01*
X904181Y925119D01*
X902259Y927041D01*
X901219Y929551D01*
X901219Y932269D01*
X902259Y934779D01*
X904181Y936701D01*
X906691Y937741D01*
X909409Y937741D01*
X911919Y936701D01*
X913841Y934779D01*
X914881Y932269D01*
X914881Y929551D01*
X913841Y927041D01*
X911919Y925119D01*
X909409Y924079D01*
X906691Y924079D01*
G37*
%LPD*%
%LPC*%
G36*
X1349286Y589434D02*
X1349286Y589434D01*
X1346776Y590474D01*
X1344854Y592396D01*
X1343814Y594906D01*
X1343814Y597624D01*
X1344854Y600134D01*
X1346776Y602056D01*
X1349286Y603096D01*
X1352004Y603096D01*
X1354514Y602056D01*
X1356436Y600134D01*
X1357476Y597624D01*
X1357476Y594906D01*
X1356436Y592396D01*
X1354514Y590474D01*
X1352004Y589434D01*
X1349286Y589434D01*
G37*
%LPD*%
%LPC*%
G36*
X1318171Y454179D02*
X1318171Y454179D01*
X1315661Y455219D01*
X1313739Y457141D01*
X1312699Y459651D01*
X1312699Y462369D01*
X1313739Y464879D01*
X1315661Y466801D01*
X1318171Y467841D01*
X1320889Y467841D01*
X1323399Y466801D01*
X1325321Y464879D01*
X1326361Y462369D01*
X1326361Y459651D01*
X1325321Y457141D01*
X1323399Y455219D01*
X1320889Y454179D01*
X1318171Y454179D01*
G37*
%LPD*%
%LPC*%
G36*
X1217766Y530454D02*
X1217766Y530454D01*
X1215256Y531494D01*
X1213334Y533416D01*
X1212294Y535926D01*
X1212294Y538644D01*
X1213334Y541154D01*
X1215256Y543076D01*
X1217766Y544116D01*
X1220484Y544116D01*
X1222994Y543076D01*
X1224916Y541154D01*
X1225956Y538644D01*
X1225956Y535926D01*
X1224916Y533416D01*
X1222994Y531494D01*
X1220484Y530454D01*
X1217766Y530454D01*
G37*
%LPD*%
%LPC*%
G36*
X1334681Y513869D02*
X1334681Y513869D01*
X1332171Y514909D01*
X1330249Y516831D01*
X1329209Y519341D01*
X1329209Y522059D01*
X1330249Y524569D01*
X1332171Y526491D01*
X1334681Y527531D01*
X1337399Y527531D01*
X1339909Y526491D01*
X1341831Y524569D01*
X1342871Y522059D01*
X1342871Y519341D01*
X1341831Y516831D01*
X1339909Y514909D01*
X1337399Y513869D01*
X1334681Y513869D01*
G37*
%LPD*%
%LPC*%
G36*
X934631Y473229D02*
X934631Y473229D01*
X932121Y474269D01*
X930199Y476191D01*
X929159Y478701D01*
X929159Y481419D01*
X930199Y483929D01*
X932121Y485851D01*
X934631Y486891D01*
X937349Y486891D01*
X939859Y485851D01*
X941781Y483929D01*
X942821Y481419D01*
X942821Y478701D01*
X941781Y476191D01*
X939859Y474269D01*
X937349Y473229D01*
X934631Y473229D01*
G37*
%LPD*%
%LPC*%
G36*
X1255941Y637059D02*
X1255941Y637059D01*
X1253431Y638099D01*
X1251509Y640021D01*
X1250469Y642531D01*
X1250469Y645249D01*
X1251509Y647759D01*
X1253431Y649681D01*
X1254595Y650163D01*
X1255941Y650721D01*
X1258659Y650721D01*
X1261169Y649681D01*
X1263091Y647759D01*
X1264131Y645249D01*
X1264131Y642531D01*
X1263091Y640021D01*
X1261169Y638099D01*
X1258659Y637059D01*
X1255941Y637059D01*
G37*
%LPD*%
%LPC*%
G36*
X1257211Y464339D02*
X1257211Y464339D01*
X1254701Y465379D01*
X1252779Y467301D01*
X1251739Y469811D01*
X1251739Y472529D01*
X1252779Y475039D01*
X1254701Y476961D01*
X1256019Y477507D01*
X1257211Y478001D01*
X1259929Y478001D01*
X1262439Y476961D01*
X1264361Y475039D01*
X1265401Y472529D01*
X1265401Y469811D01*
X1264361Y467301D01*
X1262439Y465379D01*
X1259929Y464339D01*
X1257211Y464339D01*
G37*
%LPD*%
%LPC*%
G36*
X1393101Y598959D02*
X1393101Y598959D01*
X1390591Y599999D01*
X1388669Y601921D01*
X1387629Y604431D01*
X1387629Y607149D01*
X1388669Y609659D01*
X1390591Y611581D01*
X1393101Y612621D01*
X1395819Y612621D01*
X1398329Y611581D01*
X1400251Y609659D01*
X1401291Y607149D01*
X1401291Y604431D01*
X1400251Y601921D01*
X1398329Y599999D01*
X1396076Y599066D01*
X1395819Y598959D01*
X1393101Y598959D01*
G37*
%LPD*%
%LPC*%
G36*
X949871Y565939D02*
X949871Y565939D01*
X947361Y566979D01*
X945439Y568901D01*
X944399Y571411D01*
X944399Y574129D01*
X945439Y576639D01*
X947361Y578561D01*
X948589Y579069D01*
X948589Y579070D01*
X949871Y579601D01*
X952589Y579601D01*
X955099Y578561D01*
X957021Y576639D01*
X958061Y574129D01*
X958061Y571411D01*
X957021Y568901D01*
X955099Y566979D01*
X952589Y565939D01*
X949871Y565939D01*
G37*
%LPD*%
%LPC*%
G36*
X1046391Y565939D02*
X1046391Y565939D01*
X1043881Y566979D01*
X1041959Y568901D01*
X1040919Y571411D01*
X1040919Y574129D01*
X1041959Y576639D01*
X1043881Y578561D01*
X1045109Y579069D01*
X1045109Y579070D01*
X1046391Y579601D01*
X1049109Y579601D01*
X1051619Y578561D01*
X1053541Y576639D01*
X1054581Y574129D01*
X1054581Y571411D01*
X1053541Y568901D01*
X1051619Y566979D01*
X1049109Y565939D01*
X1046391Y565939D01*
G37*
%LPD*%
%LPC*%
G36*
X1080681Y823749D02*
X1080681Y823749D01*
X1078171Y824789D01*
X1076249Y826711D01*
X1075209Y829221D01*
X1075209Y831939D01*
X1076249Y834449D01*
X1078171Y836371D01*
X1079782Y837038D01*
X1080681Y837411D01*
X1083399Y837411D01*
X1085909Y836371D01*
X1087831Y834449D01*
X1088871Y831939D01*
X1088871Y829221D01*
X1087831Y826711D01*
X1085909Y824789D01*
X1083399Y823749D01*
X1080681Y823749D01*
G37*
%LPD*%
%LPC*%
G36*
X1008291Y758979D02*
X1008291Y758979D01*
X1005781Y760019D01*
X1003859Y761941D01*
X1002819Y764451D01*
X1002819Y767169D01*
X1003859Y769679D01*
X1005781Y771601D01*
X1008291Y772641D01*
X1011009Y772641D01*
X1013519Y771601D01*
X1015441Y769679D01*
X1016481Y767169D01*
X1016481Y764451D01*
X1015441Y761941D01*
X1013519Y760019D01*
X1012350Y759535D01*
X1011009Y758979D01*
X1008291Y758979D01*
G37*
%LPD*%
%LPC*%
G36*
X1045121Y758979D02*
X1045121Y758979D01*
X1042611Y760019D01*
X1040689Y761941D01*
X1039649Y764451D01*
X1039649Y767169D01*
X1040689Y769679D01*
X1042611Y771601D01*
X1045121Y772641D01*
X1047839Y772641D01*
X1050349Y771601D01*
X1052271Y769679D01*
X1053311Y767169D01*
X1053311Y764451D01*
X1052271Y761941D01*
X1050349Y760019D01*
X1049180Y759535D01*
X1047839Y758979D01*
X1045121Y758979D01*
G37*
%LPD*%
%LPC*%
G36*
X971461Y758979D02*
X971461Y758979D01*
X968951Y760019D01*
X967029Y761941D01*
X965989Y764451D01*
X965989Y767169D01*
X967029Y769679D01*
X968951Y771601D01*
X971461Y772641D01*
X974179Y772641D01*
X976689Y771601D01*
X978611Y769679D01*
X979651Y767169D01*
X979651Y764451D01*
X978611Y761941D01*
X976689Y760019D01*
X975520Y759535D01*
X974179Y758979D01*
X971461Y758979D01*
G37*
%LPD*%
%LPC*%
G36*
X1207681Y592609D02*
X1207681Y592609D01*
X1205171Y593649D01*
X1203249Y595571D01*
X1202209Y598081D01*
X1202209Y600799D01*
X1203249Y603309D01*
X1205171Y605231D01*
X1205762Y605476D01*
X1207681Y606271D01*
X1210399Y606271D01*
X1212909Y605231D01*
X1214831Y603309D01*
X1215871Y600799D01*
X1215871Y598081D01*
X1214831Y595571D01*
X1212909Y593649D01*
X1210399Y592609D01*
X1207681Y592609D01*
G37*
%LPD*%
%LPC*%
G36*
X1309281Y651029D02*
X1309281Y651029D01*
X1306771Y652069D01*
X1304849Y653991D01*
X1303809Y656501D01*
X1303809Y659219D01*
X1304849Y661729D01*
X1306771Y663651D01*
X1308536Y664382D01*
X1309281Y664691D01*
X1311999Y664691D01*
X1314509Y663651D01*
X1316431Y661729D01*
X1317471Y659219D01*
X1317471Y656501D01*
X1316431Y653991D01*
X1314509Y652069D01*
X1311999Y651029D01*
X1309281Y651029D01*
G37*
%LPD*%
%LPC*%
G36*
X1032421Y629439D02*
X1032421Y629439D01*
X1029911Y630479D01*
X1027989Y632401D01*
X1026949Y634911D01*
X1026949Y637629D01*
X1027989Y640139D01*
X1029911Y642061D01*
X1032421Y643101D01*
X1035139Y643101D01*
X1037649Y642061D01*
X1039571Y640139D01*
X1040611Y637629D01*
X1040611Y634911D01*
X1039571Y632401D01*
X1037649Y630479D01*
X1035369Y629535D01*
X1035139Y629439D01*
X1032421Y629439D01*
G37*
%LPD*%
%LPC*%
G36*
X1555904Y599792D02*
X1555904Y599792D01*
X1555904Y611076D01*
X1556955Y610794D01*
X1558878Y609998D01*
X1560680Y608958D01*
X1562331Y607691D01*
X1563803Y606219D01*
X1565070Y604568D01*
X1566110Y602766D01*
X1566906Y600843D01*
X1567188Y599792D01*
X1555904Y599792D01*
G37*
%LPD*%
%LPC*%
G36*
X1195422Y119732D02*
X1195422Y119732D01*
X1195422Y131016D01*
X1196473Y130734D01*
X1198396Y129938D01*
X1200198Y128898D01*
X1201849Y127631D01*
X1203321Y126159D01*
X1204588Y124508D01*
X1205628Y122706D01*
X1206424Y120783D01*
X1206706Y119732D01*
X1195422Y119732D01*
G37*
%LPD*%
%LPC*%
G36*
X1606902Y599792D02*
X1606902Y599792D01*
X1606902Y611076D01*
X1607953Y610794D01*
X1609876Y609998D01*
X1611678Y608958D01*
X1613329Y607691D01*
X1614801Y606219D01*
X1616068Y604568D01*
X1617108Y602766D01*
X1617904Y600843D01*
X1618186Y599792D01*
X1606902Y599792D01*
G37*
%LPD*%
%LPC*%
G36*
X1398424Y119732D02*
X1398424Y119732D01*
X1398424Y131016D01*
X1399475Y130734D01*
X1401398Y129938D01*
X1403200Y128898D01*
X1404851Y127631D01*
X1406323Y126159D01*
X1407590Y124508D01*
X1408630Y122706D01*
X1409426Y120783D01*
X1409708Y119732D01*
X1398424Y119732D01*
G37*
%LPD*%
%LPC*%
G36*
X1449422Y119732D02*
X1449422Y119732D01*
X1449422Y131016D01*
X1450473Y130734D01*
X1452396Y129938D01*
X1454198Y128898D01*
X1455849Y127631D01*
X1457321Y126159D01*
X1458588Y124508D01*
X1459628Y122706D01*
X1460424Y120783D01*
X1460706Y119732D01*
X1449422Y119732D01*
G37*
%LPD*%
%LPC*%
G36*
X1393344Y1082392D02*
X1393344Y1082392D01*
X1393344Y1093676D01*
X1394395Y1093394D01*
X1396318Y1092598D01*
X1398120Y1091558D01*
X1399771Y1090291D01*
X1401243Y1088819D01*
X1402510Y1087168D01*
X1403550Y1085366D01*
X1404346Y1083443D01*
X1404628Y1082392D01*
X1393344Y1082392D01*
G37*
%LPD*%
%LPC*%
G36*
X1606902Y548794D02*
X1606902Y548794D01*
X1606902Y560078D01*
X1607953Y559796D01*
X1609876Y559000D01*
X1611678Y557960D01*
X1613329Y556693D01*
X1614801Y555221D01*
X1616068Y553570D01*
X1617108Y551768D01*
X1617904Y549845D01*
X1618186Y548794D01*
X1606902Y548794D01*
G37*
%LPD*%
%LPC*%
G36*
X1555904Y548794D02*
X1555904Y548794D01*
X1555904Y560078D01*
X1556955Y559796D01*
X1558878Y559000D01*
X1560680Y557960D01*
X1562331Y556693D01*
X1563803Y555221D01*
X1565070Y553570D01*
X1566110Y551768D01*
X1566906Y549845D01*
X1567188Y548794D01*
X1555904Y548794D01*
G37*
%LPD*%
%LPC*%
G36*
X1139344Y1082392D02*
X1139344Y1082392D01*
X1139344Y1093676D01*
X1140395Y1093394D01*
X1142318Y1092598D01*
X1144120Y1091558D01*
X1145771Y1090291D01*
X1147243Y1088819D01*
X1148510Y1087168D01*
X1149550Y1085366D01*
X1150346Y1083443D01*
X1150628Y1082392D01*
X1139344Y1082392D01*
G37*
%LPD*%
%LPC*%
G36*
X1444342Y1082392D02*
X1444342Y1082392D01*
X1444342Y1093676D01*
X1445393Y1093394D01*
X1447316Y1092598D01*
X1449118Y1091558D01*
X1450769Y1090291D01*
X1452241Y1088819D01*
X1453508Y1087168D01*
X1454548Y1085366D01*
X1455344Y1083443D01*
X1455626Y1082392D01*
X1444342Y1082392D01*
G37*
%LPD*%
%LPC*%
G36*
X1449422Y68734D02*
X1449422Y68734D01*
X1449422Y80018D01*
X1450473Y79736D01*
X1452396Y78940D01*
X1454198Y77900D01*
X1455849Y76633D01*
X1457321Y75161D01*
X1458588Y73510D01*
X1459628Y71708D01*
X1460424Y69785D01*
X1460706Y68734D01*
X1449422Y68734D01*
G37*
%LPD*%
%LPC*%
G36*
X1139344Y1031394D02*
X1139344Y1031394D01*
X1139344Y1042678D01*
X1140395Y1042396D01*
X1142318Y1041600D01*
X1144120Y1040560D01*
X1145771Y1039293D01*
X1147243Y1037821D01*
X1148510Y1036170D01*
X1149550Y1034368D01*
X1150346Y1032445D01*
X1150628Y1031394D01*
X1139344Y1031394D01*
G37*
%LPD*%
%LPC*%
G36*
X1190342Y1031394D02*
X1190342Y1031394D01*
X1190342Y1042678D01*
X1191393Y1042396D01*
X1193316Y1041600D01*
X1195118Y1040560D01*
X1196769Y1039293D01*
X1198241Y1037821D01*
X1199508Y1036170D01*
X1200548Y1034368D01*
X1201344Y1032445D01*
X1201626Y1031394D01*
X1190342Y1031394D01*
G37*
%LPD*%
%LPC*%
G36*
X1393344Y1031394D02*
X1393344Y1031394D01*
X1393344Y1042678D01*
X1394395Y1042396D01*
X1396318Y1041600D01*
X1398120Y1040560D01*
X1399771Y1039293D01*
X1401243Y1037821D01*
X1402510Y1036170D01*
X1403550Y1034368D01*
X1404346Y1032445D01*
X1404628Y1031394D01*
X1393344Y1031394D01*
G37*
%LPD*%
%LPC*%
G36*
X1190342Y1082392D02*
X1190342Y1082392D01*
X1190342Y1093676D01*
X1191393Y1093394D01*
X1193316Y1092598D01*
X1195118Y1091558D01*
X1196769Y1090291D01*
X1198241Y1088819D01*
X1199508Y1087168D01*
X1200548Y1085366D01*
X1201344Y1083443D01*
X1201626Y1082392D01*
X1190342Y1082392D01*
G37*
%LPD*%
%LPC*%
G36*
X1444342Y1031394D02*
X1444342Y1031394D01*
X1444342Y1042678D01*
X1445393Y1042396D01*
X1447316Y1041600D01*
X1449118Y1040560D01*
X1450769Y1039293D01*
X1452241Y1037821D01*
X1453508Y1036170D01*
X1454548Y1034368D01*
X1455344Y1032445D01*
X1455626Y1031394D01*
X1444342Y1031394D01*
G37*
%LPD*%
%LPC*%
G36*
X1144424Y119732D02*
X1144424Y119732D01*
X1144424Y131016D01*
X1145475Y130734D01*
X1147398Y129938D01*
X1149200Y128898D01*
X1150851Y127631D01*
X1152323Y126159D01*
X1153590Y124508D01*
X1154630Y122706D01*
X1155426Y120783D01*
X1155708Y119732D01*
X1144424Y119732D01*
G37*
%LPD*%
%LPC*%
G36*
X1398424Y68734D02*
X1398424Y68734D01*
X1398424Y80018D01*
X1399475Y79736D01*
X1401398Y78940D01*
X1403200Y77900D01*
X1404851Y76633D01*
X1406323Y75161D01*
X1407590Y73510D01*
X1408630Y71708D01*
X1409426Y69785D01*
X1409708Y68734D01*
X1398424Y68734D01*
G37*
%LPD*%
%LPC*%
G36*
X1195422Y68734D02*
X1195422Y68734D01*
X1195422Y80018D01*
X1196473Y79736D01*
X1198396Y78940D01*
X1200198Y77900D01*
X1201849Y76633D01*
X1203321Y75161D01*
X1204588Y73510D01*
X1205628Y71708D01*
X1206424Y69785D01*
X1206706Y68734D01*
X1195422Y68734D01*
G37*
%LPD*%
%LPC*%
G36*
X1144424Y68734D02*
X1144424Y68734D01*
X1144424Y80018D01*
X1145475Y79736D01*
X1147398Y78940D01*
X1149200Y77900D01*
X1150851Y76633D01*
X1152323Y75161D01*
X1153590Y73510D01*
X1154630Y71708D01*
X1155426Y69785D01*
X1155708Y68734D01*
X1144424Y68734D01*
G37*
%LPD*%
%LPC*%
G36*
X1190342Y1074266D02*
X1190342Y1074266D01*
X1201626Y1074266D01*
X1201344Y1073215D01*
X1200548Y1071292D01*
X1199508Y1069490D01*
X1198241Y1067839D01*
X1196769Y1066367D01*
X1195118Y1065100D01*
X1193316Y1064060D01*
X1191393Y1063264D01*
X1190342Y1062982D01*
X1190342Y1074266D01*
G37*
%LPD*%
%LPC*%
G36*
X1393344Y1074266D02*
X1393344Y1074266D01*
X1404628Y1074266D01*
X1404346Y1073215D01*
X1403550Y1071292D01*
X1402510Y1069490D01*
X1401243Y1067839D01*
X1399771Y1066367D01*
X1398120Y1065100D01*
X1396318Y1064060D01*
X1394395Y1063264D01*
X1393344Y1062982D01*
X1393344Y1074266D01*
G37*
%LPD*%
%LPC*%
G36*
X1139344Y1074266D02*
X1139344Y1074266D01*
X1150628Y1074266D01*
X1150346Y1073215D01*
X1149550Y1071292D01*
X1148510Y1069490D01*
X1147243Y1067839D01*
X1145771Y1066367D01*
X1144120Y1065100D01*
X1142318Y1064060D01*
X1140395Y1063264D01*
X1139344Y1062982D01*
X1139344Y1074266D01*
G37*
%LPD*%
%LPC*%
G36*
X1444342Y1074266D02*
X1444342Y1074266D01*
X1455626Y1074266D01*
X1455344Y1073215D01*
X1454548Y1071292D01*
X1453508Y1069490D01*
X1452241Y1067839D01*
X1450769Y1066367D01*
X1449118Y1065100D01*
X1447316Y1064060D01*
X1445393Y1063264D01*
X1444342Y1062982D01*
X1444342Y1074266D01*
G37*
%LPD*%
%LPC*%
G36*
X1587492Y599792D02*
X1587492Y599792D01*
X1587774Y600843D01*
X1588570Y602766D01*
X1589610Y604568D01*
X1590877Y606219D01*
X1592349Y607691D01*
X1594000Y608958D01*
X1595802Y609998D01*
X1597725Y610794D01*
X1598776Y611076D01*
X1598776Y599792D01*
X1587492Y599792D01*
G37*
%LPD*%
%LPC*%
G36*
X1536494Y599792D02*
X1536494Y599792D01*
X1536776Y600843D01*
X1537572Y602766D01*
X1538612Y604568D01*
X1539879Y606219D01*
X1541351Y607691D01*
X1543002Y608958D01*
X1544804Y609998D01*
X1546727Y610794D01*
X1547778Y611076D01*
X1547778Y599792D01*
X1536494Y599792D01*
G37*
%LPD*%
%LPC*%
G36*
X1393344Y1023268D02*
X1393344Y1023268D01*
X1404628Y1023268D01*
X1404346Y1022217D01*
X1403550Y1020294D01*
X1402510Y1018492D01*
X1401243Y1016841D01*
X1399771Y1015369D01*
X1398120Y1014102D01*
X1396318Y1013062D01*
X1394395Y1012266D01*
X1393344Y1011984D01*
X1393344Y1023268D01*
G37*
%LPD*%
%LPC*%
G36*
X1125014Y68734D02*
X1125014Y68734D01*
X1125296Y69785D01*
X1126092Y71708D01*
X1127132Y73510D01*
X1128399Y75161D01*
X1129871Y76633D01*
X1131522Y77900D01*
X1133324Y78940D01*
X1135247Y79736D01*
X1136298Y80018D01*
X1136298Y68734D01*
X1125014Y68734D01*
G37*
%LPD*%
%LPC*%
G36*
X1373934Y1082392D02*
X1373934Y1082392D01*
X1374216Y1083443D01*
X1375012Y1085366D01*
X1376052Y1087168D01*
X1377319Y1088819D01*
X1378791Y1090291D01*
X1380442Y1091558D01*
X1382244Y1092598D01*
X1384167Y1093394D01*
X1385218Y1093676D01*
X1385218Y1082392D01*
X1373934Y1082392D01*
G37*
%LPD*%
%LPC*%
G36*
X1176012Y68734D02*
X1176012Y68734D01*
X1176294Y69785D01*
X1177090Y71708D01*
X1178130Y73510D01*
X1179397Y75161D01*
X1180869Y76633D01*
X1182520Y77900D01*
X1184322Y78940D01*
X1186245Y79736D01*
X1187296Y80018D01*
X1187296Y68734D01*
X1176012Y68734D01*
G37*
%LPD*%
%LPC*%
G36*
X1139344Y1023268D02*
X1139344Y1023268D01*
X1150628Y1023268D01*
X1150346Y1022217D01*
X1149550Y1020294D01*
X1148510Y1018492D01*
X1147243Y1016841D01*
X1145771Y1015369D01*
X1144120Y1014102D01*
X1142318Y1013062D01*
X1140395Y1012266D01*
X1139344Y1011984D01*
X1139344Y1023268D01*
G37*
%LPD*%
%LPC*%
G36*
X1379014Y68734D02*
X1379014Y68734D01*
X1379296Y69785D01*
X1380092Y71708D01*
X1381132Y73510D01*
X1382399Y75161D01*
X1383871Y76633D01*
X1385522Y77900D01*
X1387324Y78940D01*
X1389247Y79736D01*
X1390298Y80018D01*
X1390298Y68734D01*
X1379014Y68734D01*
G37*
%LPD*%
%LPC*%
G36*
X1606902Y591666D02*
X1606902Y591666D01*
X1618186Y591666D01*
X1617904Y590615D01*
X1617108Y588692D01*
X1616068Y586890D01*
X1614801Y585239D01*
X1613329Y583767D01*
X1611678Y582500D01*
X1609876Y581460D01*
X1607953Y580664D01*
X1606902Y580382D01*
X1606902Y591666D01*
G37*
%LPD*%
%LPC*%
G36*
X1119934Y1082392D02*
X1119934Y1082392D01*
X1120216Y1083443D01*
X1121012Y1085366D01*
X1122052Y1087168D01*
X1123319Y1088819D01*
X1124791Y1090291D01*
X1126442Y1091558D01*
X1128244Y1092598D01*
X1130167Y1093394D01*
X1131218Y1093676D01*
X1131218Y1082392D01*
X1119934Y1082392D01*
G37*
%LPD*%
%LPC*%
G36*
X1555904Y591666D02*
X1555904Y591666D01*
X1567188Y591666D01*
X1566906Y590615D01*
X1566110Y588692D01*
X1565070Y586890D01*
X1563803Y585239D01*
X1562331Y583767D01*
X1560680Y582500D01*
X1558878Y581460D01*
X1556955Y580664D01*
X1555904Y580382D01*
X1555904Y591666D01*
G37*
%LPD*%
%LPC*%
G36*
X1444342Y1023268D02*
X1444342Y1023268D01*
X1455626Y1023268D01*
X1455344Y1022217D01*
X1454548Y1020294D01*
X1453508Y1018492D01*
X1452241Y1016841D01*
X1450769Y1015369D01*
X1449118Y1014102D01*
X1447316Y1013062D01*
X1445393Y1012266D01*
X1444342Y1011984D01*
X1444342Y1023268D01*
G37*
%LPD*%
%LPC*%
G36*
X1424932Y1082392D02*
X1424932Y1082392D01*
X1425214Y1083443D01*
X1426010Y1085366D01*
X1427050Y1087168D01*
X1428317Y1088819D01*
X1429789Y1090291D01*
X1431440Y1091558D01*
X1433242Y1092598D01*
X1435165Y1093394D01*
X1436216Y1093676D01*
X1436216Y1082392D01*
X1424932Y1082392D01*
G37*
%LPD*%
%LPC*%
G36*
X1424932Y1031394D02*
X1424932Y1031394D01*
X1425214Y1032445D01*
X1426010Y1034368D01*
X1427050Y1036170D01*
X1428317Y1037821D01*
X1429789Y1039293D01*
X1431440Y1040560D01*
X1433242Y1041600D01*
X1435165Y1042396D01*
X1436216Y1042678D01*
X1436216Y1031394D01*
X1424932Y1031394D01*
G37*
%LPD*%
%LPC*%
G36*
X1144424Y111606D02*
X1144424Y111606D01*
X1155708Y111606D01*
X1155426Y110555D01*
X1154630Y108632D01*
X1153590Y106830D01*
X1152323Y105179D01*
X1150851Y103707D01*
X1149200Y102440D01*
X1147398Y101400D01*
X1145475Y100604D01*
X1144424Y100322D01*
X1144424Y111606D01*
G37*
%LPD*%
%LPC*%
G36*
X1373934Y1031394D02*
X1373934Y1031394D01*
X1374216Y1032445D01*
X1375012Y1034368D01*
X1376052Y1036170D01*
X1377319Y1037821D01*
X1378791Y1039293D01*
X1380442Y1040560D01*
X1382244Y1041600D01*
X1384167Y1042396D01*
X1385218Y1042678D01*
X1385218Y1031394D01*
X1373934Y1031394D01*
G37*
%LPD*%
%LPC*%
G36*
X1195422Y111606D02*
X1195422Y111606D01*
X1206706Y111606D01*
X1206424Y110555D01*
X1205628Y108632D01*
X1204588Y106830D01*
X1203321Y105179D01*
X1201849Y103707D01*
X1200198Y102440D01*
X1198396Y101400D01*
X1196473Y100604D01*
X1195422Y100322D01*
X1195422Y111606D01*
G37*
%LPD*%
%LPC*%
G36*
X1170932Y1031394D02*
X1170932Y1031394D01*
X1171214Y1032445D01*
X1172010Y1034368D01*
X1173050Y1036170D01*
X1174317Y1037821D01*
X1175789Y1039293D01*
X1177440Y1040560D01*
X1179242Y1041600D01*
X1181165Y1042396D01*
X1182216Y1042678D01*
X1182216Y1031394D01*
X1170932Y1031394D01*
G37*
%LPD*%
%LPC*%
G36*
X1190342Y1023268D02*
X1190342Y1023268D01*
X1201626Y1023268D01*
X1201344Y1022217D01*
X1200548Y1020294D01*
X1199508Y1018492D01*
X1198241Y1016841D01*
X1196769Y1015369D01*
X1195118Y1014102D01*
X1193316Y1013062D01*
X1191393Y1012266D01*
X1190342Y1011984D01*
X1190342Y1023268D01*
G37*
%LPD*%
%LPC*%
G36*
X1119934Y1031394D02*
X1119934Y1031394D01*
X1120216Y1032445D01*
X1121012Y1034368D01*
X1122052Y1036170D01*
X1123319Y1037821D01*
X1124791Y1039293D01*
X1126442Y1040560D01*
X1128244Y1041600D01*
X1130167Y1042396D01*
X1131218Y1042678D01*
X1131218Y1031394D01*
X1119934Y1031394D01*
G37*
%LPD*%
%LPC*%
G36*
X1430012Y68734D02*
X1430012Y68734D01*
X1430294Y69785D01*
X1431090Y71708D01*
X1432130Y73510D01*
X1433397Y75161D01*
X1434869Y76633D01*
X1436520Y77900D01*
X1438322Y78940D01*
X1440245Y79736D01*
X1441296Y80018D01*
X1441296Y68734D01*
X1430012Y68734D01*
G37*
%LPD*%
%LPC*%
G36*
X1170932Y1082392D02*
X1170932Y1082392D01*
X1171214Y1083443D01*
X1172010Y1085366D01*
X1173050Y1087168D01*
X1174317Y1088819D01*
X1175789Y1090291D01*
X1177440Y1091558D01*
X1179242Y1092598D01*
X1181165Y1093394D01*
X1182216Y1093676D01*
X1182216Y1082392D01*
X1170932Y1082392D01*
G37*
%LPD*%
%LPC*%
G36*
X1536494Y548794D02*
X1536494Y548794D01*
X1536776Y549845D01*
X1537572Y551768D01*
X1538612Y553570D01*
X1539879Y555221D01*
X1541351Y556693D01*
X1543002Y557960D01*
X1544804Y559000D01*
X1546727Y559796D01*
X1547778Y560078D01*
X1547778Y548794D01*
X1536494Y548794D01*
G37*
%LPD*%
%LPC*%
G36*
X1398424Y60608D02*
X1398424Y60608D01*
X1409708Y60608D01*
X1409426Y59557D01*
X1408630Y57634D01*
X1407590Y55832D01*
X1406323Y54181D01*
X1404851Y52709D01*
X1403200Y51442D01*
X1401398Y50402D01*
X1399475Y49606D01*
X1398424Y49324D01*
X1398424Y60608D01*
G37*
%LPD*%
%LPC*%
G36*
X1587492Y548794D02*
X1587492Y548794D01*
X1587774Y549845D01*
X1588570Y551768D01*
X1589610Y553570D01*
X1590877Y555221D01*
X1592349Y556693D01*
X1594000Y557960D01*
X1595802Y559000D01*
X1597725Y559796D01*
X1598776Y560078D01*
X1598776Y548794D01*
X1587492Y548794D01*
G37*
%LPD*%
%LPC*%
G36*
X1398424Y111606D02*
X1398424Y111606D01*
X1409708Y111606D01*
X1409426Y110555D01*
X1408630Y108632D01*
X1407590Y106830D01*
X1406323Y105179D01*
X1404851Y103707D01*
X1403200Y102440D01*
X1401398Y101400D01*
X1399475Y100604D01*
X1398424Y100322D01*
X1398424Y111606D01*
G37*
%LPD*%
%LPC*%
G36*
X1449422Y111606D02*
X1449422Y111606D01*
X1460706Y111606D01*
X1460424Y110555D01*
X1459628Y108632D01*
X1458588Y106830D01*
X1457321Y105179D01*
X1455849Y103707D01*
X1454198Y102440D01*
X1452396Y101400D01*
X1450473Y100604D01*
X1449422Y100322D01*
X1449422Y111606D01*
G37*
%LPD*%
%LPC*%
G36*
X1195422Y60608D02*
X1195422Y60608D01*
X1206706Y60608D01*
X1206424Y59557D01*
X1205628Y57634D01*
X1204588Y55832D01*
X1203321Y54181D01*
X1201849Y52709D01*
X1200198Y51442D01*
X1198396Y50402D01*
X1196473Y49606D01*
X1195422Y49324D01*
X1195422Y60608D01*
G37*
%LPD*%
%LPC*%
G36*
X1449422Y60608D02*
X1449422Y60608D01*
X1460706Y60608D01*
X1460424Y59557D01*
X1459628Y57634D01*
X1458588Y55832D01*
X1457321Y54181D01*
X1455849Y52709D01*
X1454198Y51442D01*
X1452396Y50402D01*
X1450473Y49606D01*
X1449422Y49324D01*
X1449422Y60608D01*
G37*
%LPD*%
%LPC*%
G36*
X1379014Y119732D02*
X1379014Y119732D01*
X1379296Y120783D01*
X1380092Y122706D01*
X1381132Y124508D01*
X1382399Y126159D01*
X1383871Y127631D01*
X1385522Y128898D01*
X1387324Y129938D01*
X1389247Y130734D01*
X1390298Y131016D01*
X1390298Y119732D01*
X1379014Y119732D01*
G37*
%LPD*%
%LPC*%
G36*
X1606902Y540668D02*
X1606902Y540668D01*
X1618186Y540668D01*
X1617904Y539617D01*
X1617108Y537694D01*
X1616068Y535892D01*
X1614801Y534241D01*
X1613329Y532769D01*
X1611678Y531502D01*
X1609876Y530462D01*
X1607953Y529666D01*
X1606902Y529384D01*
X1606902Y540668D01*
G37*
%LPD*%
%LPC*%
G36*
X1144424Y60608D02*
X1144424Y60608D01*
X1155708Y60608D01*
X1155426Y59557D01*
X1154630Y57634D01*
X1153590Y55832D01*
X1152323Y54181D01*
X1150851Y52709D01*
X1149200Y51442D01*
X1147398Y50402D01*
X1145475Y49606D01*
X1144424Y49324D01*
X1144424Y60608D01*
G37*
%LPD*%
%LPC*%
G36*
X1555904Y540668D02*
X1555904Y540668D01*
X1567188Y540668D01*
X1566906Y539617D01*
X1566110Y537694D01*
X1565070Y535892D01*
X1563803Y534241D01*
X1562331Y532769D01*
X1560680Y531502D01*
X1558878Y530462D01*
X1556955Y529666D01*
X1555904Y529384D01*
X1555904Y540668D01*
G37*
%LPD*%
%LPC*%
G36*
X1176012Y119732D02*
X1176012Y119732D01*
X1176294Y120783D01*
X1177090Y122706D01*
X1178130Y124508D01*
X1179397Y126159D01*
X1180869Y127631D01*
X1182520Y128898D01*
X1184322Y129938D01*
X1186245Y130734D01*
X1187296Y131016D01*
X1187296Y119732D01*
X1176012Y119732D01*
G37*
%LPD*%
%LPC*%
G36*
X1125014Y119732D02*
X1125014Y119732D01*
X1125296Y120783D01*
X1126092Y122706D01*
X1127132Y124508D01*
X1128399Y126159D01*
X1129871Y127631D01*
X1131522Y128898D01*
X1133324Y129938D01*
X1135247Y130734D01*
X1136298Y131016D01*
X1136298Y119732D01*
X1125014Y119732D01*
G37*
%LPD*%
%LPC*%
G36*
X1430012Y119732D02*
X1430012Y119732D01*
X1430294Y120783D01*
X1431090Y122706D01*
X1432130Y124508D01*
X1433397Y126159D01*
X1434869Y127631D01*
X1436520Y128898D01*
X1438322Y129938D01*
X1440245Y130734D01*
X1441296Y131016D01*
X1441296Y119732D01*
X1430012Y119732D01*
G37*
%LPD*%
%LPC*%
G36*
X1181165Y1063264D02*
X1181165Y1063264D01*
X1179242Y1064060D01*
X1177440Y1065100D01*
X1175789Y1066367D01*
X1174317Y1067839D01*
X1173050Y1069490D01*
X1172010Y1071292D01*
X1171214Y1073215D01*
X1170932Y1074266D01*
X1182216Y1074266D01*
X1182216Y1062982D01*
X1181165Y1063264D01*
G37*
%LPD*%
%LPC*%
G36*
X1435165Y1063264D02*
X1435165Y1063264D01*
X1433242Y1064060D01*
X1431440Y1065100D01*
X1429789Y1066367D01*
X1428317Y1067839D01*
X1427050Y1069490D01*
X1426010Y1071292D01*
X1425214Y1073215D01*
X1424932Y1074266D01*
X1436216Y1074266D01*
X1436216Y1062982D01*
X1435165Y1063264D01*
G37*
%LPD*%
%LPC*%
G36*
X1384167Y1063264D02*
X1384167Y1063264D01*
X1382244Y1064060D01*
X1380442Y1065100D01*
X1378791Y1066367D01*
X1377319Y1067839D01*
X1376052Y1069490D01*
X1375012Y1071292D01*
X1374216Y1073215D01*
X1373934Y1074266D01*
X1385218Y1074266D01*
X1385218Y1062982D01*
X1384167Y1063264D01*
G37*
%LPD*%
%LPC*%
G36*
X1130167Y1063264D02*
X1130167Y1063264D01*
X1128244Y1064060D01*
X1126442Y1065100D01*
X1124791Y1066367D01*
X1123319Y1067839D01*
X1122052Y1069490D01*
X1121012Y1071292D01*
X1120216Y1073215D01*
X1119934Y1074266D01*
X1131218Y1074266D01*
X1131218Y1062982D01*
X1130167Y1063264D01*
G37*
%LPD*%
%LPC*%
G36*
X1546727Y529666D02*
X1546727Y529666D01*
X1544804Y530462D01*
X1543002Y531502D01*
X1541351Y532769D01*
X1539879Y534241D01*
X1538612Y535892D01*
X1537572Y537694D01*
X1536776Y539617D01*
X1536494Y540668D01*
X1547778Y540668D01*
X1547778Y529384D01*
X1546727Y529666D01*
G37*
%LPD*%
%LPC*%
G36*
X1597725Y529666D02*
X1597725Y529666D01*
X1595802Y530462D01*
X1594000Y531502D01*
X1592349Y532769D01*
X1590877Y534241D01*
X1589610Y535892D01*
X1588570Y537694D01*
X1587774Y539617D01*
X1587492Y540668D01*
X1598776Y540668D01*
X1598776Y529384D01*
X1597725Y529666D01*
G37*
%LPD*%
%LPC*%
G36*
X1389247Y49606D02*
X1389247Y49606D01*
X1387324Y50402D01*
X1385522Y51442D01*
X1383871Y52709D01*
X1382399Y54181D01*
X1381132Y55832D01*
X1380092Y57634D01*
X1379296Y59557D01*
X1379014Y60608D01*
X1390298Y60608D01*
X1390298Y49324D01*
X1389247Y49606D01*
G37*
%LPD*%
%LPC*%
G36*
X1440245Y49606D02*
X1440245Y49606D01*
X1438322Y50402D01*
X1436520Y51442D01*
X1434869Y52709D01*
X1433397Y54181D01*
X1432130Y55832D01*
X1431090Y57634D01*
X1430294Y59557D01*
X1430012Y60608D01*
X1441296Y60608D01*
X1441296Y49324D01*
X1440245Y49606D01*
G37*
%LPD*%
%LPC*%
G36*
X1546727Y580664D02*
X1546727Y580664D01*
X1544804Y581460D01*
X1543002Y582500D01*
X1541351Y583767D01*
X1539879Y585239D01*
X1538612Y586890D01*
X1537572Y588692D01*
X1536776Y590615D01*
X1536494Y591666D01*
X1547778Y591666D01*
X1547778Y580382D01*
X1546727Y580664D01*
G37*
%LPD*%
%LPC*%
G36*
X1597725Y580664D02*
X1597725Y580664D01*
X1595802Y581460D01*
X1594000Y582500D01*
X1592349Y583767D01*
X1590877Y585239D01*
X1589610Y586890D01*
X1588570Y588692D01*
X1587774Y590615D01*
X1587492Y591666D01*
X1598776Y591666D01*
X1598776Y580382D01*
X1597725Y580664D01*
G37*
%LPD*%
%LPC*%
G36*
X1440245Y100604D02*
X1440245Y100604D01*
X1438322Y101400D01*
X1436520Y102440D01*
X1434869Y103707D01*
X1433397Y105179D01*
X1432130Y106830D01*
X1431090Y108632D01*
X1430294Y110555D01*
X1430012Y111606D01*
X1441296Y111606D01*
X1441296Y100322D01*
X1440245Y100604D01*
G37*
%LPD*%
%LPC*%
G36*
X1135247Y49606D02*
X1135247Y49606D01*
X1133324Y50402D01*
X1131522Y51442D01*
X1129871Y52709D01*
X1128399Y54181D01*
X1127132Y55832D01*
X1126092Y57634D01*
X1125296Y59557D01*
X1125014Y60608D01*
X1136298Y60608D01*
X1136298Y49324D01*
X1135247Y49606D01*
G37*
%LPD*%
%LPC*%
G36*
X1389247Y100604D02*
X1389247Y100604D01*
X1387324Y101400D01*
X1385522Y102440D01*
X1383871Y103707D01*
X1382399Y105179D01*
X1381132Y106830D01*
X1380092Y108632D01*
X1379296Y110555D01*
X1379014Y111606D01*
X1390298Y111606D01*
X1390298Y100322D01*
X1389247Y100604D01*
G37*
%LPD*%
%LPC*%
G36*
X1181165Y1012266D02*
X1181165Y1012266D01*
X1179242Y1013062D01*
X1177440Y1014102D01*
X1175789Y1015369D01*
X1174317Y1016841D01*
X1173050Y1018492D01*
X1172010Y1020294D01*
X1171214Y1022217D01*
X1170932Y1023268D01*
X1182216Y1023268D01*
X1182216Y1011984D01*
X1181165Y1012266D01*
G37*
%LPD*%
%LPC*%
G36*
X1435165Y1012266D02*
X1435165Y1012266D01*
X1433242Y1013062D01*
X1431440Y1014102D01*
X1429789Y1015369D01*
X1428317Y1016841D01*
X1427050Y1018492D01*
X1426010Y1020294D01*
X1425214Y1022217D01*
X1424932Y1023268D01*
X1436216Y1023268D01*
X1436216Y1011984D01*
X1435165Y1012266D01*
G37*
%LPD*%
%LPC*%
G36*
X1135247Y100604D02*
X1135247Y100604D01*
X1133324Y101400D01*
X1131522Y102440D01*
X1129871Y103707D01*
X1128399Y105179D01*
X1127132Y106830D01*
X1126092Y108632D01*
X1125296Y110555D01*
X1125014Y111606D01*
X1136298Y111606D01*
X1136298Y100322D01*
X1135247Y100604D01*
G37*
%LPD*%
%LPC*%
G36*
X1130167Y1012266D02*
X1130167Y1012266D01*
X1128244Y1013062D01*
X1126442Y1014102D01*
X1124791Y1015369D01*
X1123319Y1016841D01*
X1122052Y1018492D01*
X1121012Y1020294D01*
X1120216Y1022217D01*
X1119934Y1023268D01*
X1131218Y1023268D01*
X1131218Y1011984D01*
X1130167Y1012266D01*
G37*
%LPD*%
%LPC*%
G36*
X1186245Y100604D02*
X1186245Y100604D01*
X1184322Y101400D01*
X1182520Y102440D01*
X1180869Y103707D01*
X1179397Y105179D01*
X1178130Y106830D01*
X1177090Y108632D01*
X1176294Y110555D01*
X1176012Y111606D01*
X1187296Y111606D01*
X1187296Y100322D01*
X1186245Y100604D01*
G37*
%LPD*%
%LPC*%
G36*
X1186245Y49606D02*
X1186245Y49606D01*
X1184322Y50402D01*
X1182520Y51442D01*
X1180869Y52709D01*
X1179397Y54181D01*
X1178130Y55832D01*
X1177090Y57634D01*
X1176294Y59557D01*
X1176012Y60608D01*
X1187296Y60608D01*
X1187296Y49324D01*
X1186245Y49606D01*
G37*
%LPD*%
%LPC*%
G36*
X1384167Y1012266D02*
X1384167Y1012266D01*
X1382244Y1013062D01*
X1380442Y1014102D01*
X1378791Y1015369D01*
X1377319Y1016841D01*
X1376052Y1018492D01*
X1375012Y1020294D01*
X1374216Y1022217D01*
X1373934Y1023268D01*
X1385218Y1023268D01*
X1385218Y1011984D01*
X1384167Y1012266D01*
G37*
%LPD*%
%LPC*%
G36*
X154899Y713699D02*
X154899Y713699D01*
X154899Y720987D01*
X156270Y720542D01*
X157684Y719822D01*
X158967Y718889D01*
X160089Y717767D01*
X161022Y716484D01*
X161742Y715070D01*
X162187Y713699D01*
X154899Y713699D01*
G37*
%LPD*%
%LPC*%
G36*
X859749Y1040597D02*
X859749Y1040597D01*
X859749Y1047885D01*
X861120Y1047440D01*
X862534Y1046720D01*
X863817Y1045787D01*
X864939Y1044665D01*
X865872Y1043382D01*
X866592Y1041968D01*
X867037Y1040597D01*
X859749Y1040597D01*
G37*
%LPD*%
%LPC*%
G36*
X586699Y739099D02*
X586699Y739099D01*
X586699Y746387D01*
X588070Y745942D01*
X589484Y745222D01*
X590767Y744289D01*
X591889Y743167D01*
X592822Y741884D01*
X593542Y740470D01*
X593987Y739099D01*
X586699Y739099D01*
G37*
%LPD*%
%LPC*%
G36*
X732749Y429219D02*
X732749Y429219D01*
X732749Y436507D01*
X734120Y436062D01*
X735534Y435342D01*
X736817Y434409D01*
X737939Y433287D01*
X738872Y432004D01*
X739592Y430590D01*
X740037Y429219D01*
X732749Y429219D01*
G37*
%LPD*%
%LPC*%
G36*
X1583141Y772119D02*
X1583141Y772119D01*
X1583141Y779407D01*
X1584512Y778962D01*
X1585926Y778242D01*
X1587209Y777309D01*
X1588331Y776187D01*
X1589264Y774904D01*
X1589984Y773490D01*
X1590429Y772119D01*
X1583141Y772119D01*
G37*
%LPD*%
%LPC*%
G36*
X1583141Y767121D02*
X1583141Y767121D01*
X1590429Y767121D01*
X1589984Y765750D01*
X1589264Y764336D01*
X1588331Y763053D01*
X1587209Y761931D01*
X1585926Y760998D01*
X1584512Y760278D01*
X1583141Y759833D01*
X1583141Y767121D01*
G37*
%LPD*%
%LPC*%
G36*
X142613Y713699D02*
X142613Y713699D01*
X143058Y715070D01*
X143778Y716484D01*
X144711Y717767D01*
X145833Y718889D01*
X147116Y719822D01*
X148530Y720542D01*
X149901Y720987D01*
X149901Y713699D01*
X142613Y713699D01*
G37*
%LPD*%
%LPC*%
G36*
X720463Y429219D02*
X720463Y429219D01*
X720908Y430590D01*
X721628Y432004D01*
X722561Y433287D01*
X723683Y434409D01*
X724966Y435342D01*
X726380Y436062D01*
X727751Y436507D01*
X727751Y429219D01*
X720463Y429219D01*
G37*
%LPD*%
%LPC*%
G36*
X732749Y424221D02*
X732749Y424221D01*
X740037Y424221D01*
X739592Y422850D01*
X738872Y421436D01*
X737939Y420153D01*
X736817Y419031D01*
X735534Y418098D01*
X734120Y417378D01*
X732749Y416933D01*
X732749Y424221D01*
G37*
%LPD*%
%LPC*%
G36*
X847463Y1040597D02*
X847463Y1040597D01*
X847908Y1041968D01*
X848628Y1043382D01*
X849561Y1044665D01*
X850683Y1045787D01*
X851966Y1046720D01*
X853380Y1047440D01*
X854751Y1047885D01*
X854751Y1040597D01*
X847463Y1040597D01*
G37*
%LPD*%
%LPC*%
G36*
X859749Y1035599D02*
X859749Y1035599D01*
X867037Y1035599D01*
X866592Y1034228D01*
X865872Y1032814D01*
X864939Y1031531D01*
X863817Y1030409D01*
X862534Y1029476D01*
X861120Y1028756D01*
X859749Y1028311D01*
X859749Y1035599D01*
G37*
%LPD*%
%LPC*%
G36*
X574413Y739099D02*
X574413Y739099D01*
X574858Y740470D01*
X575578Y741884D01*
X576511Y743167D01*
X577633Y744289D01*
X578916Y745222D01*
X580330Y745942D01*
X581701Y746387D01*
X581701Y739099D01*
X574413Y739099D01*
G37*
%LPD*%
%LPC*%
G36*
X1570855Y772119D02*
X1570855Y772119D01*
X1571300Y773490D01*
X1572020Y774904D01*
X1572953Y776187D01*
X1574075Y777309D01*
X1575358Y778242D01*
X1576772Y778962D01*
X1578143Y779407D01*
X1578143Y772119D01*
X1570855Y772119D01*
G37*
%LPD*%
%LPC*%
G36*
X586699Y734101D02*
X586699Y734101D01*
X593987Y734101D01*
X593542Y732730D01*
X592822Y731316D01*
X591889Y730033D01*
X590767Y728911D01*
X589484Y727978D01*
X588070Y727258D01*
X586699Y726813D01*
X586699Y734101D01*
G37*
%LPD*%
%LPC*%
G36*
X154899Y708701D02*
X154899Y708701D01*
X162187Y708701D01*
X161742Y707330D01*
X161022Y705916D01*
X160089Y704633D01*
X158967Y703511D01*
X157684Y702578D01*
X156270Y701858D01*
X154899Y701413D01*
X154899Y708701D01*
G37*
%LPD*%
%LPC*%
G36*
X580330Y727258D02*
X580330Y727258D01*
X578916Y727978D01*
X577633Y728911D01*
X576511Y730033D01*
X575578Y731316D01*
X574858Y732730D01*
X574413Y734101D01*
X581701Y734101D01*
X581701Y726813D01*
X580330Y727258D01*
G37*
%LPD*%
%LPC*%
G36*
X148530Y701858D02*
X148530Y701858D01*
X147116Y702578D01*
X145833Y703511D01*
X144711Y704633D01*
X143778Y705916D01*
X143058Y707330D01*
X142613Y708701D01*
X149901Y708701D01*
X149901Y701413D01*
X148530Y701858D01*
G37*
%LPD*%
%LPC*%
G36*
X1576772Y760278D02*
X1576772Y760278D01*
X1575358Y760998D01*
X1574075Y761931D01*
X1572953Y763053D01*
X1572020Y764336D01*
X1571300Y765750D01*
X1570855Y767121D01*
X1578143Y767121D01*
X1578143Y759833D01*
X1576772Y760278D01*
G37*
%LPD*%
%LPC*%
G36*
X853380Y1028756D02*
X853380Y1028756D01*
X851966Y1029476D01*
X850683Y1030409D01*
X849561Y1031531D01*
X848628Y1032814D01*
X847908Y1034228D01*
X847463Y1035599D01*
X854751Y1035599D01*
X854751Y1028311D01*
X853380Y1028756D01*
G37*
%LPD*%
%LPC*%
G36*
X726380Y417378D02*
X726380Y417378D01*
X724966Y418098D01*
X723683Y419031D01*
X722561Y420153D01*
X721628Y421436D01*
X720908Y422850D01*
X720463Y424221D01*
X727751Y424221D01*
X727751Y416933D01*
X726380Y417378D01*
G37*
%LPD*%
%LPC*%
G36*
X1389280Y1027330D02*
X1389280Y1027330D01*
X1389280Y1027332D01*
X1389282Y1027332D01*
X1389282Y1027330D01*
X1389280Y1027330D01*
G37*
%LPD*%
%LPC*%
G36*
X1440278Y1027330D02*
X1440278Y1027330D01*
X1440278Y1027332D01*
X1440280Y1027332D01*
X1440280Y1027330D01*
X1440278Y1027330D01*
G37*
%LPD*%
%LPC*%
G36*
X1135280Y1027330D02*
X1135280Y1027330D01*
X1135280Y1027332D01*
X1135282Y1027332D01*
X1135282Y1027330D01*
X1135280Y1027330D01*
G37*
%LPD*%
%LPC*%
G36*
X1191358Y115668D02*
X1191358Y115668D01*
X1191358Y115670D01*
X1191360Y115670D01*
X1191360Y115668D01*
X1191358Y115668D01*
G37*
%LPD*%
%LPC*%
G36*
X1551840Y595728D02*
X1551840Y595728D01*
X1551840Y595730D01*
X1551842Y595730D01*
X1551842Y595728D01*
X1551840Y595728D01*
G37*
%LPD*%
%LPC*%
G36*
X1602838Y595728D02*
X1602838Y595728D01*
X1602838Y595730D01*
X1602840Y595730D01*
X1602840Y595728D01*
X1602838Y595728D01*
G37*
%LPD*%
%LPC*%
G36*
X1394360Y115668D02*
X1394360Y115668D01*
X1394360Y115670D01*
X1394362Y115670D01*
X1394362Y115668D01*
X1394360Y115668D01*
G37*
%LPD*%
%LPC*%
G36*
X1445358Y115668D02*
X1445358Y115668D01*
X1445358Y115670D01*
X1445360Y115670D01*
X1445360Y115668D01*
X1445358Y115668D01*
G37*
%LPD*%
%LPC*%
G36*
X1191358Y64670D02*
X1191358Y64670D01*
X1191358Y64672D01*
X1191360Y64672D01*
X1191360Y64670D01*
X1191358Y64670D01*
G37*
%LPD*%
%LPC*%
G36*
X1140360Y64670D02*
X1140360Y64670D01*
X1140360Y64672D01*
X1140362Y64672D01*
X1140362Y64670D01*
X1140360Y64670D01*
G37*
%LPD*%
%LPC*%
G36*
X1445358Y64670D02*
X1445358Y64670D01*
X1445358Y64672D01*
X1445360Y64672D01*
X1445360Y64670D01*
X1445358Y64670D01*
G37*
%LPD*%
%LPC*%
G36*
X1394360Y64670D02*
X1394360Y64670D01*
X1394360Y64672D01*
X1394362Y64672D01*
X1394362Y64670D01*
X1394360Y64670D01*
G37*
%LPD*%
%LPC*%
G36*
X1135280Y1078328D02*
X1135280Y1078328D01*
X1135280Y1078330D01*
X1135282Y1078330D01*
X1135282Y1078328D01*
X1135280Y1078328D01*
G37*
%LPD*%
%LPC*%
G36*
X1140360Y115668D02*
X1140360Y115668D01*
X1140360Y115670D01*
X1140362Y115670D01*
X1140362Y115668D01*
X1140360Y115668D01*
G37*
%LPD*%
%LPC*%
G36*
X1186278Y1078328D02*
X1186278Y1078328D01*
X1186278Y1078330D01*
X1186280Y1078330D01*
X1186280Y1078328D01*
X1186278Y1078328D01*
G37*
%LPD*%
%LPC*%
G36*
X1602838Y544730D02*
X1602838Y544730D01*
X1602838Y544732D01*
X1602840Y544732D01*
X1602840Y544730D01*
X1602838Y544730D01*
G37*
%LPD*%
%LPC*%
G36*
X1389280Y1078328D02*
X1389280Y1078328D01*
X1389280Y1078330D01*
X1389282Y1078330D01*
X1389282Y1078328D01*
X1389280Y1078328D01*
G37*
%LPD*%
%LPC*%
G36*
X1551840Y544730D02*
X1551840Y544730D01*
X1551840Y544732D01*
X1551842Y544732D01*
X1551842Y544730D01*
X1551840Y544730D01*
G37*
%LPD*%
%LPC*%
G36*
X1440278Y1078328D02*
X1440278Y1078328D01*
X1440278Y1078330D01*
X1440280Y1078330D01*
X1440280Y1078328D01*
X1440278Y1078328D01*
G37*
%LPD*%
%LPC*%
G36*
X1186278Y1027330D02*
X1186278Y1027330D01*
X1186278Y1027332D01*
X1186280Y1027332D01*
X1186280Y1027330D01*
X1186278Y1027330D01*
G37*
%LPD*%
D10*
X12700Y266700D02*
X-139700Y266700D01*
D11*
X15875Y266700D03*
D10*
X12700Y292100D02*
X-139700Y292100D01*
D11*
X15875Y292100D03*
D10*
X12700Y317500D02*
X-139700Y317500D01*
D11*
X15875Y317500D03*
D10*
X12700Y342900D02*
X-139700Y342900D01*
D11*
X15875Y342900D03*
D10*
X12700Y368300D02*
X-139700Y368300D01*
D11*
X15875Y368300D03*
D10*
X12700Y393700D02*
X-139700Y393700D01*
D11*
X15875Y393700D03*
D10*
X12700Y419100D02*
X-139700Y419100D01*
D11*
X15875Y419100D03*
D10*
X12700Y444500D02*
X-139700Y444500D01*
D11*
X15875Y444500D03*
D10*
X12700Y469900D02*
X-139700Y469900D01*
D11*
X15875Y469900D03*
D10*
X12700Y495300D02*
X-139700Y495300D01*
D11*
X15875Y495300D03*
D10*
X12700Y520700D02*
X-139700Y520700D01*
D11*
X15875Y520700D03*
D10*
X12700Y546100D02*
X-139700Y546100D01*
D11*
X15875Y546100D03*
D10*
X12700Y571500D02*
X-139700Y571500D01*
D11*
X15875Y571500D03*
D10*
X12700Y596900D02*
X-139700Y596900D01*
D11*
X15875Y596900D03*
D10*
X12700Y622300D02*
X-139700Y622300D01*
D11*
X15875Y622300D03*
D10*
X12700Y647700D02*
X-139700Y647700D01*
D11*
X15875Y647700D03*
D10*
X12700Y673100D02*
X-139700Y673100D01*
D11*
X15875Y673100D03*
D10*
X12700Y698500D02*
X-139700Y698500D01*
D11*
X15875Y698500D03*
D10*
X12700Y723900D02*
X-139700Y723900D01*
D11*
X15875Y723900D03*
D10*
X12700Y749300D02*
X-139700Y749300D01*
D11*
X15875Y749300D03*
D10*
X12700Y774700D02*
X-139700Y774700D01*
D11*
X15875Y774700D03*
D10*
X12700Y800100D02*
X-139700Y800100D01*
D11*
X15875Y800100D03*
D10*
X12700Y825500D02*
X-139700Y825500D01*
D11*
X15875Y825500D03*
D10*
X12700Y850900D02*
X-139700Y850900D01*
D11*
X15875Y850900D03*
D10*
X12700Y876300D02*
X-139700Y876300D01*
D11*
X15875Y876300D03*
D12*
X584200Y711200D03*
X609600Y711200D03*
X584200Y736600D03*
X609600Y736600D03*
X584200Y762000D03*
X609600Y762000D03*
X584200Y787400D03*
X609600Y787400D03*
X584200Y812800D03*
X609600Y812800D03*
X584200Y838200D03*
X609600Y838200D03*
X584200Y863600D03*
X609600Y863600D03*
X584200Y889000D03*
X609600Y889000D03*
X584200Y914400D03*
X609600Y914400D03*
X584200Y939800D03*
X609600Y939800D03*
X152400Y711200D03*
X177800Y711200D03*
X152400Y736600D03*
X177800Y736600D03*
X152400Y762000D03*
X177800Y762000D03*
X152400Y787400D03*
X177800Y787400D03*
X152400Y812800D03*
X177800Y812800D03*
X152400Y838200D03*
X177800Y838200D03*
X152400Y863600D03*
X177800Y863600D03*
X152400Y889000D03*
X177800Y889000D03*
X152400Y914400D03*
X177800Y914400D03*
X152400Y939800D03*
X177800Y939800D03*
D13*
X1577340Y570230D03*
D14*
X1551841Y595729D03*
X1602839Y595729D03*
X1602839Y544731D03*
X1551841Y544731D03*
D13*
X1165860Y90170D03*
D14*
X1140361Y115669D03*
X1191359Y115669D03*
X1191359Y64671D03*
X1140361Y64671D03*
D13*
X1419860Y90170D03*
D14*
X1394361Y115669D03*
X1445359Y115669D03*
X1445359Y64671D03*
X1394361Y64671D03*
D13*
X1414780Y1052830D03*
D14*
X1389281Y1078329D03*
X1440279Y1078329D03*
X1440279Y1027331D03*
X1389281Y1027331D03*
D13*
X1160780Y1052830D03*
D14*
X1135281Y1078329D03*
X1186279Y1078329D03*
X1186279Y1027331D03*
X1135281Y1027331D03*
D12*
X1580642Y718820D03*
X1580642Y744220D03*
X1580642Y769620D03*
X857250Y1088898D03*
X857250Y1063498D03*
X857250Y1038098D03*
X704850Y426720D03*
X730250Y426720D03*
D15*
X154940Y194310D03*
X384810Y194310D03*
X510540Y194310D03*
X120650Y127000D03*
X350520Y127000D03*
D16*
X332740Y386080D03*
X83820Y368300D03*
X40640Y762000D03*
X278130Y194310D03*
D17*
X1404620Y481330D03*
X1554480Y1076960D03*
X1554480Y828040D03*
X1408430Y521970D03*
X1334770Y613410D03*
X1383030Y624840D03*
X1353820Y688340D03*
X1203960Y665480D03*
X1367790Y492760D03*
X1210310Y481330D03*
X1306830Y472440D03*
X1322070Y487680D03*
X1141730Y571500D03*
X854710Y930910D03*
X834390Y487680D03*
D18*
X822960Y1038860D03*
D17*
X811530Y759460D03*
X990600Y695960D03*
X991870Y406400D03*
D15*
X187960Y444500D03*
X187960Y469900D03*
X187960Y495300D03*
X187960Y520700D03*
D17*
X1097280Y1117600D03*
X1224280Y1117600D03*
X1112520Y1117600D03*
X1127760Y1117600D03*
X1209040Y1117600D03*
X1193800Y1117600D03*
X1178560Y1117600D03*
X1143000Y1117600D03*
X1168400Y1117600D03*
X1153160Y1117600D03*
X1097280Y1102360D03*
X1097280Y1087120D03*
X1097280Y1071880D03*
X1097280Y1056640D03*
X1097280Y1041400D03*
X1097280Y1026160D03*
X1224280Y1102360D03*
X1224280Y1087120D03*
X1224280Y1071880D03*
X1224280Y1056640D03*
X1224280Y1041400D03*
X1224280Y1026160D03*
X1097280Y1010920D03*
X1224280Y1010920D03*
X1097280Y995680D03*
X1224280Y995680D03*
X1097280Y980440D03*
X1097280Y965200D03*
X1097280Y949960D03*
X1097280Y934720D03*
X1097280Y919480D03*
X1097280Y904240D03*
X1097280Y889000D03*
X1097280Y873760D03*
X1097280Y858520D03*
X1224280Y980440D03*
X1224280Y965200D03*
X1224280Y949960D03*
X1224280Y934720D03*
X1224280Y919480D03*
X1224280Y904240D03*
X1224280Y889000D03*
X1224280Y873760D03*
X1224280Y858520D03*
X1351280Y1117600D03*
X1478280Y1117600D03*
X1366520Y1117600D03*
X1381760Y1117600D03*
X1463040Y1117600D03*
X1447800Y1117600D03*
X1432560Y1117600D03*
X1397000Y1117600D03*
X1422400Y1117600D03*
X1407160Y1117600D03*
X1351280Y1102360D03*
X1351280Y1087120D03*
X1351280Y1071880D03*
X1351280Y1056640D03*
X1351280Y1041400D03*
X1351280Y1026160D03*
X1478280Y1102360D03*
X1478280Y1087120D03*
X1478280Y1071880D03*
X1478280Y1056640D03*
X1478280Y1041400D03*
X1478280Y1026160D03*
X1351280Y1010920D03*
X1478280Y1010920D03*
X1351280Y995680D03*
X1478280Y995680D03*
X1351280Y980440D03*
X1351280Y965200D03*
X1351280Y949960D03*
X1351280Y934720D03*
X1351280Y919480D03*
X1351280Y904240D03*
X1351280Y889000D03*
X1351280Y873760D03*
X1351280Y858520D03*
X1478280Y980440D03*
X1478280Y965200D03*
X1478280Y949960D03*
X1478280Y934720D03*
X1478280Y919480D03*
X1478280Y904240D03*
X1478280Y889000D03*
X1478280Y873760D03*
X1478280Y858520D03*
X1483360Y25400D03*
X1356360Y25400D03*
X1468120Y25400D03*
X1452880Y25400D03*
X1371600Y25400D03*
X1386840Y25400D03*
X1402080Y25400D03*
X1437640Y25400D03*
X1412240Y25400D03*
X1427480Y25400D03*
X1483360Y40640D03*
X1483360Y55880D03*
X1483360Y71120D03*
X1483360Y86360D03*
X1483360Y101600D03*
X1483360Y116840D03*
X1356360Y40640D03*
X1356360Y55880D03*
X1356360Y71120D03*
X1356360Y86360D03*
X1356360Y101600D03*
X1356360Y116840D03*
X1483360Y132080D03*
X1356360Y132080D03*
X1483360Y147320D03*
X1356360Y147320D03*
X1483360Y162560D03*
X1483360Y177800D03*
X1483360Y193040D03*
X1483360Y208280D03*
X1483360Y223520D03*
X1483360Y238760D03*
X1483360Y254000D03*
X1483360Y269240D03*
X1483360Y284480D03*
X1356360Y162560D03*
X1356360Y177800D03*
X1356360Y193040D03*
X1356360Y208280D03*
X1356360Y223520D03*
X1356360Y238760D03*
X1356360Y254000D03*
X1356360Y269240D03*
X1356360Y284480D03*
X1229360Y25400D03*
X1102360Y25400D03*
X1214120Y25400D03*
X1198880Y25400D03*
X1117600Y25400D03*
X1132840Y25400D03*
X1148080Y25400D03*
X1183640Y25400D03*
X1158240Y25400D03*
X1173480Y25400D03*
X1229360Y40640D03*
X1229360Y55880D03*
X1229360Y71120D03*
X1229360Y86360D03*
X1229360Y101600D03*
X1229360Y116840D03*
X1102360Y40640D03*
X1102360Y55880D03*
X1102360Y71120D03*
X1102360Y86360D03*
X1102360Y101600D03*
X1102360Y116840D03*
X1229360Y132080D03*
X1102360Y132080D03*
X1229360Y147320D03*
X1102360Y147320D03*
X1229360Y162560D03*
X1229360Y177800D03*
X1229360Y193040D03*
X1229360Y208280D03*
X1229360Y223520D03*
X1229360Y238760D03*
X1229360Y254000D03*
X1229360Y269240D03*
X1229360Y284480D03*
X1102360Y162560D03*
X1102360Y177800D03*
X1102360Y193040D03*
X1102360Y208280D03*
X1102360Y223520D03*
X1102360Y238760D03*
X1102360Y254000D03*
X1102360Y269240D03*
X1102360Y284480D03*
X1620520Y614680D03*
X1620520Y523240D03*
X1625600Y599440D03*
X1625600Y584200D03*
X1625600Y568960D03*
X1625600Y553720D03*
X1625600Y538480D03*
X1605280Y614680D03*
X1590040Y614680D03*
X1574800Y614680D03*
X1559560Y614680D03*
X1544320Y614680D03*
X1529080Y614680D03*
X1513840Y614680D03*
X1498600Y614680D03*
X1605280Y523240D03*
X1590040Y523240D03*
X1574800Y523240D03*
X1559560Y523240D03*
X1544320Y523240D03*
X1529080Y523240D03*
X1513840Y523240D03*
X1498600Y523240D03*
X1529080Y538480D03*
X1529080Y553720D03*
X1513840Y538480D03*
X1498600Y538480D03*
X1498600Y553720D03*
X1513840Y553720D03*
X1513840Y599440D03*
X1513840Y584200D03*
X1529080Y599440D03*
X1529080Y584200D03*
X1498600Y584200D03*
X1224280Y614680D03*
X1239520Y518160D03*
X1446530Y609600D03*
X1446530Y548640D03*
X1264920Y591820D03*
X1313180Y591820D03*
X1313180Y546100D03*
X1264920Y546100D03*
X1280160Y591820D03*
X1297940Y591820D03*
X1280160Y546100D03*
X1297940Y546100D03*
X1264920Y561340D03*
X1264920Y576580D03*
X1313180Y561340D03*
X1313180Y576580D03*
X1280160Y561340D03*
X1297940Y561340D03*
X1297940Y576580D03*
X1280160Y576580D03*
X1272540Y553720D03*
X1272540Y568960D03*
X1272540Y584200D03*
X1305560Y584200D03*
X1305560Y568960D03*
X1305560Y553720D03*
X1289050Y584200D03*
X1289050Y568960D03*
X1289050Y553720D03*
D16*
X499110Y736600D03*
X770890Y426720D03*
D17*
X935990Y585470D03*
X857250Y699770D03*
X972820Y480060D03*
X1130300Y560070D03*
X1130300Y598170D03*
X935990Y610870D03*
X1033780Y480060D03*
X1033780Y610870D03*
X935990Y779780D03*
X935990Y765810D03*
X935990Y792480D03*
X972820Y765810D03*
X935990Y805180D03*
X1009650Y765810D03*
X935990Y817626D03*
X1046480Y765810D03*
X937260Y560070D03*
X937260Y534670D03*
X937260Y521970D03*
X937260Y546100D03*
X1080770Y560070D03*
X1047750Y572770D03*
X951230Y572770D03*
X935990Y480060D03*
D18*
X459740Y889000D03*
D17*
X788670Y534670D03*
D18*
X482600Y863600D03*
D17*
X788670Y547370D03*
X788670Y560070D03*
X788670Y805180D03*
X788670Y817880D03*
X763270Y817880D03*
X763270Y844550D03*
X788670Y830580D03*
D18*
X547370Y572770D03*
X516890Y572770D03*
D17*
X788670Y572770D03*
X788670Y792480D03*
D18*
X273050Y1038860D03*
X232410Y1037590D03*
D17*
X788670Y843280D03*
X1597660Y855980D03*
X1597660Y1046480D03*
X1113790Y560070D03*
X1113790Y598170D03*
X935990Y598170D03*
X1009650Y480060D03*
X1009650Y598170D03*
X1397000Y553720D03*
X1394460Y605790D03*
D18*
X100330Y885190D03*
X100330Y819150D03*
X76200Y819150D03*
D15*
X115570Y547370D03*
D16*
X209550Y651510D03*
X50800Y651510D03*
X254000Y651510D03*
X226060Y386080D03*
X58420Y266700D03*
X388620Y386080D03*
D17*
X1336040Y520700D03*
X1354455Y551815D03*
X1366520Y563880D03*
X1350645Y596265D03*
X1323340Y645160D03*
X1310640Y657860D03*
X1269365Y657225D03*
X1257300Y643890D03*
D18*
X1423670Y694690D03*
X1186180Y703580D03*
X1445260Y448310D03*
D17*
X1258570Y471170D03*
X1258570Y491490D03*
X1319530Y461010D03*
D18*
X1191260Y443230D03*
D17*
X1219125Y537285D03*
X1209040Y599440D03*
D16*
X279400Y386080D03*
D17*
X908050Y930910D03*
X890270Y487680D03*
D18*
X822960Y1089660D03*
D17*
X913130Y651510D03*
X1153160Y557530D03*
X1033780Y636270D03*
X857250Y669290D03*
X948690Y669290D03*
X1097280Y560070D03*
X1108710Y621030D03*
X788670Y598170D03*
X788670Y623570D03*
X788670Y610870D03*
X788670Y585470D03*
X1082040Y767080D03*
X1082040Y830580D03*
X935990Y830580D03*
M02*
