M48
;GenerationSoftware,Autodesk,EAGLE,9.6.2*%
;CreationDate,2021-07-29T21:10:54Z*%
FMAT,2
ICI,OFF
METRIC,TZ,000.000
T6C0.350
T5C0.650
T4C0.900
T3C1.000
T2C1.270
T1C1.778
%
G90
M71
T1
X155184Y59573
X160284Y59573
X160284Y54473
X155184Y54473
X114036Y11567
X119136Y11567
X119136Y6467
X114036Y6467
X139436Y11567
X113528Y102733
X118628Y102733
X118628Y107833
X113528Y107833
X138928Y102733
X144028Y102733
X144028Y107833
X138928Y107833
X139436Y6467
X144536Y6467
X144536Y11567
T2
X157734Y57023
X116586Y9017
X141986Y9017
X116078Y105283
X141478Y105283
T3
X158064Y71882
X158064Y74422
X158064Y76962
X27813Y19431
X4064Y76200
X8382Y36830
X33274Y38608
X85725Y108890
X85725Y106350
X85725Y103810
X70485Y42672
X73025Y42672
X17780Y93980
X15240Y93980
X17780Y91440
X15240Y91440
X17780Y88900
X15240Y88900
X17780Y86360
X15240Y86360
X17780Y83820
X15240Y83820
X17780Y81280
X15240Y81280
X17780Y78740
X15240Y78740
X17780Y76200
X15240Y76200
X17780Y73660
X15240Y73660
X17780Y71120
X15240Y71120
X60960Y93980
X58420Y93980
X60960Y91440
X58420Y91440
X60960Y88900
X58420Y88900
X60960Y86360
X58420Y86360
X60960Y83820
X58420Y83820
X60960Y81280
X58420Y81280
X60960Y78740
X58420Y78740
X60960Y76200
X58420Y76200
X60960Y73660
X58420Y73660
X60960Y71120
X58420Y71120
X27940Y38608
X38862Y38608
X5842Y26670
X22606Y38608
X25400Y65151
X5080Y65151
X20955Y65151
X77089Y42672
X49911Y73660
T4
X15494Y19431
X38481Y19431
X51054Y19431
X12065Y12700
X35052Y12700
X18796Y44450
X18796Y46990
X18796Y49530
X18796Y52070
X11557Y54737
T5
X82296Y103886
X82296Y108966
X119126Y44323
X144526Y44831
X118618Y70358
X142367Y69469
X7620Y81915
X10033Y81915
X10033Y88519
X23241Y103759
X27305Y103886
X51689Y57277
X54737Y57277
X48260Y86360
X45974Y88900
T6
X147828Y98044
X147828Y96520
X147828Y94996
X147828Y93472
X147828Y91948
X147828Y90424
X147828Y88900
X147828Y87376
X147828Y85852
X148336Y2540
X135636Y2540
X146812Y2540
X145288Y2540
X137160Y2540
X138684Y2540
X140208Y2540
X143764Y2540
X141224Y2540
X142748Y2540
X148336Y4064
X148336Y5588
X148336Y7112
X148336Y8636
X148336Y10160
X148336Y11684
X135636Y4064
X135636Y5588
X135636Y7112
X135636Y8636
X135636Y10160
X135636Y11684
X148336Y13208
X135636Y13208
X148336Y14732
X135636Y14732
X148336Y16256
X148336Y17780
X148336Y19304
X148336Y20828
X148336Y22352
X148336Y23876
X148336Y25400
X148336Y26924
X148336Y28448
X135636Y16256
X135636Y17780
X135636Y19304
X135636Y20828
X135636Y22352
X135636Y23876
X135636Y25400
X135636Y26924
X135636Y28448
X122936Y2540
X110236Y2540
X121412Y2540
X119888Y2540
X111760Y2540
X113284Y2540
X114808Y2540
X118364Y2540
X115824Y2540
X117348Y2540
X122936Y4064
X122936Y5588
X122936Y7112
X122936Y8636
X122936Y10160
X122936Y11684
X110236Y4064
X110236Y5588
X110236Y7112
X110236Y8636
X110236Y10160
X110236Y11684
X122936Y13208
X110236Y13208
X122936Y14732
X110236Y14732
X122936Y16256
X122936Y17780
X122936Y19304
X122936Y20828
X122936Y22352
X122936Y23876
X122936Y25400
X122936Y26924
X122936Y28448
X110236Y16256
X110236Y17780
X110236Y19304
X110236Y20828
X110236Y22352
X110236Y23876
X110236Y25400
X110236Y26924
X110236Y28448
X162052Y61468
X162052Y52324
X162560Y59944
X162560Y58420
X162560Y56896
X162560Y55372
X162560Y53848
X160528Y61468
X159004Y61468
X157480Y61468
X155956Y61468
X154432Y61468
X135128Y110236
X151384Y61468
X149860Y61468
X160528Y52324
X159004Y52324
X157480Y52324
X155956Y52324
X154432Y52324
X152908Y52324
X151384Y52324
X149860Y52324
X152908Y53848
X152908Y55372
X151384Y53848
X149860Y53848
X149860Y55372
X151384Y55372
X151384Y59944
X151384Y58420
X152908Y59944
X152908Y58420
X149860Y58420
X122428Y61468
X123952Y51816
X144653Y60960
X144653Y54864
X126492Y59182
X131318Y59182
X131318Y54610
X126492Y54610
X128016Y59182
X129794Y59182
X128016Y54610
X129794Y54610
X126492Y56134
X126492Y57658
X131318Y56134
X131318Y57658
X128016Y56134
X129794Y56134
X129794Y57658
X128016Y57658
X127254Y55372
X127254Y56896
X127254Y58420
X130556Y58420
X130556Y56896
X130556Y55372
X128905Y58420
X128905Y56896
X128905Y55372
X140716Y111760
X142240Y111760
X93599Y58547
X85725Y69977
X97282Y48006
X113030Y56007
X113030Y59817
X93599Y61087
X103378Y48006
X103378Y61087
X93599Y77978
X93599Y76581
X93599Y79248
X97282Y76581
X93599Y80518
X100965Y76581
X93599Y81763
X104648Y76581
X93726Y56007
X93726Y53467
X93726Y52197
X93726Y54610
X108077Y56007
X104775Y57277
X95123Y57277
X93599Y48006
X135128Y85852
X78867Y53467
X135128Y87376
X78867Y54737
X78867Y56007
X78867Y80518
X78867Y81788
X76327Y81788
X76327Y84455
X78867Y83058
X135128Y88900
X135128Y90424
X78867Y57277
X78867Y79248
X135128Y91948
X135128Y93472
X78867Y84328
X159766Y85598
X159766Y104648
X111379Y56007
X111379Y59817
X93599Y59817
X100965Y48006
X100965Y59817
X139700Y55372
X139446Y60579
X135128Y94996
X135128Y96520
X135128Y98044
X147828Y99568
X139700Y111760
X143256Y111760
X144780Y111760
X146304Y111760
X138176Y111760
X136652Y111760
X133604Y52070
X135446Y55181
X136652Y56388
X135065Y59626
X132334Y64516
X131064Y65786
X126936Y65723
X125730Y64389
X135128Y99568
X147828Y101092
X135128Y101092
X125857Y47117
X125857Y49149
X131953Y46101
X147828Y102616
X121912Y53728
X120904Y59944
X147828Y111760
X90805Y93091
X89027Y48768
X147828Y104140
X91313Y65151
X115316Y55753
X103378Y63627
X85725Y66929
X94869Y66929
X109728Y56007
X110871Y62103
X78867Y59817
X78867Y62357
X78867Y61087
X78867Y58547
X108204Y76708
X108204Y83058
X93599Y83058
X135128Y111760
X122428Y85852
X122428Y87376
X122428Y88900
X122428Y90424
X122428Y91948
X122428Y93472
X122428Y94996
X122428Y96520
X122428Y98044
X109728Y85852
X109728Y87376
X109728Y88900
X109728Y90424
X109728Y91948
X109728Y93472
X109728Y94996
X109728Y96520
X109728Y98044
X122428Y99568
X109728Y99568
X122428Y101092
X109728Y101092
X122428Y102616
X122428Y104140
X122428Y105664
X122428Y107188
X122428Y108712
X122428Y110236
X109728Y102616
X109728Y104140
X109728Y105664
X109728Y107188
X109728Y108712
X109728Y110236
X115316Y111760
X116840Y111760
X114300Y111760
X117856Y111760
X119380Y111760
X120904Y111760
X112776Y111760
X111252Y111760
X122428Y111760
X109728Y111760
X147828Y105664
X147828Y107188
X147828Y108712
X147828Y110236
X99187Y40640
X99060Y69596
X81153Y75946
X135128Y102616
X83439Y48768
X85471Y93091
X114173Y57150
X132207Y48768
X130683Y47244
X121031Y48133
X136779Y49276
X120396Y66548
X135382Y68834
X138303Y62484
X133477Y61341
X140843Y52197
X155448Y82804
X155448Y107696
X140462Y48133
X135128Y104140
X135128Y105664
X135128Y107188
X135128Y108712
X152908Y61468
M30