G04 EAGLE Gerber RS-274X export*
G75*
%MOMM*%
%FSLAX34Y34*%
%LPD*%
%INSolderpaste Top*%
%IPPOS*%
%AMOC8*
5,1,8,0,0,1.08239X$1,22.5*%
G01*
%ADD10R,0.700000X0.900000*%
%ADD11R,1.300000X1.500000*%
%ADD12R,0.900000X0.700000*%
%ADD13R,1.397000X0.762000*%
%ADD14R,1.000000X1.100000*%
%ADD15R,1.100000X1.000000*%
%ADD16R,0.600000X0.700000*%
%ADD17R,1.651000X2.540000*%
%ADD18R,2.032000X0.660400*%
%ADD19R,0.203200X0.812800*%
%ADD20R,0.812800X0.203200*%
%ADD21R,5.400000X6.200000*%
%ADD22R,1.000000X1.600000*%
%ADD23R,2.000000X2.200000*%
%ADD24R,2.200000X2.000000*%

G36*
X1319294Y585456D02*
X1319294Y585456D01*
X1319296Y585455D01*
X1319339Y585475D01*
X1319383Y585493D01*
X1319383Y585495D01*
X1319385Y585496D01*
X1319418Y585581D01*
X1319418Y599202D01*
X1319417Y599204D01*
X1319418Y599206D01*
X1319398Y599249D01*
X1319380Y599293D01*
X1319378Y599293D01*
X1319377Y599295D01*
X1319292Y599328D01*
X1305671Y599328D01*
X1305669Y599327D01*
X1305667Y599328D01*
X1305624Y599308D01*
X1305580Y599290D01*
X1305580Y599288D01*
X1305578Y599287D01*
X1305545Y599202D01*
X1305545Y585581D01*
X1305546Y585579D01*
X1305545Y585577D01*
X1305565Y585534D01*
X1305583Y585490D01*
X1305585Y585490D01*
X1305586Y585488D01*
X1305671Y585455D01*
X1319292Y585455D01*
X1319294Y585456D01*
G37*
G36*
X1303673Y585456D02*
X1303673Y585456D01*
X1303675Y585455D01*
X1303718Y585475D01*
X1303762Y585493D01*
X1303762Y585495D01*
X1303764Y585496D01*
X1303797Y585581D01*
X1303797Y599202D01*
X1303796Y599204D01*
X1303797Y599206D01*
X1303777Y599249D01*
X1303759Y599293D01*
X1303757Y599293D01*
X1303756Y599295D01*
X1303671Y599328D01*
X1290050Y599328D01*
X1290048Y599327D01*
X1290046Y599328D01*
X1290003Y599308D01*
X1289959Y599290D01*
X1289959Y599288D01*
X1289957Y599287D01*
X1289924Y599202D01*
X1289924Y585581D01*
X1289925Y585579D01*
X1289924Y585577D01*
X1289944Y585534D01*
X1289962Y585490D01*
X1289964Y585490D01*
X1289965Y585488D01*
X1290050Y585455D01*
X1303671Y585455D01*
X1303673Y585456D01*
G37*
G36*
X1288052Y585456D02*
X1288052Y585456D01*
X1288054Y585455D01*
X1288097Y585475D01*
X1288141Y585493D01*
X1288141Y585495D01*
X1288143Y585496D01*
X1288176Y585581D01*
X1288176Y599202D01*
X1288175Y599204D01*
X1288176Y599206D01*
X1288156Y599249D01*
X1288138Y599293D01*
X1288136Y599293D01*
X1288135Y599295D01*
X1288050Y599328D01*
X1274429Y599328D01*
X1274427Y599327D01*
X1274425Y599328D01*
X1274382Y599308D01*
X1274338Y599290D01*
X1274338Y599288D01*
X1274336Y599287D01*
X1274303Y599202D01*
X1274303Y585581D01*
X1274304Y585579D01*
X1274303Y585577D01*
X1274323Y585534D01*
X1274341Y585490D01*
X1274343Y585490D01*
X1274344Y585488D01*
X1274429Y585455D01*
X1288050Y585455D01*
X1288052Y585456D01*
G37*
G36*
X1272431Y585456D02*
X1272431Y585456D01*
X1272433Y585455D01*
X1272476Y585475D01*
X1272520Y585493D01*
X1272520Y585495D01*
X1272522Y585496D01*
X1272555Y585581D01*
X1272555Y599202D01*
X1272554Y599204D01*
X1272555Y599206D01*
X1272535Y599249D01*
X1272517Y599293D01*
X1272515Y599293D01*
X1272514Y599295D01*
X1272429Y599328D01*
X1258808Y599328D01*
X1258806Y599327D01*
X1258804Y599328D01*
X1258761Y599308D01*
X1258717Y599290D01*
X1258717Y599288D01*
X1258715Y599287D01*
X1258682Y599202D01*
X1258682Y585581D01*
X1258683Y585579D01*
X1258682Y585577D01*
X1258702Y585534D01*
X1258720Y585490D01*
X1258722Y585490D01*
X1258723Y585488D01*
X1258808Y585455D01*
X1272429Y585455D01*
X1272431Y585456D01*
G37*
G36*
X1319294Y569835D02*
X1319294Y569835D01*
X1319296Y569834D01*
X1319339Y569854D01*
X1319383Y569872D01*
X1319383Y569874D01*
X1319385Y569875D01*
X1319418Y569960D01*
X1319418Y583581D01*
X1319417Y583583D01*
X1319418Y583585D01*
X1319398Y583628D01*
X1319380Y583672D01*
X1319378Y583672D01*
X1319377Y583674D01*
X1319292Y583707D01*
X1305671Y583707D01*
X1305669Y583706D01*
X1305667Y583707D01*
X1305624Y583687D01*
X1305580Y583669D01*
X1305580Y583667D01*
X1305578Y583666D01*
X1305545Y583581D01*
X1305545Y569960D01*
X1305546Y569958D01*
X1305545Y569956D01*
X1305565Y569913D01*
X1305583Y569869D01*
X1305585Y569869D01*
X1305586Y569867D01*
X1305671Y569834D01*
X1319292Y569834D01*
X1319294Y569835D01*
G37*
G36*
X1272431Y569835D02*
X1272431Y569835D01*
X1272433Y569834D01*
X1272476Y569854D01*
X1272520Y569872D01*
X1272520Y569874D01*
X1272522Y569875D01*
X1272555Y569960D01*
X1272555Y583581D01*
X1272554Y583583D01*
X1272555Y583585D01*
X1272535Y583628D01*
X1272517Y583672D01*
X1272515Y583672D01*
X1272514Y583674D01*
X1272429Y583707D01*
X1258808Y583707D01*
X1258806Y583706D01*
X1258804Y583707D01*
X1258761Y583687D01*
X1258717Y583669D01*
X1258717Y583667D01*
X1258715Y583666D01*
X1258682Y583581D01*
X1258682Y569960D01*
X1258683Y569958D01*
X1258682Y569956D01*
X1258702Y569913D01*
X1258720Y569869D01*
X1258722Y569869D01*
X1258723Y569867D01*
X1258808Y569834D01*
X1272429Y569834D01*
X1272431Y569835D01*
G37*
G36*
X1288052Y569835D02*
X1288052Y569835D01*
X1288054Y569834D01*
X1288097Y569854D01*
X1288141Y569872D01*
X1288141Y569874D01*
X1288143Y569875D01*
X1288176Y569960D01*
X1288176Y583581D01*
X1288175Y583583D01*
X1288176Y583585D01*
X1288156Y583628D01*
X1288138Y583672D01*
X1288136Y583672D01*
X1288135Y583674D01*
X1288050Y583707D01*
X1274429Y583707D01*
X1274427Y583706D01*
X1274425Y583707D01*
X1274382Y583687D01*
X1274338Y583669D01*
X1274338Y583667D01*
X1274336Y583666D01*
X1274303Y583581D01*
X1274303Y569960D01*
X1274304Y569958D01*
X1274303Y569956D01*
X1274323Y569913D01*
X1274341Y569869D01*
X1274343Y569869D01*
X1274344Y569867D01*
X1274429Y569834D01*
X1288050Y569834D01*
X1288052Y569835D01*
G37*
G36*
X1303673Y569835D02*
X1303673Y569835D01*
X1303675Y569834D01*
X1303718Y569854D01*
X1303762Y569872D01*
X1303762Y569874D01*
X1303764Y569875D01*
X1303797Y569960D01*
X1303797Y583581D01*
X1303796Y583583D01*
X1303797Y583585D01*
X1303777Y583628D01*
X1303759Y583672D01*
X1303757Y583672D01*
X1303756Y583674D01*
X1303671Y583707D01*
X1290050Y583707D01*
X1290048Y583706D01*
X1290046Y583707D01*
X1290003Y583687D01*
X1289959Y583669D01*
X1289959Y583667D01*
X1289957Y583666D01*
X1289924Y583581D01*
X1289924Y569960D01*
X1289925Y569958D01*
X1289924Y569956D01*
X1289944Y569913D01*
X1289962Y569869D01*
X1289964Y569869D01*
X1289965Y569867D01*
X1290050Y569834D01*
X1303671Y569834D01*
X1303673Y569835D01*
G37*
G36*
X1272431Y554214D02*
X1272431Y554214D01*
X1272433Y554213D01*
X1272476Y554233D01*
X1272520Y554251D01*
X1272520Y554253D01*
X1272522Y554254D01*
X1272555Y554339D01*
X1272555Y567960D01*
X1272554Y567962D01*
X1272555Y567964D01*
X1272535Y568007D01*
X1272517Y568051D01*
X1272515Y568051D01*
X1272514Y568053D01*
X1272429Y568086D01*
X1258808Y568086D01*
X1258806Y568085D01*
X1258804Y568086D01*
X1258761Y568066D01*
X1258717Y568048D01*
X1258717Y568046D01*
X1258715Y568045D01*
X1258682Y567960D01*
X1258682Y554339D01*
X1258683Y554337D01*
X1258682Y554335D01*
X1258702Y554292D01*
X1258720Y554248D01*
X1258722Y554248D01*
X1258723Y554246D01*
X1258808Y554213D01*
X1272429Y554213D01*
X1272431Y554214D01*
G37*
G36*
X1303673Y554214D02*
X1303673Y554214D01*
X1303675Y554213D01*
X1303718Y554233D01*
X1303762Y554251D01*
X1303762Y554253D01*
X1303764Y554254D01*
X1303797Y554339D01*
X1303797Y567960D01*
X1303796Y567962D01*
X1303797Y567964D01*
X1303777Y568007D01*
X1303759Y568051D01*
X1303757Y568051D01*
X1303756Y568053D01*
X1303671Y568086D01*
X1290050Y568086D01*
X1290048Y568085D01*
X1290046Y568086D01*
X1290003Y568066D01*
X1289959Y568048D01*
X1289959Y568046D01*
X1289957Y568045D01*
X1289924Y567960D01*
X1289924Y554339D01*
X1289925Y554337D01*
X1289924Y554335D01*
X1289944Y554292D01*
X1289962Y554248D01*
X1289964Y554248D01*
X1289965Y554246D01*
X1290050Y554213D01*
X1303671Y554213D01*
X1303673Y554214D01*
G37*
G36*
X1319294Y554214D02*
X1319294Y554214D01*
X1319296Y554213D01*
X1319339Y554233D01*
X1319383Y554251D01*
X1319383Y554253D01*
X1319385Y554254D01*
X1319418Y554339D01*
X1319418Y567960D01*
X1319417Y567962D01*
X1319418Y567964D01*
X1319398Y568007D01*
X1319380Y568051D01*
X1319378Y568051D01*
X1319377Y568053D01*
X1319292Y568086D01*
X1305671Y568086D01*
X1305669Y568085D01*
X1305667Y568086D01*
X1305624Y568066D01*
X1305580Y568048D01*
X1305580Y568046D01*
X1305578Y568045D01*
X1305545Y567960D01*
X1305545Y554339D01*
X1305546Y554337D01*
X1305545Y554335D01*
X1305565Y554292D01*
X1305583Y554248D01*
X1305585Y554248D01*
X1305586Y554246D01*
X1305671Y554213D01*
X1319292Y554213D01*
X1319294Y554214D01*
G37*
G36*
X1288052Y554214D02*
X1288052Y554214D01*
X1288054Y554213D01*
X1288097Y554233D01*
X1288141Y554251D01*
X1288141Y554253D01*
X1288143Y554254D01*
X1288176Y554339D01*
X1288176Y567960D01*
X1288175Y567962D01*
X1288176Y567964D01*
X1288156Y568007D01*
X1288138Y568051D01*
X1288136Y568051D01*
X1288135Y568053D01*
X1288050Y568086D01*
X1274429Y568086D01*
X1274427Y568085D01*
X1274425Y568086D01*
X1274382Y568066D01*
X1274338Y568048D01*
X1274338Y568046D01*
X1274336Y568045D01*
X1274303Y567960D01*
X1274303Y554339D01*
X1274304Y554337D01*
X1274303Y554335D01*
X1274323Y554292D01*
X1274341Y554248D01*
X1274343Y554248D01*
X1274344Y554246D01*
X1274429Y554213D01*
X1288050Y554213D01*
X1288052Y554214D01*
G37*
G36*
X1319294Y538593D02*
X1319294Y538593D01*
X1319296Y538592D01*
X1319339Y538612D01*
X1319383Y538630D01*
X1319383Y538632D01*
X1319385Y538633D01*
X1319418Y538718D01*
X1319418Y552339D01*
X1319417Y552341D01*
X1319418Y552343D01*
X1319398Y552386D01*
X1319380Y552430D01*
X1319378Y552430D01*
X1319377Y552432D01*
X1319292Y552465D01*
X1305671Y552465D01*
X1305669Y552464D01*
X1305667Y552465D01*
X1305624Y552445D01*
X1305580Y552427D01*
X1305580Y552425D01*
X1305578Y552424D01*
X1305545Y552339D01*
X1305545Y538718D01*
X1305546Y538716D01*
X1305545Y538714D01*
X1305565Y538671D01*
X1305583Y538627D01*
X1305585Y538627D01*
X1305586Y538625D01*
X1305671Y538592D01*
X1319292Y538592D01*
X1319294Y538593D01*
G37*
G36*
X1303673Y538593D02*
X1303673Y538593D01*
X1303675Y538592D01*
X1303718Y538612D01*
X1303762Y538630D01*
X1303762Y538632D01*
X1303764Y538633D01*
X1303797Y538718D01*
X1303797Y552339D01*
X1303796Y552341D01*
X1303797Y552343D01*
X1303777Y552386D01*
X1303759Y552430D01*
X1303757Y552430D01*
X1303756Y552432D01*
X1303671Y552465D01*
X1290050Y552465D01*
X1290048Y552464D01*
X1290046Y552465D01*
X1290003Y552445D01*
X1289959Y552427D01*
X1289959Y552425D01*
X1289957Y552424D01*
X1289924Y552339D01*
X1289924Y538718D01*
X1289925Y538716D01*
X1289924Y538714D01*
X1289944Y538671D01*
X1289962Y538627D01*
X1289964Y538627D01*
X1289965Y538625D01*
X1290050Y538592D01*
X1303671Y538592D01*
X1303673Y538593D01*
G37*
G36*
X1288052Y538593D02*
X1288052Y538593D01*
X1288054Y538592D01*
X1288097Y538612D01*
X1288141Y538630D01*
X1288141Y538632D01*
X1288143Y538633D01*
X1288176Y538718D01*
X1288176Y552339D01*
X1288175Y552341D01*
X1288176Y552343D01*
X1288156Y552386D01*
X1288138Y552430D01*
X1288136Y552430D01*
X1288135Y552432D01*
X1288050Y552465D01*
X1274429Y552465D01*
X1274427Y552464D01*
X1274425Y552465D01*
X1274382Y552445D01*
X1274338Y552427D01*
X1274338Y552425D01*
X1274336Y552424D01*
X1274303Y552339D01*
X1274303Y538718D01*
X1274304Y538716D01*
X1274303Y538714D01*
X1274323Y538671D01*
X1274341Y538627D01*
X1274343Y538627D01*
X1274344Y538625D01*
X1274429Y538592D01*
X1288050Y538592D01*
X1288052Y538593D01*
G37*
G36*
X1272431Y538593D02*
X1272431Y538593D01*
X1272433Y538592D01*
X1272476Y538612D01*
X1272520Y538630D01*
X1272520Y538632D01*
X1272522Y538633D01*
X1272555Y538718D01*
X1272555Y552339D01*
X1272554Y552341D01*
X1272555Y552343D01*
X1272535Y552386D01*
X1272517Y552430D01*
X1272515Y552430D01*
X1272514Y552432D01*
X1272429Y552465D01*
X1258808Y552465D01*
X1258806Y552464D01*
X1258804Y552465D01*
X1258761Y552445D01*
X1258717Y552427D01*
X1258717Y552425D01*
X1258715Y552424D01*
X1258682Y552339D01*
X1258682Y538718D01*
X1258683Y538716D01*
X1258682Y538714D01*
X1258702Y538671D01*
X1258720Y538627D01*
X1258722Y538627D01*
X1258723Y538625D01*
X1258808Y538592D01*
X1272429Y538592D01*
X1272431Y538593D01*
G37*
D10*
G36*
X1366805Y533102D02*
X1361856Y538051D01*
X1368219Y544414D01*
X1373168Y539465D01*
X1366805Y533102D01*
G37*
G36*
X1375997Y523910D02*
X1371048Y528859D01*
X1377411Y535222D01*
X1382360Y530273D01*
X1375997Y523910D01*
G37*
X1207620Y518160D03*
X1220620Y518160D03*
X1242210Y491490D03*
X1229210Y491490D03*
X1237130Y675640D03*
X1224130Y675640D03*
G36*
X1342180Y657637D02*
X1337231Y652688D01*
X1330868Y659051D01*
X1335817Y664000D01*
X1342180Y657637D01*
G37*
G36*
X1351372Y666829D02*
X1346423Y661880D01*
X1340060Y668243D01*
X1345009Y673192D01*
X1351372Y666829D01*
G37*
D11*
X1597000Y1076960D03*
X1578000Y1076960D03*
X1597000Y828040D03*
X1578000Y828040D03*
D10*
X1403500Y585470D03*
X1390500Y585470D03*
X1403500Y571500D03*
X1390500Y571500D03*
D11*
G36*
X1463935Y651451D02*
X1454743Y642259D01*
X1444137Y652865D01*
X1453329Y662057D01*
X1463935Y651451D01*
G37*
G36*
X1477371Y664887D02*
X1468179Y655695D01*
X1457573Y666301D01*
X1466765Y675493D01*
X1477371Y664887D01*
G37*
D12*
X1168400Y956160D03*
X1168400Y969160D03*
X1168400Y874880D03*
X1168400Y887880D03*
X1153160Y915520D03*
X1153160Y928520D03*
D10*
X1182520Y982980D03*
X1169520Y982980D03*
X1182515Y942462D03*
X1169515Y942462D03*
X1182520Y901700D03*
X1169520Y901700D03*
X1182520Y861060D03*
X1169520Y861060D03*
X1152040Y861060D03*
X1139040Y861060D03*
X1152040Y901700D03*
X1139040Y901700D03*
X1152040Y942340D03*
X1139040Y942340D03*
X1152040Y982980D03*
X1139040Y982980D03*
D12*
X1422400Y956160D03*
X1422400Y969160D03*
X1422400Y874880D03*
X1422400Y887880D03*
X1407160Y915520D03*
X1407160Y928520D03*
D10*
X1436520Y982980D03*
X1423520Y982980D03*
X1436520Y942340D03*
X1423520Y942340D03*
X1436520Y901700D03*
X1423520Y901700D03*
X1436520Y861060D03*
X1423520Y861060D03*
X1406040Y861060D03*
X1393040Y861060D03*
X1187600Y571500D03*
X1174600Y571500D03*
X1406040Y901700D03*
X1393040Y901700D03*
X1406040Y942340D03*
X1393040Y942340D03*
X1406040Y982980D03*
X1393040Y982980D03*
D12*
X1158240Y186840D03*
X1158240Y173840D03*
X1173480Y227480D03*
X1173480Y214480D03*
D10*
X1144120Y160020D03*
X1157120Y160020D03*
X1144120Y200660D03*
X1157120Y200660D03*
X1144120Y241300D03*
X1157120Y241300D03*
X1144120Y281940D03*
X1157120Y281940D03*
G36*
X1388395Y535642D02*
X1383446Y540591D01*
X1389809Y546954D01*
X1394758Y542005D01*
X1388395Y535642D01*
G37*
G36*
X1397587Y526450D02*
X1392638Y531399D01*
X1399001Y537762D01*
X1403950Y532813D01*
X1397587Y526450D01*
G37*
X1174600Y281940D03*
X1187600Y281940D03*
X1174600Y241300D03*
X1187600Y241300D03*
X1174600Y200660D03*
X1187600Y200660D03*
X1174600Y160020D03*
X1187600Y160020D03*
D12*
X1412240Y186840D03*
X1412240Y173840D03*
X1412240Y268120D03*
X1412240Y255120D03*
X1427480Y227480D03*
X1427480Y214480D03*
D10*
X1398120Y160020D03*
X1411120Y160020D03*
X1398120Y200660D03*
X1411120Y200660D03*
X1398120Y241300D03*
X1411120Y241300D03*
X1398120Y281940D03*
X1411120Y281940D03*
X1428600Y281940D03*
X1441600Y281940D03*
X1428600Y241300D03*
X1441600Y241300D03*
X1428600Y200660D03*
X1441600Y200660D03*
X1428600Y160020D03*
X1441600Y160020D03*
G36*
X1349787Y509734D02*
X1344838Y514683D01*
X1351201Y521046D01*
X1356150Y516097D01*
X1349787Y509734D01*
G37*
G36*
X1358979Y500542D02*
X1354030Y505491D01*
X1360393Y511854D01*
X1365342Y506905D01*
X1358979Y500542D01*
G37*
G36*
X1373093Y443020D02*
X1378042Y438071D01*
X1371679Y431708D01*
X1366730Y436657D01*
X1373093Y443020D01*
G37*
G36*
X1363901Y452212D02*
X1368850Y447263D01*
X1362487Y440900D01*
X1357538Y445849D01*
X1363901Y452212D01*
G37*
X1188570Y614680D03*
X1201570Y614680D03*
D13*
X1458595Y570230D03*
X1458595Y582930D03*
X1458595Y595630D03*
X1492885Y595630D03*
X1492885Y570230D03*
D12*
X1173480Y255120D03*
X1173480Y268120D03*
X1412240Y214480D03*
X1412240Y227480D03*
X1427480Y173840D03*
X1427480Y186840D03*
X1427480Y255120D03*
X1427480Y268120D03*
X1168400Y928520D03*
X1168400Y915520D03*
X1153160Y969160D03*
X1153160Y956160D03*
X1153160Y887880D03*
X1153160Y874880D03*
X1422400Y928520D03*
X1422400Y915520D03*
X1407160Y969160D03*
X1407160Y956160D03*
X1407160Y887880D03*
X1407160Y874880D03*
X1158240Y214480D03*
X1158240Y227480D03*
X1173480Y173840D03*
X1173480Y186840D03*
D14*
X1199270Y420370D03*
X1216270Y420370D03*
X1166250Y420370D03*
X1183250Y420370D03*
X1178170Y722630D03*
X1161170Y722630D03*
X1211190Y722630D03*
X1194190Y722630D03*
D15*
X1423670Y587620D03*
X1423670Y570620D03*
D16*
X1428670Y601980D03*
X1418670Y601980D03*
X1418670Y556260D03*
X1428670Y556260D03*
D14*
X1415170Y722630D03*
X1432170Y722630D03*
X1448190Y722630D03*
X1465190Y722630D03*
X1420391Y420407D03*
X1437391Y420407D03*
X1453270Y420370D03*
X1470270Y420370D03*
G36*
X1395489Y498238D02*
X1402560Y491167D01*
X1394783Y483390D01*
X1387712Y490461D01*
X1395489Y498238D01*
G37*
G36*
X1383469Y510258D02*
X1390540Y503187D01*
X1382763Y495410D01*
X1375692Y502481D01*
X1383469Y510258D01*
G37*
X1406280Y635000D03*
X1423280Y635000D03*
D17*
X1216660Y378460D03*
X1216660Y327660D03*
X1191260Y378460D03*
X1165860Y378460D03*
X1191260Y327660D03*
X1165860Y327660D03*
X1160780Y764540D03*
X1160780Y815340D03*
X1186180Y764540D03*
X1211580Y764540D03*
X1186180Y815340D03*
X1211580Y815340D03*
X1414780Y764540D03*
X1414780Y815340D03*
X1440180Y764540D03*
X1465580Y764540D03*
X1440180Y815340D03*
X1465580Y815340D03*
X1470660Y378460D03*
X1470660Y327660D03*
X1445260Y378460D03*
X1419860Y378460D03*
X1445260Y327660D03*
X1419860Y327660D03*
D18*
X812038Y894080D03*
X812038Y881380D03*
X812038Y868680D03*
X812038Y855980D03*
X812038Y843280D03*
X812038Y830580D03*
X812038Y817880D03*
X812038Y805180D03*
X912622Y805180D03*
X912622Y817880D03*
X912622Y830580D03*
X912622Y843280D03*
X912622Y855980D03*
X912622Y868680D03*
X912622Y881380D03*
X912622Y894080D03*
X812038Y792480D03*
X812038Y779780D03*
X912622Y792480D03*
X912622Y779780D03*
X812038Y636270D03*
X812038Y623570D03*
X812038Y610870D03*
X812038Y598170D03*
X812038Y585470D03*
X812038Y572770D03*
X812038Y560070D03*
X812038Y547370D03*
X912622Y547370D03*
X912622Y560070D03*
X912622Y572770D03*
X912622Y585470D03*
X912622Y598170D03*
X912622Y610870D03*
X912622Y623570D03*
X912622Y636270D03*
X812038Y534670D03*
X812038Y521970D03*
X912622Y534670D03*
X912622Y521970D03*
D12*
X1158240Y268120D03*
X1158240Y255120D03*
D19*
X1256550Y529971D03*
X1261550Y529971D03*
X1266550Y529971D03*
X1271550Y529971D03*
X1276550Y529971D03*
X1281550Y529971D03*
X1286550Y529971D03*
X1291550Y529971D03*
X1296550Y529971D03*
X1301550Y529971D03*
X1306550Y529971D03*
X1311550Y529971D03*
X1316550Y529971D03*
X1321550Y529971D03*
D20*
X1328039Y536460D03*
X1328039Y541460D03*
X1328039Y546460D03*
X1328039Y551460D03*
X1328039Y556460D03*
X1328039Y561460D03*
X1328039Y566460D03*
X1328039Y571460D03*
X1328039Y576460D03*
X1328039Y581460D03*
X1328039Y586460D03*
X1328039Y591460D03*
X1328039Y596460D03*
X1328039Y601460D03*
D19*
X1321550Y607949D03*
X1316550Y607949D03*
X1311550Y607949D03*
X1306550Y607949D03*
X1301550Y607949D03*
X1296550Y607949D03*
X1291550Y607949D03*
X1286550Y607949D03*
X1281550Y607949D03*
X1276550Y607949D03*
X1271550Y607949D03*
X1266550Y607949D03*
X1261550Y607949D03*
X1256550Y607949D03*
D20*
X1250061Y601460D03*
X1250061Y596460D03*
X1250061Y591460D03*
X1250061Y586460D03*
X1250061Y581460D03*
X1250061Y576460D03*
X1250061Y571460D03*
X1250061Y566460D03*
X1250061Y561460D03*
X1250061Y556460D03*
X1250061Y551460D03*
X1250061Y546460D03*
X1250061Y541460D03*
X1250061Y536460D03*
D15*
X1009650Y724290D03*
X1009650Y741290D03*
X972820Y724290D03*
X972820Y741290D03*
X935990Y724290D03*
X935990Y741290D03*
X1046480Y437270D03*
X1046480Y454270D03*
X972820Y437270D03*
X972820Y454270D03*
X935990Y437270D03*
X935990Y454270D03*
D21*
X177800Y304400D03*
D22*
X155000Y231400D03*
X200600Y231400D03*
D21*
X407670Y304400D03*
D22*
X384870Y231400D03*
X430470Y231400D03*
D23*
X200420Y127000D03*
X170420Y127000D03*
D24*
X279400Y262650D03*
X279400Y232650D03*
D23*
X430290Y127000D03*
X400290Y127000D03*
D24*
X510540Y261380D03*
X510540Y231380D03*
D15*
X1046480Y724290D03*
X1046480Y741290D03*
X870830Y487680D03*
X853830Y487680D03*
X889880Y930910D03*
X872880Y930910D03*
D10*
G36*
X1367580Y606837D02*
X1362631Y601888D01*
X1356268Y608251D01*
X1361217Y613200D01*
X1367580Y606837D01*
G37*
G36*
X1376772Y616029D02*
X1371823Y611080D01*
X1365460Y617443D01*
X1370409Y622392D01*
X1376772Y616029D01*
G37*
G36*
X1329480Y670337D02*
X1324531Y665388D01*
X1318168Y671751D01*
X1323117Y676700D01*
X1329480Y670337D01*
G37*
G36*
X1338672Y679529D02*
X1333723Y674580D01*
X1327360Y680943D01*
X1332309Y685892D01*
X1338672Y679529D01*
G37*
X1237130Y654050D03*
X1224130Y654050D03*
X1242210Y471170D03*
X1229210Y471170D03*
D15*
X1009650Y437270D03*
X1009650Y454270D03*
M02*
