G04 EAGLE Gerber RS-274X export*
G75*
%MOMM*%
%FSLAX34Y34*%
%LPD*%
%INSoldermask Top*%
%IPPOS*%
%AMOC8*
5,1,8,0,0,1.08239X$1,22.5*%
G01*
%ADD10R,0.903200X1.103200*%
%ADD11R,1.503200X1.703200*%
%ADD12R,1.103200X0.903200*%
%ADD13R,1.600200X0.965200*%
%ADD14R,1.203200X1.303200*%
%ADD15R,1.303200X1.203200*%
%ADD16R,0.803200X0.903200*%
%ADD17R,1.854200X2.743200*%
%ADD18P,1.852186X8X112.500000*%
%ADD19R,2.235200X0.863600*%
%ADD20C,2.108200*%
%ADD21C,2.870200*%
%ADD22R,0.406400X1.016000*%
%ADD23R,1.016000X0.406400*%
%ADD24R,6.451600X6.451600*%
%ADD25P,1.852186X8X292.500000*%
%ADD26R,5.603200X6.403200*%
%ADD27R,1.203200X1.803200*%
%ADD28R,2.203200X2.403200*%
%ADD29R,2.403200X2.203200*%
%ADD30C,1.711200*%
%ADD31C,1.553200*%
%ADD32C,1.703200*%
%ADD33C,0.959600*%
%ADD34C,1.259600*%


D10*
G36*
X1366805Y531665D02*
X1360419Y538051D01*
X1368219Y545851D01*
X1374605Y539465D01*
X1366805Y531665D01*
G37*
G36*
X1375997Y522473D02*
X1369611Y528859D01*
X1377411Y536659D01*
X1383797Y530273D01*
X1375997Y522473D01*
G37*
X1207620Y518160D03*
X1220620Y518160D03*
X1242210Y491490D03*
X1229210Y491490D03*
X1237130Y675640D03*
X1224130Y675640D03*
G36*
X1343617Y657637D02*
X1337231Y651251D01*
X1329431Y659051D01*
X1335817Y665437D01*
X1343617Y657637D01*
G37*
G36*
X1352809Y666829D02*
X1346423Y660443D01*
X1338623Y668243D01*
X1345009Y674629D01*
X1352809Y666829D01*
G37*
D11*
X1597000Y1076960D03*
X1578000Y1076960D03*
X1597000Y828040D03*
X1578000Y828040D03*
D10*
X1403500Y585470D03*
X1390500Y585470D03*
X1403500Y571500D03*
X1390500Y571500D03*
D11*
G36*
X1465372Y651451D02*
X1454743Y640822D01*
X1442700Y652865D01*
X1453329Y663494D01*
X1465372Y651451D01*
G37*
G36*
X1478808Y664887D02*
X1468179Y654258D01*
X1456136Y666301D01*
X1466765Y676930D01*
X1478808Y664887D01*
G37*
D12*
X1168400Y956160D03*
X1168400Y969160D03*
X1168400Y874880D03*
X1168400Y887880D03*
X1153160Y915520D03*
X1153160Y928520D03*
D10*
X1182520Y982980D03*
X1169520Y982980D03*
X1182515Y942462D03*
X1169515Y942462D03*
X1182520Y901700D03*
X1169520Y901700D03*
X1182520Y861060D03*
X1169520Y861060D03*
X1152040Y861060D03*
X1139040Y861060D03*
X1152040Y901700D03*
X1139040Y901700D03*
X1152040Y942340D03*
X1139040Y942340D03*
X1152040Y982980D03*
X1139040Y982980D03*
D12*
X1422400Y956160D03*
X1422400Y969160D03*
X1422400Y874880D03*
X1422400Y887880D03*
X1407160Y915520D03*
X1407160Y928520D03*
D10*
X1436520Y982980D03*
X1423520Y982980D03*
X1436520Y942340D03*
X1423520Y942340D03*
X1436520Y901700D03*
X1423520Y901700D03*
X1436520Y861060D03*
X1423520Y861060D03*
X1406040Y861060D03*
X1393040Y861060D03*
X1187600Y571500D03*
X1174600Y571500D03*
X1406040Y901700D03*
X1393040Y901700D03*
X1406040Y942340D03*
X1393040Y942340D03*
X1406040Y982980D03*
X1393040Y982980D03*
D12*
X1158240Y186840D03*
X1158240Y173840D03*
X1173480Y227480D03*
X1173480Y214480D03*
D10*
X1144120Y160020D03*
X1157120Y160020D03*
X1144120Y200660D03*
X1157120Y200660D03*
X1144120Y241300D03*
X1157120Y241300D03*
X1144120Y281940D03*
X1157120Y281940D03*
G36*
X1388395Y534205D02*
X1382009Y540591D01*
X1389809Y548391D01*
X1396195Y542005D01*
X1388395Y534205D01*
G37*
G36*
X1397587Y525013D02*
X1391201Y531399D01*
X1399001Y539199D01*
X1405387Y532813D01*
X1397587Y525013D01*
G37*
X1174600Y281940D03*
X1187600Y281940D03*
X1174600Y241300D03*
X1187600Y241300D03*
X1174600Y200660D03*
X1187600Y200660D03*
X1174600Y160020D03*
X1187600Y160020D03*
D12*
X1412240Y186840D03*
X1412240Y173840D03*
X1412240Y268120D03*
X1412240Y255120D03*
X1427480Y227480D03*
X1427480Y214480D03*
D10*
X1398120Y160020D03*
X1411120Y160020D03*
X1398120Y200660D03*
X1411120Y200660D03*
X1398120Y241300D03*
X1411120Y241300D03*
X1398120Y281940D03*
X1411120Y281940D03*
X1428600Y281940D03*
X1441600Y281940D03*
X1428600Y241300D03*
X1441600Y241300D03*
X1428600Y200660D03*
X1441600Y200660D03*
X1428600Y160020D03*
X1441600Y160020D03*
G36*
X1349787Y508297D02*
X1343401Y514683D01*
X1351201Y522483D01*
X1357587Y516097D01*
X1349787Y508297D01*
G37*
G36*
X1358979Y499105D02*
X1352593Y505491D01*
X1360393Y513291D01*
X1366779Y506905D01*
X1358979Y499105D01*
G37*
G36*
X1373093Y444457D02*
X1379479Y438071D01*
X1371679Y430271D01*
X1365293Y436657D01*
X1373093Y444457D01*
G37*
G36*
X1363901Y453649D02*
X1370287Y447263D01*
X1362487Y439463D01*
X1356101Y445849D01*
X1363901Y453649D01*
G37*
X1188570Y614680D03*
X1201570Y614680D03*
D13*
X1458595Y570230D03*
X1458595Y582930D03*
X1458595Y595630D03*
X1492885Y595630D03*
X1492885Y570230D03*
D12*
X1173480Y255120D03*
X1173480Y268120D03*
X1412240Y214480D03*
X1412240Y227480D03*
X1427480Y173840D03*
X1427480Y186840D03*
X1427480Y255120D03*
X1427480Y268120D03*
X1168400Y928520D03*
X1168400Y915520D03*
X1153160Y969160D03*
X1153160Y956160D03*
X1153160Y887880D03*
X1153160Y874880D03*
X1422400Y928520D03*
X1422400Y915520D03*
X1407160Y969160D03*
X1407160Y956160D03*
X1407160Y887880D03*
X1407160Y874880D03*
X1158240Y214480D03*
X1158240Y227480D03*
X1173480Y173840D03*
X1173480Y186840D03*
D14*
X1199270Y420370D03*
X1216270Y420370D03*
X1166250Y420370D03*
X1183250Y420370D03*
X1178170Y722630D03*
X1161170Y722630D03*
X1211190Y722630D03*
X1194190Y722630D03*
D15*
X1423670Y587620D03*
X1423670Y570620D03*
D16*
X1428670Y601980D03*
X1418670Y601980D03*
X1418670Y556260D03*
X1428670Y556260D03*
D14*
X1415170Y722630D03*
X1432170Y722630D03*
X1448190Y722630D03*
X1465190Y722630D03*
X1420391Y420407D03*
X1437391Y420407D03*
X1453270Y420370D03*
X1470270Y420370D03*
G36*
X1395489Y499675D02*
X1403997Y491167D01*
X1394783Y481953D01*
X1386275Y490461D01*
X1395489Y499675D01*
G37*
G36*
X1383469Y511695D02*
X1391977Y503187D01*
X1382763Y493973D01*
X1374255Y502481D01*
X1383469Y511695D01*
G37*
X1406280Y635000D03*
X1423280Y635000D03*
D17*
X1216660Y378460D03*
X1216660Y327660D03*
X1191260Y378460D03*
X1165860Y378460D03*
X1191260Y327660D03*
X1165860Y327660D03*
X1160780Y764540D03*
X1160780Y815340D03*
X1186180Y764540D03*
X1211580Y764540D03*
X1186180Y815340D03*
X1211580Y815340D03*
X1414780Y764540D03*
X1414780Y815340D03*
X1440180Y764540D03*
X1465580Y764540D03*
X1440180Y815340D03*
X1465580Y815340D03*
X1470660Y378460D03*
X1470660Y327660D03*
X1445260Y378460D03*
X1419860Y378460D03*
X1445260Y327660D03*
X1419860Y327660D03*
D18*
X584200Y711200D03*
X609600Y711200D03*
X584200Y736600D03*
X609600Y736600D03*
X584200Y762000D03*
X609600Y762000D03*
X584200Y787400D03*
X609600Y787400D03*
X584200Y812800D03*
X609600Y812800D03*
X584200Y838200D03*
X609600Y838200D03*
X584200Y863600D03*
X609600Y863600D03*
X584200Y889000D03*
X609600Y889000D03*
X584200Y914400D03*
X609600Y914400D03*
X584200Y939800D03*
X609600Y939800D03*
X152400Y711200D03*
X177800Y711200D03*
X152400Y736600D03*
X177800Y736600D03*
X152400Y762000D03*
X177800Y762000D03*
X152400Y787400D03*
X177800Y787400D03*
X152400Y812800D03*
X177800Y812800D03*
X152400Y838200D03*
X177800Y838200D03*
X152400Y863600D03*
X177800Y863600D03*
X152400Y889000D03*
X177800Y889000D03*
X152400Y914400D03*
X177800Y914400D03*
X152400Y939800D03*
X177800Y939800D03*
D19*
X812038Y894080D03*
X812038Y881380D03*
X812038Y868680D03*
X812038Y855980D03*
X812038Y843280D03*
X812038Y830580D03*
X812038Y817880D03*
X812038Y805180D03*
X912622Y805180D03*
X912622Y817880D03*
X912622Y830580D03*
X912622Y843280D03*
X912622Y855980D03*
X912622Y868680D03*
X912622Y881380D03*
X912622Y894080D03*
X812038Y792480D03*
X812038Y779780D03*
X912622Y792480D03*
X912622Y779780D03*
X812038Y636270D03*
X812038Y623570D03*
X812038Y610870D03*
X812038Y598170D03*
X812038Y585470D03*
X812038Y572770D03*
X812038Y560070D03*
X812038Y547370D03*
X912622Y547370D03*
X912622Y560070D03*
X912622Y572770D03*
X912622Y585470D03*
X912622Y598170D03*
X912622Y610870D03*
X912622Y623570D03*
X912622Y636270D03*
X812038Y534670D03*
X812038Y521970D03*
X912622Y534670D03*
X912622Y521970D03*
D20*
X1577340Y570230D03*
D21*
X1551841Y595729D03*
X1602839Y595729D03*
X1602839Y544731D03*
X1551841Y544731D03*
D20*
X1165860Y90170D03*
D21*
X1140361Y115669D03*
X1191359Y115669D03*
X1191359Y64671D03*
X1140361Y64671D03*
D20*
X1419860Y90170D03*
D21*
X1394361Y115669D03*
X1445359Y115669D03*
X1445359Y64671D03*
X1394361Y64671D03*
D20*
X1414780Y1052830D03*
D21*
X1389281Y1078329D03*
X1440279Y1078329D03*
X1440279Y1027331D03*
X1389281Y1027331D03*
D20*
X1160780Y1052830D03*
D21*
X1135281Y1078329D03*
X1186279Y1078329D03*
X1186279Y1027331D03*
X1135281Y1027331D03*
D12*
X1158240Y268120D03*
X1158240Y255120D03*
D22*
X1256550Y529971D03*
X1261550Y529971D03*
X1266550Y529971D03*
X1271550Y529971D03*
X1276550Y529971D03*
X1281550Y529971D03*
X1286550Y529971D03*
X1291550Y529971D03*
X1296550Y529971D03*
X1301550Y529971D03*
X1306550Y529971D03*
X1311550Y529971D03*
X1316550Y529971D03*
X1321550Y529971D03*
D23*
X1328039Y536460D03*
X1328039Y541460D03*
X1328039Y546460D03*
X1328039Y551460D03*
X1328039Y556460D03*
X1328039Y561460D03*
X1328039Y566460D03*
X1328039Y571460D03*
X1328039Y576460D03*
X1328039Y581460D03*
X1328039Y586460D03*
X1328039Y591460D03*
X1328039Y596460D03*
X1328039Y601460D03*
D22*
X1321550Y607949D03*
X1316550Y607949D03*
X1311550Y607949D03*
X1306550Y607949D03*
X1301550Y607949D03*
X1296550Y607949D03*
X1291550Y607949D03*
X1286550Y607949D03*
X1281550Y607949D03*
X1276550Y607949D03*
X1271550Y607949D03*
X1266550Y607949D03*
X1261550Y607949D03*
X1256550Y607949D03*
D23*
X1250061Y601460D03*
X1250061Y596460D03*
X1250061Y591460D03*
X1250061Y586460D03*
X1250061Y581460D03*
X1250061Y576460D03*
X1250061Y571460D03*
X1250061Y566460D03*
X1250061Y561460D03*
X1250061Y556460D03*
X1250061Y551460D03*
X1250061Y546460D03*
X1250061Y541460D03*
X1250061Y536460D03*
D24*
X1289050Y568960D03*
D18*
X1580642Y718820D03*
X1580642Y744220D03*
X1580642Y769620D03*
D25*
X857250Y1088898D03*
X857250Y1063498D03*
X857250Y1038098D03*
D15*
X1009650Y724290D03*
X1009650Y741290D03*
X972820Y724290D03*
X972820Y741290D03*
X935990Y724290D03*
X935990Y741290D03*
X1046480Y437270D03*
X1046480Y454270D03*
X972820Y437270D03*
X972820Y454270D03*
X935990Y437270D03*
X935990Y454270D03*
D26*
X177800Y304400D03*
D27*
X155000Y231400D03*
X200600Y231400D03*
D26*
X407670Y304400D03*
D27*
X384870Y231400D03*
X430470Y231400D03*
D28*
X200420Y127000D03*
X170420Y127000D03*
D29*
X279400Y262650D03*
X279400Y232650D03*
D28*
X430290Y127000D03*
X400290Y127000D03*
D29*
X510540Y261380D03*
X510540Y231380D03*
D15*
X1046480Y724290D03*
X1046480Y741290D03*
X870830Y487680D03*
X853830Y487680D03*
X889880Y930910D03*
X872880Y930910D03*
D10*
G36*
X1369017Y606837D02*
X1362631Y600451D01*
X1354831Y608251D01*
X1361217Y614637D01*
X1369017Y606837D01*
G37*
G36*
X1378209Y616029D02*
X1371823Y609643D01*
X1364023Y617443D01*
X1370409Y623829D01*
X1378209Y616029D01*
G37*
G36*
X1330917Y670337D02*
X1324531Y663951D01*
X1316731Y671751D01*
X1323117Y678137D01*
X1330917Y670337D01*
G37*
G36*
X1340109Y679529D02*
X1333723Y673143D01*
X1325923Y680943D01*
X1332309Y687329D01*
X1340109Y679529D01*
G37*
X1237130Y654050D03*
X1224130Y654050D03*
X1242210Y471170D03*
X1229210Y471170D03*
D15*
X1009650Y437270D03*
X1009650Y454270D03*
D30*
X704850Y434260D02*
X704850Y419180D01*
X730250Y419180D02*
X730250Y434260D01*
D31*
X154940Y194310D03*
X384810Y194310D03*
X510540Y194310D03*
X120650Y127000D03*
X350520Y127000D03*
D20*
X332740Y386080D03*
X83820Y368300D03*
X40640Y762000D03*
D32*
X278130Y194310D03*
D33*
X1404620Y481330D03*
X1554480Y1076960D03*
X1554480Y828040D03*
X1408430Y521970D03*
X1334770Y613410D03*
X1383030Y624840D03*
X1353820Y688340D03*
X1203960Y665480D03*
X1367790Y492760D03*
X1210310Y481330D03*
X1306830Y472440D03*
X1322070Y487680D03*
X1141730Y571500D03*
X854710Y930910D03*
X834390Y487680D03*
D34*
X822960Y1038860D03*
D33*
X811530Y759460D03*
X990600Y695960D03*
X991870Y406400D03*
D31*
X187960Y444500D03*
X187960Y469900D03*
X187960Y495300D03*
X187960Y520700D03*
D33*
X1097280Y1117600D03*
X1224280Y1117600D03*
X1112520Y1117600D03*
X1127760Y1117600D03*
X1209040Y1117600D03*
X1193800Y1117600D03*
X1178560Y1117600D03*
X1143000Y1117600D03*
X1168400Y1117600D03*
X1153160Y1117600D03*
X1097280Y1102360D03*
X1097280Y1087120D03*
X1097280Y1071880D03*
X1097280Y1056640D03*
X1097280Y1041400D03*
X1097280Y1026160D03*
X1224280Y1102360D03*
X1224280Y1087120D03*
X1224280Y1071880D03*
X1224280Y1056640D03*
X1224280Y1041400D03*
X1224280Y1026160D03*
X1097280Y1010920D03*
X1224280Y1010920D03*
X1097280Y995680D03*
X1224280Y995680D03*
X1097280Y980440D03*
X1097280Y965200D03*
X1097280Y949960D03*
X1097280Y934720D03*
X1097280Y919480D03*
X1097280Y904240D03*
X1097280Y889000D03*
X1097280Y873760D03*
X1097280Y858520D03*
X1224280Y980440D03*
X1224280Y965200D03*
X1224280Y949960D03*
X1224280Y934720D03*
X1224280Y919480D03*
X1224280Y904240D03*
X1224280Y889000D03*
X1224280Y873760D03*
X1224280Y858520D03*
X1351280Y1117600D03*
X1478280Y1117600D03*
X1366520Y1117600D03*
X1381760Y1117600D03*
X1463040Y1117600D03*
X1447800Y1117600D03*
X1432560Y1117600D03*
X1397000Y1117600D03*
X1422400Y1117600D03*
X1407160Y1117600D03*
X1351280Y1102360D03*
X1351280Y1087120D03*
X1351280Y1071880D03*
X1351280Y1056640D03*
X1351280Y1041400D03*
X1351280Y1026160D03*
X1478280Y1102360D03*
X1478280Y1087120D03*
X1478280Y1071880D03*
X1478280Y1056640D03*
X1478280Y1041400D03*
X1478280Y1026160D03*
X1351280Y1010920D03*
X1478280Y1010920D03*
X1351280Y995680D03*
X1478280Y995680D03*
X1351280Y980440D03*
X1351280Y965200D03*
X1351280Y949960D03*
X1351280Y934720D03*
X1351280Y919480D03*
X1351280Y904240D03*
X1351280Y889000D03*
X1351280Y873760D03*
X1351280Y858520D03*
X1478280Y980440D03*
X1478280Y965200D03*
X1478280Y949960D03*
X1478280Y934720D03*
X1478280Y919480D03*
X1478280Y904240D03*
X1478280Y889000D03*
X1478280Y873760D03*
X1478280Y858520D03*
X1483360Y25400D03*
X1356360Y25400D03*
X1468120Y25400D03*
X1452880Y25400D03*
X1371600Y25400D03*
X1386840Y25400D03*
X1402080Y25400D03*
X1437640Y25400D03*
X1412240Y25400D03*
X1427480Y25400D03*
X1483360Y40640D03*
X1483360Y55880D03*
X1483360Y71120D03*
X1483360Y86360D03*
X1483360Y101600D03*
X1483360Y116840D03*
X1356360Y40640D03*
X1356360Y55880D03*
X1356360Y71120D03*
X1356360Y86360D03*
X1356360Y101600D03*
X1356360Y116840D03*
X1483360Y132080D03*
X1356360Y132080D03*
X1483360Y147320D03*
X1356360Y147320D03*
X1483360Y162560D03*
X1483360Y177800D03*
X1483360Y193040D03*
X1483360Y208280D03*
X1483360Y223520D03*
X1483360Y238760D03*
X1483360Y254000D03*
X1483360Y269240D03*
X1483360Y284480D03*
X1356360Y162560D03*
X1356360Y177800D03*
X1356360Y193040D03*
X1356360Y208280D03*
X1356360Y223520D03*
X1356360Y238760D03*
X1356360Y254000D03*
X1356360Y269240D03*
X1356360Y284480D03*
X1229360Y25400D03*
X1102360Y25400D03*
X1214120Y25400D03*
X1198880Y25400D03*
X1117600Y25400D03*
X1132840Y25400D03*
X1148080Y25400D03*
X1183640Y25400D03*
X1158240Y25400D03*
X1173480Y25400D03*
X1229360Y40640D03*
X1229360Y55880D03*
X1229360Y71120D03*
X1229360Y86360D03*
X1229360Y101600D03*
X1229360Y116840D03*
X1102360Y40640D03*
X1102360Y55880D03*
X1102360Y71120D03*
X1102360Y86360D03*
X1102360Y101600D03*
X1102360Y116840D03*
X1229360Y132080D03*
X1102360Y132080D03*
X1229360Y147320D03*
X1102360Y147320D03*
X1229360Y162560D03*
X1229360Y177800D03*
X1229360Y193040D03*
X1229360Y208280D03*
X1229360Y223520D03*
X1229360Y238760D03*
X1229360Y254000D03*
X1229360Y269240D03*
X1229360Y284480D03*
X1102360Y162560D03*
X1102360Y177800D03*
X1102360Y193040D03*
X1102360Y208280D03*
X1102360Y223520D03*
X1102360Y238760D03*
X1102360Y254000D03*
X1102360Y269240D03*
X1102360Y284480D03*
X1620520Y614680D03*
X1620520Y523240D03*
X1625600Y599440D03*
X1625600Y584200D03*
X1625600Y568960D03*
X1625600Y553720D03*
X1625600Y538480D03*
X1605280Y614680D03*
X1590040Y614680D03*
X1574800Y614680D03*
X1559560Y614680D03*
X1544320Y614680D03*
X1529080Y614680D03*
X1513840Y614680D03*
X1498600Y614680D03*
X1605280Y523240D03*
X1590040Y523240D03*
X1574800Y523240D03*
X1559560Y523240D03*
X1544320Y523240D03*
X1529080Y523240D03*
X1513840Y523240D03*
X1498600Y523240D03*
X1529080Y538480D03*
X1529080Y553720D03*
X1513840Y538480D03*
X1498600Y538480D03*
X1498600Y553720D03*
X1513840Y553720D03*
X1513840Y599440D03*
X1513840Y584200D03*
X1529080Y599440D03*
X1529080Y584200D03*
X1498600Y584200D03*
X1224280Y614680D03*
X1239520Y518160D03*
X1446530Y609600D03*
X1446530Y548640D03*
X1264920Y591820D03*
X1313180Y591820D03*
X1313180Y546100D03*
X1264920Y546100D03*
X1280160Y591820D03*
X1297940Y591820D03*
X1280160Y546100D03*
X1297940Y546100D03*
X1264920Y561340D03*
X1264920Y576580D03*
X1313180Y561340D03*
X1313180Y576580D03*
X1280160Y561340D03*
X1297940Y561340D03*
X1297940Y576580D03*
X1280160Y576580D03*
X1272540Y553720D03*
X1272540Y568960D03*
X1272540Y584200D03*
X1305560Y584200D03*
X1305560Y568960D03*
X1305560Y553720D03*
X1289050Y584200D03*
X1289050Y568960D03*
X1289050Y553720D03*
D32*
X499110Y736600D03*
X770890Y426720D03*
D33*
X935990Y585470D03*
X857250Y699770D03*
X972820Y480060D03*
X1130300Y560070D03*
X1130300Y598170D03*
X935990Y610870D03*
X1033780Y480060D03*
X1033780Y610870D03*
X935990Y779780D03*
X935990Y765810D03*
X935990Y792480D03*
X972820Y765810D03*
X935990Y805180D03*
X1009650Y765810D03*
X935990Y817626D03*
X1046480Y765810D03*
X937260Y560070D03*
X937260Y534670D03*
X937260Y521970D03*
X937260Y546100D03*
X1080770Y560070D03*
X1047750Y572770D03*
X951230Y572770D03*
X935990Y480060D03*
D34*
X459740Y889000D03*
D33*
X788670Y534670D03*
D34*
X482600Y863600D03*
D33*
X788670Y547370D03*
X788670Y560070D03*
X788670Y805180D03*
X788670Y817880D03*
X763270Y817880D03*
X763270Y844550D03*
X788670Y830580D03*
D34*
X547370Y572770D03*
X516890Y572770D03*
D33*
X788670Y572770D03*
X788670Y792480D03*
D34*
X273050Y1038860D03*
X232410Y1037590D03*
D33*
X788670Y843280D03*
X1597660Y855980D03*
X1597660Y1046480D03*
X1113790Y560070D03*
X1113790Y598170D03*
X935990Y598170D03*
X1009650Y480060D03*
X1009650Y598170D03*
X1397000Y553720D03*
X1394460Y605790D03*
D34*
X100330Y885190D03*
X100330Y819150D03*
X76200Y819150D03*
D31*
X115570Y547370D03*
D32*
X209550Y651510D03*
X50800Y651510D03*
X254000Y651510D03*
D20*
X226060Y386080D03*
X58420Y266700D03*
X388620Y386080D03*
D33*
X1336040Y520700D03*
X1354455Y551815D03*
X1366520Y563880D03*
X1350645Y596265D03*
X1323340Y645160D03*
X1310640Y657860D03*
X1269365Y657225D03*
X1257300Y643890D03*
D34*
X1423670Y694690D03*
X1186180Y703580D03*
X1445260Y448310D03*
D33*
X1258570Y471170D03*
X1258570Y491490D03*
X1319530Y461010D03*
D34*
X1191260Y443230D03*
D33*
X1219125Y537285D03*
X1209040Y599440D03*
D20*
X279400Y386080D03*
D33*
X908050Y930910D03*
X890270Y487680D03*
D34*
X822960Y1089660D03*
D33*
X913130Y651510D03*
X1153160Y557530D03*
X1033780Y636270D03*
X857250Y669290D03*
X948690Y669290D03*
X1097280Y560070D03*
X1108710Y621030D03*
X788670Y598170D03*
X788670Y623570D03*
X788670Y610870D03*
X788670Y585470D03*
X1082040Y767080D03*
X1082040Y830580D03*
X935990Y830580D03*
M02*
